<?xml version="1.0" encoding="UTF-8" standalone="no"?>
<!-- Created with Inkscape (http://www.inkscape.org/) -->

<svg
   xmlns:dc="http://purl.org/dc/elements/1.1/"
   xmlns:cc="http://creativecommons.org/ns#"
   xmlns:rdf="http://www.w3.org/1999/02/22-rdf-syntax-ns#"
   xmlns:svg="http://www.w3.org/2000/svg"
   xmlns="http://www.w3.org/2000/svg"
   xmlns:xlink="http://www.w3.org/1999/xlink"
   xmlns:sodipodi="http://sodipodi.sourceforge.net/DTD/sodipodi-0.dtd"
   xmlns:inkscape="http://www.inkscape.org/namespaces/inkscape"
   width="744.09448819"
   height="1052.3622047"
   id="svg2"
   version="1.1"
   inkscape:version="0.48.4 r9939"
   sodipodi:docname="New document 1">
  <defs
     id="defs4" />
  <sodipodi:namedview
     id="base"
     pagecolor="#ffffff"
     bordercolor="#666666"
     borderopacity="1.0"
     inkscape:pageopacity="0.0"
     inkscape:pageshadow="2"
     inkscape:zoom="0.7"
     inkscape:cx="347.85982"
     inkscape:cy="655.86982"
     inkscape:document-units="px"
     inkscape:current-layer="layer1"
     showgrid="false"
     inkscape:window-width="1301"
     inkscape:window-height="744"
     inkscape:window-x="65"
     inkscape:window-y="24"
     inkscape:window-maximized="1" />
  <metadata
     id="metadata7">
    <rdf:RDF>
      <cc:Work
         rdf:about="">
        <dc:format>image/svg+xml</dc:format>
        <dc:type
           rdf:resource="http://purl.org/dc/dcmitype/StillImage" />
        <dc:title></dc:title>
      </cc:Work>
    </rdf:RDF>
  </metadata>
  <g
     inkscape:label="Layer 1"
     inkscape:groupmode="layer"
     id="layer1">
    <path
       style="fill:#00ff00;stroke:#000000;stroke-width:1px;stroke-linecap:butt;stroke-linejoin:miter;stroke-opacity:1"
       d="m 341.42857,329.50504 c -2.38095,-1.42857 -4.97466,-2.55116 -7.14286,-4.28571 -0.37184,-0.29748 0,-0.95239 0,-1.42858 -0.47619,-0.47619 -0.82623,-1.1274 -1.42857,-1.42857 -0.42591,-0.21296 -0.95238,0 -1.42857,0 -0.47619,-0.95238 -0.67565,-2.10422 -1.42857,-2.85714 -0.33672,-0.33672 -1.09185,0.33672 -1.42857,0 -0.75292,-0.75292 -0.67565,-2.10422 -1.42857,-2.85714 -0.33672,-0.33672 -1.04108,0.27678 -1.42857,0 -3.02641,-2.16173 -5.3203,-5.33667 -8.57143,-7.14286 -0.59783,-0.33213 -8.35086,0 -10,0 -0.47619,0 -1.09186,0.33672 -1.42857,0 -0.67344,-0.67344 0.67343,-2.18371 0,-2.85714 -0.33672,-0.33672 -1.09186,0.33671 -1.42858,0 -0.67343,-0.67344 0.67344,-2.18371 0,-2.85715 -0.33671,-0.33671 -1.09185,0.33672 -1.42857,0 -0.0575,-0.0575 0,-5.18966 0,-5.71428 0,-3.80953 0.47619,0.47619 -1.42857,-1.42857 -0.33672,-0.33672 -0.47619,-1.42857 0,-1.42857 2.36899,0 1.00169,2.00338 1.42857,2.85714 0.30117,0.60234 1.12741,0.82623 1.42857,1.42857 0.21296,0.42592 -0.33671,1.09185 0,1.42857 0.33672,0.33672 1.09186,-0.33672 1.42858,0 2.95576,2.95577 -4.5168,-0.11554 1.42857,2.85714 0.42592,0.21296 1.09185,-0.33671 1.42857,0 2.62985,2.62985 4.11645,6.40971 7.14286,8.57143 0.86645,0.6189 1.84699,-1.09185 2.85714,-1.42857 0.70908,-0.23636 4.16405,-0.12166 4.28571,0 0.33672,0.33672 -0.33671,1.09185 0,1.42857 0.67344,0.67344 2.18371,-0.67343 2.85715,0 0.33671,0.33672 -0.33672,1.09186 0,1.42857 0.67343,0.67344 2.0053,-0.42591 2.85714,0 5.94537,2.97269 -1.52719,-0.0986 1.42857,2.85715 0.33672,0.33671 0.95238,0 1.42857,0 0.47619,0.95238 0.83793,1.97118 1.42857,2.85714 0.74711,1.12066 1.9949,1.82245 2.85715,2.85714 4.77273,5.72728 9.00755,11.86469 14.28571,17.14286"
       id="path3025"
       inkscape:connector-curvature="0" />
    <use
       id="use3027"
       xlink:href="#path3025"
       transform="matrix(0.46065911,0.9643168,-0.9643168,0.46065911,470.28032,-123.79942)"
       x="0"
       y="0"
       width="744.09448"
       height="1052.3622" />
    <use
       id="use3029"
       xlink:href="#path3025"
       transform="matrix(0.12989556,0.54359191,-0.54359191,0.12989556,460.61348,113.56656)"
       x="0"
       y="0"
       width="744.09448"
       height="1052.3622" />
    <use
       id="use3031"
       xlink:href="#path3025"
       transform="matrix(0.55654967,0.28444333,-0.28444333,0.55654967,274.61988,66.86598)"
       x="0"
       y="0"
       width="744.09448"
       height="1052.3622" />
    <use
       id="use3033"
       xlink:href="#path3025"
       transform="matrix(1.2782302,0.44635348,-0.44635348,1.2782302,72.251916,-196.87214)"
       x="0"
       y="0"
       width="744.09448"
       height="1052.3622" />
    <use
       id="use3035"
       xlink:href="#path3025"
       transform="matrix(0.60863218,-0.27618728,0.27618728,0.60863218,61.764995,222.81114)"
       x="0"
       y="0"
       width="744.09448"
       height="1052.3622" />
    <use
       id="use3037"
       xlink:href="#path3025"
       transform="matrix(0.94109734,-0.14465411,0.14465411,0.94109734,11.436692,106.20218)"
       x="0"
       y="0"
       width="744.09448"
       height="1052.3622" />
    <use
       id="use3039"
       xlink:href="#path3025"
       transform="matrix(0.78124331,0.43990094,-0.43990094,0.78124331,245.31235,-36.902929)"
       x="0"
       y="0"
       width="744.09448"
       height="1052.3622" />
    <use
       id="use3041"
       xlink:href="#path3025"
       transform="matrix(0.5175162,0.70649212,-0.70649212,0.5175162,418.16924,-45.601254)"
       x="0"
       y="0"
       width="744.09448"
       height="1052.3622" />
    <use
       id="use3043"
       xlink:href="#path3025"
       transform="matrix(1.4012697,-0.09492264,0.09492264,1.4012697,-116.02036,-103.29622)"
       x="0"
       y="0"
       width="744.09448"
       height="1052.3622" />
    <use
       id="use3045"
       xlink:href="#path3025"
       transform="matrix(0.63267421,0.38463502,-0.38463502,0.63267421,283.65864,6.2542205)"
       x="0"
       y="0"
       width="744.09448"
       height="1052.3622" />
    <use
       id="use3047"
       xlink:href="#path3025"
       transform="matrix(0.39823125,-1.2078514,1.2078514,0.39823125,-177.34287,600.76641)"
       x="0"
       y="0"
       width="744.09448"
       height="1052.3622" />
    <use
       id="use3049"
       xlink:href="#path3025"
       transform="matrix(0.37068947,0.62445728,-0.62445728,0.37068947,428.15775,10.853405)"
       x="0"
       y="0"
       width="744.09448"
       height="1052.3622" />
    <use
       id="use3051"
       xlink:href="#path3025"
       transform="matrix(0.40658298,-1.1463043,1.1463043,0.40658298,-148.74306,581.27092)"
       x="0"
       y="0"
       width="744.09448"
       height="1052.3622" />
    <use
       id="use3053"
       xlink:href="#path3025"
       transform="matrix(0.92691617,-0.50886708,0.50886708,0.92691617,-123.13445,206.12172)"
       x="0"
       y="0"
       width="744.09448"
       height="1052.3622" />
    <use
       id="use3055"
       xlink:href="#path3025"
       transform="matrix(0.64900633,0.12967768,-0.12967768,0.64900633,169.43315,59.102295)"
       x="0"
       y="0"
       width="744.09448"
       height="1052.3622" />
    <use
       id="use3057"
       xlink:href="#path3025"
       transform="matrix(0.51224746,0.11893058,-0.11893058,0.51224746,212.89282,141.24879)"
       x="0"
       y="0"
       width="744.09448"
       height="1052.3622" />
    <use
       id="use3059"
       xlink:href="#path3025"
       transform="matrix(0.90174891,-0.25935741,0.25935741,0.90174891,-76.620624,92.653174)"
       x="0"
       y="0"
       width="744.09448"
       height="1052.3622" />
    <use
       id="use3061"
       xlink:href="#path3025"
       transform="matrix(0.69120979,0.97386149,-0.97386149,0.69120979,419.09562,-230.63308)"
       x="0"
       y="0"
       width="744.09448"
       height="1052.3622" />
    <use
       id="use3063"
       xlink:href="#path3025"
       transform="matrix(0.85173616,0.51672512,-0.51672512,0.85173616,185.62815,-111.35193)"
       x="0"
       y="0"
       width="744.09448"
       height="1052.3622" />
    <use
       id="use3065"
       xlink:href="#path3025"
       transform="matrix(1.1062561,-0.13257089,0.13257089,1.1062561,-124.16649,16.513354)"
       x="0"
       y="0"
       width="744.09448"
       height="1052.3622" />
    <use
       id="use3067"
       xlink:href="#path3025"
       transform="matrix(0.29906427,1.2350632,-1.2350632,0.29906427,600.42139,-151.32896)"
       x="0"
       y="0"
       width="744.09448"
       height="1052.3622" />
    <use
       id="use3069"
       xlink:href="#path3025"
       transform="matrix(1.1854863,-0.73475692,0.73475692,1.1854863,-298.68375,195.54696)"
       x="0"
       y="0"
       width="744.09448"
       height="1052.3622" />
    <use
       id="use3071"
       xlink:href="#path3025"
       transform="matrix(0.53201144,-0.09527933,0.09527933,0.53201144,126.65386,193.29713)"
       x="0"
       y="0"
       width="744.09448"
       height="1052.3622" />
    <use
       id="use3073"
       xlink:href="#path3025"
       transform="matrix(1.1341112,-0.89779852,0.89779852,1.1341112,-357.76341,262.54402)"
       x="0"
       y="0"
       width="744.09448"
       height="1052.3622" />
    <use
       id="use3075"
       xlink:href="#path3025"
       transform="matrix(0.72678398,0.09215162,-0.09215162,0.72678398,220.14325,82.005094)"
       x="0"
       y="0"
       width="744.09448"
       height="1052.3622" />
    <use
       id="use3077"
       xlink:href="#path3025"
       transform="matrix(1.2191626,-0.10241898,0.10241898,1.2191626,-11.211332,-41.39533)"
       x="0"
       y="0"
       width="744.09448"
       height="1052.3622" />
    <use
       id="use3079"
       xlink:href="#path3025"
       transform="matrix(1.3905393,-0.29099975,0.29099975,1.3905393,-118.28157,16.706621)"
       x="0"
       y="0"
       width="744.09448"
       height="1052.3622" />
    <use
       id="use3081"
       xlink:href="#path3025"
       transform="matrix(0.86432005,0.66639633,-0.66639633,0.86432005,317.17905,-146.24459)"
       x="0"
       y="0"
       width="744.09448"
       height="1052.3622" />
    <use
       id="use3083"
       xlink:href="#path3025"
       transform="matrix(0.42038777,0.75205743,-0.75205743,0.42038777,499.4535,-56.599246)"
       x="0"
       y="0"
       width="744.09448"
       height="1052.3622" />
    <use
       id="use3085"
       xlink:href="#path3025"
       transform="matrix(1.4866538,0.20338397,-0.20338397,1.4866538,-16.925439,-193.05805)"
       x="0"
       y="0"
       width="744.09448"
       height="1052.3622" />
    <use
       id="use3087"
       xlink:href="#path3025"
       transform="matrix(0.71919703,1.141119,-1.141119,0.71919703,485.04307,-333.53682)"
       x="0"
       y="0"
       width="744.09448"
       height="1052.3622" />
    <use
       id="use3089"
       xlink:href="#path3025"
       transform="matrix(0.35916313,0.55350647,-0.55350647,0.35916313,451.52905,-27.949982)"
       x="0"
       y="0"
       width="744.09448"
       height="1052.3622" />
    <use
       id="use3091"
       xlink:href="#path3025"
       transform="matrix(0.78649711,-0.89846777,0.89846777,0.78649711,-165.97224,307.31857)"
       x="0"
       y="0"
       width="744.09448"
       height="1052.3622" />
    <use
       id="use3093"
       xlink:href="#path3025"
       transform="matrix(1.2806343,-0.65483,0.65483,1.2806343,-275.45806,78.46036)"
       x="0"
       y="0"
       width="744.09448"
       height="1052.3622" />
    <use
       id="use3095"
       xlink:href="#path3025"
       transform="matrix(0.50319086,-0.47395562,0.47395562,0.50319086,11.449325,265.16177)"
       x="0"
       y="0"
       width="744.09448"
       height="1052.3622" />
    <use
       id="use3097"
       xlink:href="#path3025"
       transform="matrix(0.47858789,1.1657927,-1.1657927,0.47858789,522.76435,-227.38393)"
       x="0"
       y="0"
       width="744.09448"
       height="1052.3622" />
    <use
       id="use3099"
       xlink:href="#path3025"
       transform="matrix(0.26489652,0.54905192,-0.54905192,0.26489652,347.24763,47.625016)"
       x="0"
       y="0"
       width="744.09448"
       height="1052.3622" />
    <use
       id="use3101"
       xlink:href="#path3025"
       transform="matrix(1.098029,-0.4887514,0.4887514,1.098029,-187.23428,108.68419)"
       x="0"
       y="0"
       width="744.09448"
       height="1052.3622" />
    <use
       id="use3103"
       xlink:href="#path3025"
       transform="matrix(0.89116534,-1.115236,1.115236,0.89116534,-355.53455,326.51229)"
       x="0"
       y="0"
       width="744.09448"
       height="1052.3622" />
    <use
       id="use3105"
       xlink:href="#path3025"
       transform="matrix(1.3309881,-0.45545838,0.45545838,1.3309881,-287.26663,-16.292182)"
       x="0"
       y="0"
       width="744.09448"
       height="1052.3622" />
    <use
       id="use3107"
       xlink:href="#path3025"
       transform="matrix(0.62369918,-0.57338043,0.57338043,0.62369918,-80.956463,268.70784)"
       x="0"
       y="0"
       width="744.09448"
       height="1052.3622" />
    <use
       id="use3109"
       xlink:href="#path3025"
       transform="matrix(0.41701051,0.38639111,-0.38639111,0.41701051,267.37272,22.863829)"
       x="0"
       y="0"
       width="744.09448"
       height="1052.3622" />
    <use
       id="use3111"
       xlink:href="#path3025"
       transform="matrix(1.3194277,-0.10935097,0.10935097,1.3194277,-178.05916,-130.76201)"
       x="0"
       y="0"
       width="744.09448"
       height="1052.3622" />
    <use
       id="use3113"
       xlink:href="#path3025"
       transform="matrix(1.242684,0.66179521,-0.66179521,1.242684,129.87198,-360.54423)"
       x="0"
       y="0"
       width="744.09448"
       height="1052.3622" />
    <use
       id="use3115"
       xlink:href="#path3025"
       transform="matrix(0.12526124,0.54791052,-0.54791052,0.12526124,482.97812,41.837562)"
       x="0"
       y="0"
       width="744.09448"
       height="1052.3622" />
    <use
       id="use3117"
       xlink:href="#path3025"
       transform="matrix(0.53134718,-0.06997913,0.06997913,0.53134718,141.99721,113.60753)"
       x="0"
       y="0"
       width="744.09448"
       height="1052.3622" />
    <use
       id="use3119"
       xlink:href="#path3025"
       transform="matrix(0.55901967,1.3523889,-1.3523889,0.55901967,615.86465,-322.12957)"
       x="0"
       y="0"
       width="744.09448"
       height="1052.3622" />
    <use
       id="use3121"
       xlink:href="#path3025"
       transform="matrix(0.34403058,-0.46022289,0.46022289,0.34403058,96.961068,370.72394)"
       x="0"
       y="0"
       width="744.09448"
       height="1052.3622" />
    <use
       id="use3123"
       xlink:href="#path3025"
       transform="matrix(0.28469375,-1.2487752,1.2487752,0.28469375,-99.054026,633.53546)"
       x="0"
       y="0"
       width="744.09448"
       height="1052.3622" />
    <use
       id="use3125"
       xlink:href="#path3025"
       transform="matrix(0.80713117,0.74941201,-0.74941201,0.80713117,342.93436,-203.54682)"
       x="0"
       y="0"
       width="744.09448"
       height="1052.3622" />
    <use
       id="use3127"
       xlink:href="#path3025"
       transform="matrix(0.61830153,0.81675112,-0.81675112,0.61830153,419.06188,-183.12654)"
       x="0"
       y="0"
       width="744.09448"
       height="1052.3622" />
    <use
       id="use3129"
       xlink:href="#path3025"
       transform="matrix(0.2241052,0.71988971,-0.71988971,0.2241052,559.50235,-47.320139)"
       x="0"
       y="0"
       width="744.09448"
       height="1052.3622" />
    <use
       id="use3131"
       xlink:href="#path3025"
       transform="matrix(0.35881121,0.98041389,-0.98041389,0.35881121,555.52803,-148.30368)"
       x="0"
       y="0"
       width="744.09448"
       height="1052.3622" />
    <use
       id="use3133"
       xlink:href="#path3025"
       transform="matrix(0.63700838,0.88774023,-0.88774023,0.63700838,473.7174,-187.37286)"
       x="0"
       y="0"
       width="744.09448"
       height="1052.3622" />
    <use
       id="use3135"
       xlink:href="#path3025"
       transform="matrix(0.17244778,-0.51421537,0.51421537,0.17244778,167.36276,379.50028)"
       x="0"
       y="0"
       width="744.09448"
       height="1052.3622" />
    <use
       id="use3137"
       xlink:href="#path3025"
       transform="matrix(0.80972729,-0.28722495,0.28722495,0.80972729,-16.981905,95.556908)"
       x="0"
       y="0"
       width="744.09448"
       height="1052.3622" />
    <use
       id="use3139"
       xlink:href="#path3025"
       transform="matrix(0.72633464,-0.86700536,0.86700536,0.72633464,-196.56888,322.99838)"
       x="0"
       y="0"
       width="744.09448"
       height="1052.3622" />
    <use
       id="use3141"
       xlink:href="#path3025"
       transform="matrix(0.45509237,0.17802,-0.17802,0.45509237,224.5699,60.021463)"
       x="0"
       y="0"
       width="744.09448"
       height="1052.3622" />
    <use
       id="use3143"
       xlink:href="#path3025"
       transform="matrix(0.65047094,-0.64860023,0.64860023,0.65047094,-14.51245,252.64563)"
       x="0"
       y="0"
       width="744.09448"
       height="1052.3622" />
    <use
       id="use3145"
       xlink:href="#path3025"
       transform="matrix(0.37977249,1.2233685,-1.2233685,0.37977249,609.48976,-276.31767)"
       x="0"
       y="0"
       width="744.09448"
       height="1052.3622" />
    <use
       id="use3147"
       xlink:href="#path3025"
       transform="matrix(0.50004993,0.0813443,-0.0813443,0.50004993,214.12125,87.159315)"
       x="0"
       y="0"
       width="744.09448"
       height="1052.3622" />
    <use
       id="use3149"
       xlink:href="#path3025"
       transform="matrix(0.36046714,0.89235091,-0.89235091,0.36046714,517.77094,-153.36476)"
       x="0"
       y="0"
       width="744.09448"
       height="1052.3622" />
    <use
       id="use3151"
       xlink:href="#path3025"
       transform="matrix(0.8883623,0.35679904,-0.35679904,0.8883623,206.31263,-146.93403)"
       x="0"
       y="0"
       width="744.09448"
       height="1052.3622" />
    <use
       id="use3153"
       xlink:href="#path3025"
       transform="matrix(0.27603145,0.58976891,-0.58976891,0.27603145,508.93705,-34.828915)"
       x="0"
       y="0"
       width="744.09448"
       height="1052.3622" />
    <use
       id="use3155"
       xlink:href="#path3025"
       transform="matrix(0.78984671,-0.48785801,0.48785801,0.78984671,-11.462686,145.2141)"
       x="0"
       y="0"
       width="744.09448"
       height="1052.3622" />
    <use
       id="use3157"
       xlink:href="#path3025"
       transform="matrix(0.95724559,0.64208523,-0.64208523,0.95724559,302.99872,-249.3541)"
       x="0"
       y="0"
       width="744.09448"
       height="1052.3622" />
    <use
       id="use3159"
       xlink:href="#path3025"
       transform="matrix(0.54811652,1.3365858,-1.3365858,0.54811652,627.38365,-377.98212)"
       x="0"
       y="0"
       width="744.09448"
       height="1052.3622" />
    <use
       id="use3161"
       xlink:href="#path3025"
       transform="matrix(0.36687867,-1.1364479,1.1364479,0.36687867,-57.423209,464.36781)"
       x="0"
       y="0"
       width="744.09448"
       height="1052.3622" />
    <use
       id="use3163"
       xlink:href="#path3025"
       transform="matrix(0.76246381,-0.64012729,0.64012729,0.76246381,-53.087151,226.81634)"
       x="0"
       y="0"
       width="744.09448"
       height="1052.3622" />
    <use
       id="use3165"
       xlink:href="#path3025"
       transform="matrix(0.57012924,-1.2365551,1.2365551,0.57012924,-151.82691,486.12049)"
       x="0"
       y="0"
       width="744.09448"
       height="1052.3622" />
    <use
       id="use3167"
       xlink:href="#path3025"
       transform="matrix(0.51981299,-0.16677726,0.16677726,0.51981299,179.7271,176.38944)"
       x="0"
       y="0"
       width="744.09448"
       height="1052.3622" />
    <use
       id="use3169"
       xlink:href="#path3025"
       transform="matrix(1.1613587,-0.56277991,0.56277991,1.1613587,-189.21664,106.42079)"
       x="0"
       y="0"
       width="744.09448"
       height="1052.3622" />
    <use
       id="use3171"
       xlink:href="#path3025"
       transform="matrix(0.77073123,0.57728168,-0.57728168,0.77073123,320.11642,-125.95698)"
       x="0"
       y="0"
       width="744.09448"
       height="1052.3622" />
    <use
       id="use3173"
       xlink:href="#path3025"
       transform="matrix(0.63507852,0.27384231,-0.27384231,0.63507852,248.9532,-2.4640444)"
       x="0"
       y="0"
       width="744.09448"
       height="1052.3622" />
    <use
       id="use3175"
       xlink:href="#path3025"
       transform="matrix(0.73171375,-0.14838325,0.14838325,0.73171375,89.708253,121.84467)"
       x="0"
       y="0"
       width="744.09448"
       height="1052.3622" />
    <use
       id="use3177"
       xlink:href="#path3025"
       transform="matrix(0.34229771,1.3647171,-1.3647171,0.34229771,708.71706,-251.97484)"
       x="0"
       y="0"
       width="744.09448"
       height="1052.3622" />
    <use
       id="use3179"
       xlink:href="#path3025"
       transform="matrix(0.34203626,0.40265381,-0.40265381,0.34203626,420.0539,88.389984)"
       x="0"
       y="0"
       width="744.09448"
       height="1052.3622" />
    <use
       id="use3181"
       xlink:href="#path3025"
       transform="matrix(0.60996607,-0.99003589,0.99003589,0.60996607,-139.32874,455.33772)"
       x="0"
       y="0"
       width="744.09448"
       height="1052.3622" />
    <use
       id="use3183"
       xlink:href="#path3025"
       transform="matrix(0.29794434,-0.99896015,0.99896015,0.29794434,-44.937606,529.24038)"
       x="0"
       y="0"
       width="744.09448"
       height="1052.3622" />
    <use
       id="use3185"
       xlink:href="#path3025"
       transform="matrix(1.0446072,-0.29685671,0.29685671,1.0446072,-117.30663,96.740242)"
       x="0"
       y="0"
       width="744.09448"
       height="1052.3622" />
    <use
       id="use3187"
       xlink:href="#path3025"
       transform="matrix(0.31592577,-0.62242482,0.62242482,0.31592577,22.475887,451.96706)"
       x="0"
       y="0"
       width="744.09448"
       height="1052.3622" />
    <use
       id="use3189"
       xlink:href="#path3025"
       transform="matrix(0.65036253,-0.85265678,0.85265678,0.65036253,-153.90014,400.71709)"
       x="0"
       y="0"
       width="744.09448"
       height="1052.3622" />
    <use
       id="use3191"
       xlink:href="#path3025"
       transform="matrix(0.86873948,0.09941591,-0.09941591,0.86873948,52.511741,-0.89643122)"
       x="0"
       y="0"
       width="744.09448"
       height="1052.3622" />
    <use
       id="use3193"
       xlink:href="#path3025"
       transform="matrix(0.29305724,-0.4774273,0.4774273,0.29305724,53.665427,412.98203)"
       x="0"
       y="0"
       width="744.09448"
       height="1052.3622" />
    <use
       id="use3195"
       xlink:href="#path3025"
       transform="matrix(0.45726347,0.44281939,-0.44281939,0.45726347,270.56091,60.593992)"
       x="0"
       y="0"
       width="744.09448"
       height="1052.3622" />
    <use
       id="use3197"
       xlink:href="#path3025"
       transform="matrix(0.86582338,0.00343023,-0.00343023,0.86582338,7.9933077,97.482328)"
       x="0"
       y="0"
       width="744.09448"
       height="1052.3622" />
    <use
       id="use3199"
       xlink:href="#path3025"
       transform="matrix(1.148396,0.72037113,-0.72037113,1.148396,142.07747,-240.95765)"
       x="0"
       y="0"
       width="744.09448"
       height="1052.3622" />
    <use
       id="use3201"
       xlink:href="#path3025"
       transform="matrix(0.36713486,-0.57978916,0.57978916,0.36713486,-25.515233,415.83076)"
       x="0"
       y="0"
       width="744.09448"
       height="1052.3622" />
    <use
       id="use3203"
       xlink:href="#path3025"
       transform="matrix(1.0217634,0.27318866,-0.27318866,1.0217634,41.288813,-103.55581)"
       x="0"
       y="0"
       width="744.09448"
       height="1052.3622" />
    <use
       id="use3205"
       xlink:href="#path3025"
       transform="matrix(1.1891352,0.90405969,-0.90405969,1.1891352,155.00692,-339.16123)"
       x="0"
       y="0"
       width="744.09448"
       height="1052.3622" />
    <use
       id="use3207"
       xlink:href="#path3025"
       transform="matrix(0.27326524,-0.67345427,0.67345427,0.27326524,-56.090657,483.21126)"
       x="0"
       y="0"
       width="744.09448"
       height="1052.3622" />
    <use
       id="use3209"
       xlink:href="#path3025"
       transform="matrix(0.18808327,0.56126887,-0.56126887,0.18808327,399.32143,103.19753)"
       x="0"
       y="0"
       width="744.09448"
       height="1052.3622" />
    <use
       id="use3211"
       xlink:href="#path3025"
       transform="matrix(1.1320088,0.6823836,-0.6823836,1.1320088,87.961477,-255.64667)"
       x="0"
       y="0"
       width="744.09448"
       height="1052.3622" />
    <use
       id="use3213"
       xlink:href="#path3025"
       transform="matrix(0.42468639,0.85625487,-0.85625487,0.42468639,396.81779,-69.723013)"
       x="0"
       y="0"
       width="744.09448"
       height="1052.3622" />
    <use
       id="use3215"
       xlink:href="#path3025"
       transform="matrix(0.31214942,-0.83475489,0.83475489,0.31214942,-97.127048,505.61409)"
       x="0"
       y="0"
       width="744.09448"
       height="1052.3622" />
    <use
       id="use3217"
       xlink:href="#path3025"
       transform="matrix(0.42593963,0.52662423,-0.52662423,0.42593963,295.762,41.737259)"
       x="0"
       y="0"
       width="744.09448"
       height="1052.3622" />
    <use
       id="use3219"
       xlink:href="#path3025"
       transform="matrix(1.1091559,-0.99174757,0.99174757,1.1091559,-425.92952,295.17858)"
       x="0"
       y="0"
       width="744.09448"
       height="1052.3622" />
    <use
       id="use3221"
       xlink:href="#path3025"
       transform="matrix(0.36975721,0.62997639,-0.62997639,0.36975721,354.37554,-5.4993888)"
       x="0"
       y="0"
       width="744.09448"
       height="1052.3622" />
    <use
       id="use3223"
       xlink:href="#path3025"
       transform="matrix(0.41612289,-0.56983884,0.56983884,0.41612289,-43.346786,322.40057)"
       x="0"
       y="0"
       width="744.09448"
       height="1052.3622" />
    <use
       id="use3225"
       xlink:href="#path3025"
       transform="matrix(0.43348567,-0.51106435,0.51106435,0.43348567,-12.367733,275.52744)"
       x="0"
       y="0"
       width="744.09448"
       height="1052.3622" />
    <use
       id="use3227"
       xlink:href="#path3025"
       transform="matrix(0.9272373,-0.03175552,0.03175552,0.9272373,-40.670303,-9.2694738)"
       x="0"
       y="0"
       width="744.09448"
       height="1052.3622" />
    <use
       id="use3229"
       xlink:href="#path3025"
       transform="matrix(0.73781337,-0.09070776,0.09070776,0.73781337,35.631959,78.635641)"
       x="0"
       y="0"
       width="744.09448"
       height="1052.3622" />
    <use
       id="use3231"
       xlink:href="#path3025"
       transform="matrix(0.5533568,0.69164417,-0.69164417,0.5533568,298.93788,-115.02669)"
       x="0"
       y="0"
       width="744.09448"
       height="1052.3622" />
    <use
       id="use3233"
       xlink:href="#path3025"
       transform="matrix(1.5143814,-0.07480151,0.07480151,1.5143814,-233.22944,-193.31034)"
       x="0"
       y="0"
       width="744.09448"
       height="1052.3622" />
    <use
       id="use3235"
       xlink:href="#path3025"
       transform="matrix(1.1980416,0.48319047,-0.48319047,1.1980416,52.894144,-246.83856)"
       x="0"
       y="0"
       width="744.09448"
       height="1052.3622" />
    <use
       id="use3237"
       xlink:href="#path3025"
       transform="matrix(1.3141507,-0.70044398,0.70044398,1.3141507,-404.76555,70.065473)"
       x="0"
       y="0"
       width="744.09448"
       height="1052.3622" />
    <use
       id="use3239"
       xlink:href="#path3025"
       transform="matrix(0.3422639,0.51790429,-0.51790429,0.3422639,313.03981,-19.161441)"
       x="0"
       y="0"
       width="744.09448"
       height="1052.3622" />
    <use
       id="use3241"
       xlink:href="#path3025"
       transform="matrix(0.82022582,1.1251653,-1.1251653,0.82022582,379.88668,-398.34389)"
       x="0"
       y="0"
       width="744.09448"
       height="1052.3622" />
    <use
       id="use3243"
       xlink:href="#path3025"
       transform="matrix(0.27266146,-0.62292759,0.62292759,0.27266146,-21.721055,371.24394)"
       x="0"
       y="0"
       width="744.09448"
       height="1052.3622" />
    <use
       id="use3245"
       xlink:href="#path3025"
       transform="matrix(0.60847884,-0.33993012,0.33993012,0.60847884,-21.337132,119.84514)"
       x="0"
       y="0"
       width="744.09448"
       height="1052.3622" />
    <use
       id="use3247"
       xlink:href="#path3025"
       transform="matrix(1.0044733,0.62784209,-0.62784209,1.0044733,155.39328,-267.72286)"
       x="0"
       y="0"
       width="744.09448"
       height="1052.3622" />
    <use
       id="use3249"
       xlink:href="#path3025"
       transform="matrix(0.75295523,0.99475047,-0.99475047,0.75295523,366.77899,-355.0144)"
       x="0"
       y="0"
       width="744.09448"
       height="1052.3622" />
    <use
       id="use3251"
       xlink:href="#path3025"
       transform="matrix(0.55282472,-0.90952572,0.90952572,0.55282472,-215.00979,356.796)"
       x="0"
       y="0"
       width="744.09448"
       height="1052.3622" />
    <use
       id="use3253"
       xlink:href="#path3025"
       transform="matrix(0.32189152,-0.74661463,0.74661463,0.32189152,-98.074921,377.04719)"
       x="0"
       y="0"
       width="744.09448"
       height="1052.3622" />
    <use
       id="use3255"
       xlink:href="#path3025"
       transform="matrix(0.72945059,0.84539817,-0.84539817,0.72945059,315.2532,-282.42201)"
       x="0"
       y="0"
       width="744.09448"
       height="1052.3622" />
    <use
       id="use3257"
       xlink:href="#path3025"
       transform="matrix(0.21160356,0.50499022,-0.50499022,0.21160356,351.31915,8.5520852)"
       x="0"
       y="0"
       width="744.09448"
       height="1052.3622" />
    <use
       id="use3259"
       xlink:href="#path3025"
       transform="matrix(1.1013595,0.04907069,-0.04907069,1.1013595,-110.07264,-121.79371)"
       x="0"
       y="0"
       width="744.09448"
       height="1052.3622" />
    <use
       id="use3261"
       xlink:href="#path3025"
       transform="matrix(1.19257,-0.44619236,0.44619236,1.19257,-281.99801,13.089996)"
       x="0"
       y="0"
       width="744.09448"
       height="1052.3622" />
    <use
       id="use3263"
       xlink:href="#path3025"
       transform="matrix(0.80394845,-0.90042492,0.90042492,0.80394845,-251.41671,264.78483)"
       x="0"
       y="0"
       width="744.09448"
       height="1052.3622" />
    <use
       id="use3265"
       xlink:href="#path3025"
       transform="matrix(0.9257467,0.1868129,-0.1868129,0.9257467,108.45737,-144.39366)"
       x="0"
       y="0"
       width="744.09448"
       height="1052.3622" />
    <use
       id="use3267"
       xlink:href="#path3025"
       transform="matrix(0.26430353,0.45015947,-0.45015947,0.26430353,379.94995,-6.4032863)"
       x="0"
       y="0"
       width="744.09448"
       height="1052.3622" />
    <use
       id="use3269"
       xlink:href="#path3025"
       transform="matrix(0.99593231,0.40007279,-0.40007279,0.99593231,107.67197,-191.50198)"
       x="0"
       y="0"
       width="744.09448"
       height="1052.3622" />
    <use
       id="use3271"
       xlink:href="#path3025"
       transform="matrix(0.88131164,0.64155818,-0.64155818,0.88131164,249.86053,-265.15002)"
       x="0"
       y="0"
       width="744.09448"
       height="1052.3622" />
    <use
       id="use3273"
       xlink:href="#path3025"
       transform="matrix(0.38149165,-0.43900743,0.43900743,0.38149165,54.958809,230.49728)"
       x="0"
       y="0"
       width="744.09448"
       height="1052.3622" />
    <use
       id="use3275"
       xlink:href="#path3025"
       transform="matrix(0.31266773,-0.44939622,0.44939622,0.31266773,66.627227,288.34655)"
       x="0"
       y="0"
       width="744.09448"
       height="1052.3622" />
    <use
       id="use3277"
       xlink:href="#path3025"
       transform="matrix(0.39370776,-0.63097171,0.63097171,0.39370776,-7.1689116,340.78158)"
       x="0"
       y="0"
       width="744.09448"
       height="1052.3622" />
    <use
       id="use3279"
       xlink:href="#path3025"
       transform="matrix(0.37408553,-0.71715743,0.71715743,0.37408553,6.7961723,400.27429)"
       x="0"
       y="0"
       width="744.09448"
       height="1052.3622" />
    <use
       id="use3281"
       xlink:href="#path3025"
       transform="matrix(1.2318507,-0.38749364,0.38749364,1.2318507,-208.11546,1.3906027)"
       x="0"
       y="0"
       width="744.09448"
       height="1052.3622" />
    <use
       id="use3283"
       xlink:href="#path3025"
       transform="matrix(0.96919922,0.63897022,-0.63897022,0.96919922,202.44242,-186.61021)"
       x="0"
       y="0"
       width="744.09448"
       height="1052.3622" />
    <use
       id="use3285"
       xlink:href="#path3025"
       transform="matrix(0.63334247,0.19958072,-0.19958072,0.63334247,208.1379,55.608272)"
       x="0"
       y="0"
       width="744.09448"
       height="1052.3622" />
    <use
       id="use3287"
       xlink:href="#path3025"
       transform="matrix(0.55374174,0.77964386,-0.77964386,0.55374174,399.04246,-117.68332)"
       x="0"
       y="0"
       width="744.09448"
       height="1052.3622" />
    <use
       id="use3289"
       xlink:href="#path3025"
       transform="matrix(0.49374056,-0.05260819,0.05260819,0.49374056,162.52586,214.47911)"
       x="0"
       y="0"
       width="744.09448"
       height="1052.3622" />
    <use
       id="use3291"
       xlink:href="#path3025"
       transform="matrix(0.79748707,0.16645478,-0.16645478,0.79748707,112.13429,52.399508)"
       x="0"
       y="0"
       width="744.09448"
       height="1052.3622" />
    <use
       id="use3293"
       xlink:href="#path3025"
       transform="matrix(0.85746402,-0.54594893,0.54594893,0.85746402,-130.6341,270.9563)"
       x="0"
       y="0"
       width="744.09448"
       height="1052.3622" />
    <use
       id="use3295"
       xlink:href="#path3025"
       transform="matrix(0.70750647,-0.74282216,0.74282216,0.70750647,-112.38156,377.19695)"
       x="0"
       y="0"
       width="744.09448"
       height="1052.3622" />
    <use
       id="use3297"
       xlink:href="#path3025"
       transform="matrix(0.27347012,-0.88082647,0.88082647,0.27347012,-14.454038,549.85719)"
       x="0"
       y="0"
       width="744.09448"
       height="1052.3622" />
    <use
       id="use3299"
       xlink:href="#path3025"
       transform="matrix(0.57341204,0.05385653,-0.05385653,0.57341204,200.44455,158.99449)"
       x="0"
       y="0"
       width="744.09448"
       height="1052.3622" />
    <use
       id="use3301"
       xlink:href="#path3025"
       transform="matrix(0.58358518,0.20578963,-0.20578963,0.58358518,265.92419,106.07595)"
       x="0"
       y="0"
       width="744.09448"
       height="1052.3622" />
    <use
       id="use3303"
       xlink:href="#path3025"
       transform="matrix(1.0787476,0.87263888,-0.87263888,1.0787476,315.31106,-282.82043)"
       x="0"
       y="0"
       width="744.09448"
       height="1052.3622" />
    <use
       id="use3305"
       xlink:href="#path3025"
       transform="matrix(0.67145913,0.02337651,-0.02337651,0.67145913,162.73176,149.19796)"
       x="0"
       y="0"
       width="744.09448"
       height="1052.3622" />
    <use
       id="use3307"
       xlink:href="#path3025"
       transform="matrix(1.1751025,-0.5200304,0.5200304,1.1751025,-166.59613,129.26386)"
       x="0"
       y="0"
       width="744.09448"
       height="1052.3622" />
    <use
       id="use3309"
       xlink:href="#path3025"
       transform="matrix(0.81331007,0.42842222,-0.42842222,0.81331007,217.93768,-45.359507)"
       x="0"
       y="0"
       width="744.09448"
       height="1052.3622" />
    <use
       id="use3311"
       xlink:href="#path3025"
       transform="matrix(0.46803795,-0.19162013,0.19162013,0.46803795,115.94863,293.83282)"
       x="0"
       y="0"
       width="744.09448"
       height="1052.3622" />
    <use
       id="use3313"
       xlink:href="#path3025"
       transform="matrix(0.49963031,0.4589322,-0.4589322,0.49963031,314.73486,28.82112)"
       x="0"
       y="0"
       width="744.09448"
       height="1052.3622" />
    <use
       id="use3315"
       xlink:href="#path3025"
       transform="matrix(0.94817558,0.5145236,-0.5145236,0.94817558,171.54215,-109.80684)"
       x="0"
       y="0"
       width="744.09448"
       height="1052.3622" />
    <use
       id="use3317"
       xlink:href="#path3025"
       transform="matrix(0.57746875,0.44540742,-0.44540742,0.57746875,248.28262,-12.842908)"
       x="0"
       y="0"
       width="744.09448"
       height="1052.3622" />
    <use
       id="use3319"
       xlink:href="#path3025"
       transform="matrix(1.2200282,0.84304044,-0.84304044,1.2200282,179.98794,-388.30667)"
       x="0"
       y="0"
       width="744.09448"
       height="1052.3622" />
    <use
       id="use3321"
       xlink:href="#path3025"
       transform="matrix(0.82133904,-0.52157777,0.52157777,0.82133904,-119.98373,212.00997)"
       x="0"
       y="0"
       width="744.09448"
       height="1052.3622" />
    <use
       id="use3323"
       xlink:href="#path3025"
       transform="matrix(0.26374201,0.75588031,-0.75588031,0.26374201,424.32054,-22.427216)"
       x="0"
       y="0"
       width="744.09448"
       height="1052.3622" />
    <use
       id="use3325"
       xlink:href="#path3025"
       transform="matrix(0.6778099,-0.56303384,0.56303384,0.6778099,-140.96546,270.74119)"
       x="0"
       y="0"
       width="744.09448"
       height="1052.3622" />
    <use
       id="use3327"
       xlink:href="#path3025"
       transform="matrix(0.99336842,0.60884834,-0.60884834,0.99336842,123.97395,-315.66257)"
       x="0"
       y="0"
       width="744.09448"
       height="1052.3622" />
    <use
       id="use3329"
       xlink:href="#path3025"
       transform="matrix(0.73441351,0.48420326,-0.48420326,0.73441351,165.76148,-183.90213)"
       x="0"
       y="0"
       width="744.09448"
       height="1052.3622" />
    <use
       id="use3331"
       xlink:href="#path3025"
       transform="matrix(0.39902629,-1.4465874,1.4465874,0.39902629,-314.40309,584.63802)"
       x="0"
       y="0"
       width="744.09448"
       height="1052.3622" />
    <use
       id="use3333"
       xlink:href="#path3025"
       transform="matrix(0.32125157,-0.92565366,0.92565366,0.32125157,-133.84658,429.04134)"
       x="0"
       y="0"
       width="744.09448"
       height="1052.3622" />
    <use
       id="use3335"
       xlink:href="#path3025"
       transform="matrix(0.86404016,1.0635184,-1.0635184,0.86404016,314.01513,-395.94873)"
       x="0"
       y="0"
       width="744.09448"
       height="1052.3622" />
    <use
       id="use3337"
       xlink:href="#path3025"
       transform="matrix(0.96530588,0.9910559,-0.9910559,0.96530588,269.25376,-385.31861)"
       x="0"
       y="0"
       width="744.09448"
       height="1052.3622" />
    <use
       id="use3339"
       xlink:href="#path3025"
       transform="matrix(0.82328489,0.75436145,-0.75436145,0.82328489,360.37383,-306.63578)"
       x="0"
       y="0"
       width="744.09448"
       height="1052.3622" />
    <use
       id="use3341"
       xlink:href="#path3025"
       transform="matrix(0.4685506,0.40461946,-0.40461946,0.4685506,381.63381,-73.794163)"
       x="0"
       y="0"
       width="744.09448"
       height="1052.3622" />
    <use
       id="use3343"
       xlink:href="#path3025"
       transform="matrix(1.0588968,0.04745726,-0.04745726,1.0588968,75.76335,-132.94344)"
       x="0"
       y="0"
       width="744.09448"
       height="1052.3622" />
    <use
       id="use3345"
       xlink:href="#path3025"
       transform="matrix(0.27438791,-0.44540483,0.44540483,0.27438791,177.67996,306.78997)"
       x="0"
       y="0"
       width="744.09448"
       height="1052.3622" />
    <use
       id="use3347"
       xlink:href="#path3025"
       transform="matrix(1.3086746,0.12193191,-0.12193191,1.3086746,6.6629591,-222.24001)"
       x="0"
       y="0"
       width="744.09448"
       height="1052.3622" />
    <use
       id="use3349"
       xlink:href="#path3025"
       transform="matrix(1.1056965,-0.46012105,0.46012105,1.1056965,-84.426999,49.528287)"
       x="0"
       y="0"
       width="744.09448"
       height="1052.3622" />
  </g>
</svg>
