<?xml version="1.0" encoding="UTF-8" standalone="no"?>
<!-- Created with Inkscape (http://www.inkscape.org/) -->

<svg
   xmlns:dc="http://purl.org/dc/elements/1.1/"
   xmlns:cc="http://creativecommons.org/ns#"
   xmlns:rdf="http://www.w3.org/1999/02/22-rdf-syntax-ns#"
   xmlns:svg="http://www.w3.org/2000/svg"
   xmlns="http://www.w3.org/2000/svg"
   xmlns:xlink="http://www.w3.org/1999/xlink"
   xmlns:sodipodi="http://sodipodi.sourceforge.net/DTD/sodipodi-0.dtd"
   xmlns:inkscape="http://www.inkscape.org/namespaces/inkscape"
   width="744.09448819"
   height="1052.3622047"
   id="svg3370"
   version="1.1"
   inkscape:version="0.48.4 r9939"
   sodipodi:docname="New document 3">
  <defs
     id="defs3372" />
  <sodipodi:namedview
     id="base"
     pagecolor="#ffffff"
     bordercolor="#666666"
     borderopacity="1.0"
     inkscape:pageopacity="0.0"
     inkscape:pageshadow="2"
     inkscape:zoom="2.681875"
     inkscape:cx="351.42857"
     inkscape:cy="622.85714"
     inkscape:document-units="px"
     inkscape:current-layer="layer1"
     showgrid="false"
     inkscape:window-width="1301"
     inkscape:window-height="744"
     inkscape:window-x="65"
     inkscape:window-y="24"
     inkscape:window-maximized="1" />
  <metadata
     id="metadata3375">
    <rdf:RDF>
      <cc:Work
         rdf:about="">
        <dc:format>image/svg+xml</dc:format>
        <dc:type
           rdf:resource="http://purl.org/dc/dcmitype/StillImage" />
        <dc:title></dc:title>
      </cc:Work>
    </rdf:RDF>
  </metadata>
  <g
     inkscape:label="Layer 1"
     inkscape:groupmode="layer"
     id="layer1">
    <rect
       style="fill:#1a1a1a"
       id="rect3378"
       width="188.57143"
       height="188.57143"
       x="257.14285"
       y="329.50504" />
    <path
       sodipodi:type="arc"
       style="fill:#808080"
       id="path3494"
       sodipodi:cx="292.70566"
       sodipodi:cy="356.95319"
       sodipodi:rx="1.1186204"
       sodipodi:ry="1.1186204"
       d="m 293.82428,356.95319 a 1.1186204,1.1186204 0 1 1 -2.23724,0 1.1186204,1.1186204 0 1 1 2.23724,0 z" />
    <use
       id="use3496"
       xlink:href="#path3494"
       transform="matrix(0.86236084,0.02016282,-0.02016282,0.86236084,82.946225,52.515729)"
       x="0"
       y="0"
       width="744.09448"
       height="1052.3622" />
    <use
       id="use3498"
       xlink:href="#path3494"
       transform="matrix(0.94386853,0.47480489,-0.47480489,0.94386853,240.58769,-128.69792)"
       x="0"
       y="0"
       width="744.09448"
       height="1052.3622" />
    <use
       id="use3500"
       xlink:href="#path3494"
       transform="matrix(0.56453455,-0.89138851,0.89138851,0.56453455,-101.7743,416.18134)"
       x="0"
       y="0"
       width="744.09448"
       height="1052.3622" />
    <use
       id="use3502"
       xlink:href="#path3494"
       transform="matrix(0.71100118,0.92056512,-0.92056512,0.71100118,499.10986,-178.65669)"
       x="0"
       y="0"
       width="744.09448"
       height="1052.3622" />
    <use
       id="use3504"
       xlink:href="#path3494"
       transform="matrix(0.74740198,0.91373066,-0.91373066,0.74740198,467.06385,-154.38435)"
       x="0"
       y="0"
       width="744.09448"
       height="1052.3622" />
    <use
       id="use3506"
       xlink:href="#path3494"
       transform="matrix(0.62682862,0.73242669,-0.73242669,0.62682862,463.54759,-60.579506)"
       x="0"
       y="0"
       width="744.09448"
       height="1052.3622" />
    <use
       id="use3508"
       xlink:href="#path3494"
       transform="matrix(0.75449382,0.64327645,-0.64327645,0.75449382,396.50729,-61.241149)"
       x="0"
       y="0"
       width="744.09448"
       height="1052.3622" />
    <use
       id="use3510"
       xlink:href="#path3494"
       transform="matrix(0.71675903,0.37043677,-0.37043677,0.71675903,337.31597,82.384864)"
       x="0"
       y="0"
       width="744.09448"
       height="1052.3622" />
    <use
       id="use3512"
       xlink:href="#path3494"
       transform="matrix(0.14948543,-0.57824754,0.57824754,0.14948543,152.08845,568.81562)"
       x="0"
       y="0"
       width="744.09448"
       height="1052.3622" />
    <use
       id="use3514"
       xlink:href="#path3494"
       transform="matrix(1.1936616,-0.28943907,0.28943907,1.1936616,-100.15689,113.13323)"
       x="0"
       y="0"
       width="744.09448"
       height="1052.3622" />
    <use
       id="use3516"
       xlink:href="#path3494"
       transform="matrix(1.0028031,-0.47736964,0.47736964,1.0028031,-100.06666,262.10639)"
       x="0"
       y="0"
       width="744.09448"
       height="1052.3622" />
    <use
       id="use3518"
       xlink:href="#path3494"
       transform="matrix(0.69153878,1.0662645,-1.0662645,0.69153878,460.42287,-80.115203)"
       x="0"
       y="0"
       width="744.09448"
       height="1052.3622" />
    <use
       id="use3520"
       xlink:href="#path3494"
       transform="matrix(0.55083815,0.86799919,-0.86799919,0.55083815,436.44219,11.572448)"
       x="0"
       y="0"
       width="744.09448"
       height="1052.3622" />
    <use
       id="use3522"
       xlink:href="#path3494"
       transform="matrix(1.3783196,0.04988958,-0.04988958,1.3783196,-70.323494,-36.91197)"
       x="0"
       y="0"
       width="744.09448"
       height="1052.3622" />
    <use
       id="use3524"
       xlink:href="#path3494"
       transform="matrix(1.017924,0.39579704,-0.39579704,1.017924,134.85529,12.215728)"
       x="0"
       y="0"
       width="744.09448"
       height="1052.3622" />
    <use
       id="use3526"
       xlink:href="#path3494"
       transform="matrix(1.0485815,-0.68081597,0.68081597,1.0485815,-250.84324,306.98236)"
       x="0"
       y="0"
       width="744.09448"
       height="1052.3622" />
    <use
       id="use3528"
       xlink:href="#path3494"
       transform="matrix(0.91181812,0.78084402,-0.78084402,0.91181812,320.4763,-55.928213)"
       x="0"
       y="0"
       width="744.09448"
       height="1052.3622" />
    <use
       id="use3530"
       xlink:href="#path3494"
       transform="matrix(0.83799167,0.37105798,-0.37105798,0.83799167,195.73021,75.504879)"
       x="0"
       y="0"
       width="744.09448"
       height="1052.3622" />
    <use
       id="use3532"
       xlink:href="#path3494"
       transform="matrix(0.88770777,-0.14907101,0.14907101,0.88770777,-0.43926766,215.89999)"
       x="0"
       y="0"
       width="744.09448"
       height="1052.3622" />
    <use
       id="use3534"
       xlink:href="#path3494"
       transform="matrix(0.30319209,-0.64786269,0.64786269,0.30319209,-43.217528,548.33335)"
       x="0"
       y="0"
       width="744.09448"
       height="1052.3622" />
    <use
       id="use3536"
       xlink:href="#path3494"
       transform="matrix(1.0796734,-0.42244179,0.42244179,1.0796734,-182.87376,187.91675)"
       x="0"
       y="0"
       width="744.09448"
       height="1052.3622" />
    <use
       id="use3538"
       xlink:href="#path3494"
       transform="matrix(0.9978563,0.48479375,-0.48479375,0.9978563,172.70399,-43.52145)"
       x="0"
       y="0"
       width="744.09448"
       height="1052.3622" />
    <use
       id="use3540"
       xlink:href="#path3494"
       transform="matrix(1.3766466,-0.47421171,0.47421171,1.3766466,-284.26354,78.694245)"
       x="0"
       y="0"
       width="744.09448"
       height="1052.3622" />
    <use
       id="use3542"
       xlink:href="#path3494"
       transform="matrix(0.99794762,-0.25465213,0.25465213,0.99794762,-86.121213,151.91101)"
       x="0"
       y="0"
       width="744.09448"
       height="1052.3622" />
    <use
       id="use3544"
       xlink:href="#path3494"
       transform="matrix(0.55788064,-0.25776645,0.25776645,0.55788064,60.069261,261.55592)"
       x="0"
       y="0"
       width="744.09448"
       height="1052.3622" />
    <use
       id="use3546"
       xlink:href="#path3494"
       transform="matrix(0.37687907,-0.38123684,0.38123684,0.37687907,60.418689,401.37614)"
       x="0"
       y="0"
       width="744.09448"
       height="1052.3622" />
    <use
       id="use3548"
       xlink:href="#path3494"
       transform="matrix(0.542476,0.52118477,-0.52118477,0.542476,331.20946,96.120334)"
       x="0"
       y="0"
       width="744.09448"
       height="1052.3622" />
    <use
       id="use3550"
       xlink:href="#path3494"
       transform="matrix(1.1359164,-0.56663173,0.56663173,1.1359164,-170.77757,168.10999)"
       x="0"
       y="0"
       width="744.09448"
       height="1052.3622" />
    <use
       id="use3552"
       xlink:href="#path3494"
       transform="matrix(0.32250111,-0.64333622,0.64333622,0.32250111,50.135297,457.27778)"
       x="0"
       y="0"
       width="744.09448"
       height="1052.3622" />
    <use
       id="use3554"
       xlink:href="#path3494"
       transform="matrix(0.54849538,0.50327957,-0.50327957,0.54849538,407.12591,10.677245)"
       x="0"
       y="0"
       width="744.09448"
       height="1052.3622" />
    <use
       id="use3556"
       xlink:href="#path3494"
       transform="matrix(0.51368798,-0.81400746,0.81400746,0.51368798,-54.040843,401.89889)"
       x="0"
       y="0"
       width="744.09448"
       height="1052.3622" />
    <use
       id="use3558"
       xlink:href="#path3494"
       transform="matrix(1.4318578,0.38062172,-0.38062172,1.4318578,121.71825,-261.13865)"
       x="0"
       y="0"
       width="744.09448"
       height="1052.3622" />
    <use
       id="use3560"
       xlink:href="#path3494"
       transform="matrix(1.4937307,-0.06220186,0.06220186,1.4937307,-43.161546,-139.89912)"
       x="0"
       y="0"
       width="744.09448"
       height="1052.3622" />
    <use
       id="use3562"
       xlink:href="#path3494"
       transform="matrix(0.60618212,-1.212217,1.212217,0.60618212,-188.43939,546.84901)"
       x="0"
       y="0"
       width="744.09448"
       height="1052.3622" />
    <use
       id="use3564"
       xlink:href="#path3494"
       transform="matrix(0.31999934,1.1978471,-1.1978471,0.31999934,753.32833,-58.122735)"
       x="0"
       y="0"
       width="744.09448"
       height="1052.3622" />
    <use
       id="use3566"
       xlink:href="#path3494"
       transform="matrix(0.60447796,0.11086544,-0.11086544,0.60447796,264.42927,176.09656)"
       x="0"
       y="0"
       width="744.09448"
       height="1052.3622" />
    <use
       id="use3568"
       xlink:href="#path3494"
       transform="matrix(0.23695533,0.4432872,-0.4432872,0.23695533,500.06539,253.4863)"
       x="0"
       y="0"
       width="744.09448"
       height="1052.3622" />
    <use
       id="use3570"
       xlink:href="#path3494"
       transform="matrix(1.0219395,-0.73143974,0.73143974,1.0219395,-161.78258,320.98448)"
       x="0"
       y="0"
       width="744.09448"
       height="1052.3622" />
    <use
       id="use3572"
       xlink:href="#path3494"
       transform="matrix(0.29780661,0.73019943,-0.73019943,0.29780661,604.16241,158.67179)"
       x="0"
       y="0"
       width="744.09448"
       height="1052.3622" />
    <use
       id="use3574"
       xlink:href="#path3494"
       transform="matrix(0.55466329,0.21561808,-0.21561808,0.55466329,335.84754,249.51023)"
       x="0"
       y="0"
       width="744.09448"
       height="1052.3622" />
    <use
       id="use3576"
       xlink:href="#path3494"
       transform="matrix(1.4003351,-0.30461616,0.30461616,1.4003351,-114.86698,84.817012)"
       x="0"
       y="0"
       width="744.09448"
       height="1052.3622" />
    <use
       id="use3578"
       xlink:href="#path3494"
       transform="matrix(1.1476548,0.35791671,-0.35791671,1.1476548,205.11477,-4.1341017)"
       x="0"
       y="0"
       width="744.09448"
       height="1052.3622" />
    <use
       id="use3580"
       xlink:href="#path3494"
       transform="matrix(0.67381547,0.0680586,-0.0680586,0.67381547,221.54062,231.70471)"
       x="0"
       y="0"
       width="744.09448"
       height="1052.3622" />
    <use
       id="use3582"
       xlink:href="#path3494"
       transform="matrix(0.64784389,0.54025234,-0.54025234,0.64784389,415.67216,107.40027)"
       x="0"
       y="0"
       width="744.09448"
       height="1052.3622" />
    <use
       id="use3584"
       xlink:href="#path3494"
       transform="matrix(0.19089386,0.57713778,-0.57713778,0.19089386,554.96317,256.00846)"
       x="0"
       y="0"
       width="744.09448"
       height="1052.3622" />
    <use
       id="use3586"
       xlink:href="#path3494"
       transform="matrix(0.1667185,0.52824597,-0.52824597,0.1667185,540.99992,290.07894)"
       x="0"
       y="0"
       width="744.09448"
       height="1052.3622" />
    <use
       id="use3588"
       xlink:href="#path3494"
       transform="matrix(0.72746113,1.2140378,-1.2140378,0.72746113,639.04431,-97.003022)"
       x="0"
       y="0"
       width="744.09448"
       height="1052.3622" />
    <use
       id="use3590"
       xlink:href="#path3494"
       transform="matrix(1.46051,0.35924493,-0.35924493,1.46051,130.5678,-130.53732)"
       x="0"
       y="0"
       width="744.09448"
       height="1052.3622" />
    <use
       id="use3592"
       xlink:href="#path3494"
       transform="matrix(0.6632501,-0.32409665,0.32409665,0.6632501,103.19536,370.03613)"
       x="0"
       y="0"
       width="744.09448"
       height="1052.3622" />
    <use
       id="use3594"
       xlink:href="#path3494"
       transform="matrix(0.97199403,0.45983431,-0.45983431,0.97199403,295.11224,12.206447)"
       x="0"
       y="0"
       width="744.09448"
       height="1052.3622" />
    <use
       id="use3596"
       xlink:href="#path3494"
       transform="matrix(0.53398344,-1.210291,1.210291,0.53398344,-196.05809,657.30279)"
       x="0"
       y="0"
       width="744.09448"
       height="1052.3622" />
    <use
       id="use3598"
       xlink:href="#path3494"
       transform="matrix(1.1106302,0.22535992,-0.22535992,1.1106302,124.12732,33.330158)"
       x="0"
       y="0"
       width="744.09448"
       height="1052.3622" />
    <use
       id="use3600"
       xlink:href="#path3494"
       transform="matrix(0.27899932,1.2371959,-1.2371959,0.27899932,723.44795,40.022286)"
       x="0"
       y="0"
       width="744.09448"
       height="1052.3622" />
    <use
       id="use3602"
       xlink:href="#path3494"
       transform="matrix(1.2650076,0.60671477,-0.60671477,1.2650076,222.00954,-123.81994)"
       x="0"
       y="0"
       width="744.09448"
       height="1052.3622" />
    <use
       id="use3604"
       xlink:href="#path3494"
       transform="matrix(0.65805313,-0.86865962,0.86865962,0.65805313,-138.4425,528.87784)"
       x="0"
       y="0"
       width="744.09448"
       height="1052.3622" />
    <use
       id="use3606"
       xlink:href="#path3494"
       transform="matrix(0.58648492,0.37658038,-0.37658038,0.58648492,342.74988,175.15998)"
       x="0"
       y="0"
       width="744.09448"
       height="1052.3622" />
    <use
       id="use3608"
       xlink:href="#path3494"
       transform="matrix(0.92020027,0.85141641,-0.85141641,0.92020027,404.35981,-94.547499)"
       x="0"
       y="0"
       width="744.09448"
       height="1052.3622" />
    <use
       id="use3610"
       xlink:href="#path3494"
       transform="matrix(0.63019728,1.1982771,-1.1982771,0.63019728,596.00916,-60.259578)"
       x="0"
       y="0"
       width="744.09448"
       height="1052.3622" />
    <use
       id="use3612"
       xlink:href="#path3494"
       transform="matrix(0.20105908,0.64996893,-0.64996893,0.20105908,497.37483,219.8692)"
       x="0"
       y="0"
       width="744.09448"
       height="1052.3622" />
    <use
       id="use3614"
       xlink:href="#path3494"
       transform="matrix(0.60364655,-0.22330404,0.22330404,0.60364655,91.321794,356.25749)"
       x="0"
       y="0"
       width="744.09448"
       height="1052.3622" />
    <use
       id="use3616"
       xlink:href="#path3494"
       transform="matrix(0.81769851,0.27658509,-0.27658509,0.81769851,158.22946,119.39857)"
       x="0"
       y="0"
       width="744.09448"
       height="1052.3622" />
    <use
       id="use3618"
       xlink:href="#path3494"
       transform="matrix(0.35936481,-0.33230389,0.33230389,0.35936481,72.3732,470.71333)"
       x="0"
       y="0"
       width="744.09448"
       height="1052.3622" />
    <use
       id="use3620"
       xlink:href="#path3494"
       transform="matrix(0.83667184,0.15301491,-0.15301491,0.83667184,103.80709,158.30605)"
       x="0"
       y="0"
       width="744.09448"
       height="1052.3622" />
    <use
       id="use3622"
       xlink:href="#path3494"
       transform="matrix(0.13585322,-0.55217151,0.55217151,0.13585322,70.522526,600.5988)"
       x="0"
       y="0"
       width="744.09448"
       height="1052.3622" />
    <use
       id="use3624"
       xlink:href="#path3494"
       transform="matrix(0.48556685,0.95172885,-0.95172885,0.48556685,491.5177,23.510338)"
       x="0"
       y="0"
       width="744.09448"
       height="1052.3622" />
    <use
       id="use3626"
       xlink:href="#path3494"
       transform="matrix(1.351601,-0.03726919,0.03726919,1.351601,-106.67804,26.875152)"
       x="0"
       y="0"
       width="744.09448"
       height="1052.3622" />
    <use
       id="use3628"
       xlink:href="#path3494"
       transform="matrix(0.95774964,-0.49237431,0.49237431,0.95774964,-156.01952,304.79381)"
       x="0"
       y="0"
       width="744.09448"
       height="1052.3622" />
    <use
       id="use3630"
       xlink:href="#path3494"
       transform="matrix(1.0644635,0.15388019,-0.15388019,1.0644635,36.48642,75.160963)"
       x="0"
       y="0"
       width="744.09448"
       height="1052.3622" />
    <use
       id="use3632"
       xlink:href="#path3494"
       transform="matrix(0.58967177,-0.10805493,0.10805493,0.58967177,64.048494,319.00378)"
       x="0"
       y="0"
       width="744.09448"
       height="1052.3622" />
    <use
       id="use3634"
       xlink:href="#path3494"
       transform="matrix(0.69961844,0.95030864,-0.95030864,0.69961844,436.48006,-34.066098)"
       x="0"
       y="0"
       width="744.09448"
       height="1052.3622" />
    <use
       id="use3636"
       xlink:href="#path3494"
       transform="matrix(1.274144,0.10167576,-0.10167576,1.274144,-36.284926,-16.723487)"
       x="0"
       y="0"
       width="744.09448"
       height="1052.3622" />
    <use
       id="use3638"
       xlink:href="#path3494"
       transform="matrix(0.40679355,-0.33836114,0.33836114,0.40679355,99.60941,402.62614)"
       x="0"
       y="0"
       width="744.09448"
       height="1052.3622" />
    <use
       id="use3640"
       xlink:href="#path3494"
       transform="matrix(1.0441525,0.07875015,-0.07875015,1.0441525,52.008899,68.779236)"
       x="0"
       y="0"
       width="744.09448"
       height="1052.3622" />
    <use
       id="use3642"
       xlink:href="#path3494"
       transform="matrix(0.12778676,0.54000953,-0.54000953,0.12778676,492.55141,235.00607)"
       x="0"
       y="0"
       width="744.09448"
       height="1052.3622" />
    <use
       id="use3644"
       xlink:href="#path3494"
       transform="matrix(0.96189077,1.0743864,-1.0743864,0.96189077,451.43706,-205.60728)"
       x="0"
       y="0"
       width="744.09448"
       height="1052.3622" />
    <use
       id="use3646"
       xlink:href="#path3494"
       transform="matrix(0.54157138,-0.40064368,0.40064368,0.54157138,39.547993,396.66132)"
       x="0"
       y="0"
       width="744.09448"
       height="1052.3622" />
    <use
       id="use3648"
       xlink:href="#path3494"
       transform="matrix(0.6236179,0.51349811,-0.51349811,0.6236179,346.76133,110.94766)"
       x="0"
       y="0"
       width="744.09448"
       height="1052.3622" />
    <use
       id="use3650"
       xlink:href="#path3494"
       transform="matrix(0.68540849,-0.97788062,0.97788062,0.68540849,-198.57102,524.68542)"
       x="0"
       y="0"
       width="744.09448"
       height="1052.3622" />
    <use
       id="use3652"
       xlink:href="#path3494"
       transform="matrix(0.35068845,-1.0161852,1.0161852,0.35068845,-106.59583,660.02763)"
       x="0"
       y="0"
       width="744.09448"
       height="1052.3622" />
    <use
       id="use3654"
       xlink:href="#path3494"
       transform="matrix(0.81058968,0.16740419,-0.16740419,0.81058968,142.97213,140.90561)"
       x="0"
       y="0"
       width="744.09448"
       height="1052.3622" />
    <use
       id="use3656"
       xlink:href="#path3494"
       transform="matrix(0.46234288,0.56880901,-0.56880901,0.46234288,413.36726,154.45862)"
       x="0"
       y="0"
       width="744.09448"
       height="1052.3622" />
    <use
       id="use3658"
       xlink:href="#path3494"
       transform="matrix(1.2224396,0.0076753,-0.0076753,1.2224396,-22.965815,53.358717)"
       x="0"
       y="0"
       width="744.09448"
       height="1052.3622" />
    <use
       id="use3660"
       xlink:href="#path3494"
       transform="matrix(1.0250482,0.54947645,-0.54947645,1.0250482,221.679,-38.452414)"
       x="0"
       y="0"
       width="744.09448"
       height="1052.3622" />
    <use
       id="use3662"
       xlink:href="#path3494"
       transform="matrix(1.2246896,0.0293434,-0.0293434,1.2246896,-5.1114843,19.414843)"
       x="0"
       y="0"
       width="744.09448"
       height="1052.3622" />
    <use
       id="use3664"
       xlink:href="#path3494"
       transform="matrix(0.59257665,1.0617031,-1.0617031,0.59257665,545.13602,-29.727792)"
       x="0"
       y="0"
       width="744.09448"
       height="1052.3622" />
    <use
       id="use3666"
       xlink:href="#path3494"
       transform="matrix(0.53427799,1.0346247,-1.0346247,0.53427799,583.63677,-51.323427)"
       x="0"
       y="0"
       width="744.09448"
       height="1052.3622" />
    <use
       id="use3668"
       xlink:href="#path3494"
       transform="matrix(0.34167575,-1.3313429,1.3313429,0.34167575,-208.62835,709.81178)"
       x="0"
       y="0"
       width="744.09448"
       height="1052.3622" />
    <use
       id="use3670"
       xlink:href="#path3494"
       transform="matrix(0.53210607,0.13748461,-0.13748461,0.53210607,211.79209,184.08357)"
       x="0"
       y="0"
       width="744.09448"
       height="1052.3622" />
    <use
       id="use3672"
       xlink:href="#path3494"
       transform="matrix(1.2125108,0.69665409,-0.69665409,1.2125108,210.64882,-243.24938)"
       x="0"
       y="0"
       width="744.09448"
       height="1052.3622" />
    <use
       id="use3674"
       xlink:href="#path3494"
       transform="matrix(0.23150466,-0.46349207,0.46349207,0.23150466,95.182167,444.36508)"
       x="0"
       y="0"
       width="744.09448"
       height="1052.3622" />
    <use
       id="use3676"
       xlink:href="#path3494"
       transform="matrix(1.2631552,-0.23094463,0.23094463,1.2631552,-146.2208,21.893319)"
       x="0"
       y="0"
       width="744.09448"
       height="1052.3622" />
    <use
       id="use3678"
       xlink:href="#path3494"
       transform="matrix(0.44620967,-1.0113918,1.0113918,0.44620967,-199.06795,533.34987)"
       x="0"
       y="0"
       width="744.09448"
       height="1052.3622" />
    <use
       id="use3680"
       xlink:href="#path3494"
       transform="matrix(0.64313437,0.26756627,-0.26756627,0.64313437,183.02126,62.529171)"
       x="0"
       y="0"
       width="744.09448"
       height="1052.3622" />
    <use
       id="use3682"
       xlink:href="#path3494"
       transform="matrix(0.26251848,1.1586794,-1.1586794,0.26251848,635.10117,-21.15515)"
       x="0"
       y="0"
       width="744.09448"
       height="1052.3622" />
    <use
       id="use3684"
       xlink:href="#path3494"
       transform="matrix(1.1716945,0.68407863,-0.68407863,1.1716945,222.67541,-204.2327)"
       x="0"
       y="0"
       width="744.09448"
       height="1052.3622" />
    <use
       id="use3686"
       xlink:href="#path3494"
       transform="matrix(0.76786634,0.5611597,-0.5611597,0.76786634,301.70233,-40.98605)"
       x="0"
       y="0"
       width="744.09448"
       height="1052.3622" />
    <use
       id="use3688"
       xlink:href="#path3494"
       transform="matrix(0.56782798,0.54135893,-0.54135893,0.56782798,356.11816,61.232294)"
       x="0"
       y="0"
       width="744.09448"
       height="1052.3622" />
    <use
       id="use3690"
       xlink:href="#path3494"
       transform="matrix(0.88269909,0.70776457,-0.70776457,0.88269909,336.85226,-106.12607)"
       x="0"
       y="0"
       width="744.09448"
       height="1052.3622" />
    <use
       id="use3692"
       xlink:href="#path3494"
       transform="matrix(0.54262896,-0.56812707,0.56812707,0.54262896,-4.7878048,382.33187)"
       x="0"
       y="0"
       width="744.09448"
       height="1052.3622" />
    <use
       id="use3694"
       xlink:href="#path3494"
       transform="matrix(1.0429021,-0.13706962,0.13706962,1.0429021,-8.8144323,88.929216)"
       x="0"
       y="0"
       width="744.09448"
       height="1052.3622" />
    <use
       id="use3696"
       xlink:href="#path3494"
       transform="matrix(0.64194707,0.42984725,-0.42984725,0.64194707,314.62954,55.288109)"
       x="0"
       y="0"
       width="744.09448"
       height="1052.3622" />
    <use
       id="use3698"
       xlink:href="#path3494"
       transform="matrix(0.56022356,-0.98261305,0.98261305,0.56022356,-165.44254,509.27081)"
       x="0"
       y="0"
       width="744.09448"
       height="1052.3622" />
    <use
       id="use3700"
       xlink:href="#path3494"
       transform="matrix(0.37731126,-0.507407,0.507407,0.37731126,95.696405,409.98254)"
       x="0"
       y="0"
       width="744.09448"
       height="1052.3622" />
    <use
       id="use3702"
       xlink:href="#path3494"
       transform="matrix(0.31330116,-0.43838593,0.43838593,0.31330116,150.45918,411.78515)"
       x="0"
       y="0"
       width="744.09448"
       height="1052.3622" />
    <use
       id="use3704"
       xlink:href="#path3494"
       transform="matrix(0.97603299,-0.5556043,0.5556043,0.97603299,-131.8429,230.66918)"
       x="0"
       y="0"
       width="744.09448"
       height="1052.3622" />
    <use
       id="use3706"
       xlink:href="#path3494"
       transform="matrix(0.46644699,0.44155491,-0.44155491,0.46644699,383.34614,130.77819)"
       x="0"
       y="0"
       width="744.09448"
       height="1052.3622" />
    <use
       id="use3708"
       xlink:href="#path3494"
       transform="matrix(0.23024353,0.43883706,-0.43883706,0.23024353,453.1098,202.44506)"
       x="0"
       y="0"
       width="744.09448"
       height="1052.3622" />
    <use
       id="use3710"
       xlink:href="#path3494"
       transform="matrix(0.81394293,0.91564212,-0.91564212,0.81394293,465.31339,-138.64087)"
       x="0"
       y="0"
       width="744.09448"
       height="1052.3622" />
    <use
       id="use3712"
       xlink:href="#path3494"
       transform="matrix(0.79092552,-0.41576462,0.41576462,0.79092552,-5.3085465,257.51781)"
       x="0"
       y="0"
       width="744.09448"
       height="1052.3622" />
    <use
       id="use3714"
       xlink:href="#path3494"
       transform="matrix(0.55271068,-0.60186285,0.60186285,0.55271068,6.5631522,399.94032)"
       x="0"
       y="0"
       width="744.09448"
       height="1052.3622" />
    <use
       id="use3716"
       xlink:href="#path3494"
       transform="matrix(0.78423852,1.1032833,-1.1032833,0.78423852,572.89784,-198.5304)"
       x="0"
       y="0"
       width="744.09448"
       height="1052.3622" />
    <use
       id="use3718"
       xlink:href="#path3494"
       transform="matrix(0.77046332,-0.00961651,0.00961651,0.77046332,165.73357,142.89491)"
       x="0"
       y="0"
       width="744.09448"
       height="1052.3622" />
    <use
       id="use3720"
       xlink:href="#path3494"
       transform="matrix(0.3526582,1.1421484,-1.1421484,0.3526582,704.28887,-28.824469)"
       x="0"
       y="0"
       width="744.09448"
       height="1052.3622" />
    <use
       id="use3722"
       xlink:href="#path3494"
       transform="matrix(0.82789419,-0.35462309,0.35462309,0.82789419,33.070586,225.68429)"
       x="0"
       y="0"
       width="744.09448"
       height="1052.3622" />
    <use
       id="use3724"
       xlink:href="#path3494"
       transform="matrix(0.82469936,0.83784901,-0.83784901,0.82469936,462.99297,-134.01985)"
       x="0"
       y="0"
       width="744.09448"
       height="1052.3622" />
    <use
       id="use3726"
       xlink:href="#path3494"
       transform="matrix(0.52040025,-0.06479777,0.06479777,0.52040025,204.81254,238.14338)"
       x="0"
       y="0"
       width="744.09448"
       height="1052.3622" />
    <use
       id="use3728"
       xlink:href="#path3494"
       transform="matrix(1.3750385,0.56635911,-0.56635911,1.3750385,183.58788,-249.20657)"
       x="0"
       y="0"
       width="744.09448"
       height="1052.3622" />
    <use
       id="use3730"
       xlink:href="#path3494"
       transform="matrix(0.57126794,1.060807,-1.060807,0.57126794,579.19643,-126.53525)"
       x="0"
       y="0"
       width="744.09448"
       height="1052.3622" />
    <use
       id="use3732"
       xlink:href="#path3494"
       transform="matrix(1.2067821,0.26675057,-0.26675057,1.2067821,91.827862,-107.26712)"
       x="0"
       y="0"
       width="744.09448"
       height="1052.3622" />
    <use
       id="use3734"
       xlink:href="#path3494"
       transform="matrix(0.9899442,-0.00871468,0.00871468,0.9899442,61.7262,51.970719)"
       x="0"
       y="0"
       width="744.09448"
       height="1052.3622" />
    <use
       id="use3736"
       xlink:href="#path3494"
       transform="matrix(0.37815487,0.87117663,-0.87117663,0.37815487,543.35897,-18.893221)"
       x="0"
       y="0"
       width="744.09448"
       height="1052.3622" />
    <use
       id="use3738"
       xlink:href="#path3494"
       transform="matrix(0.23417518,0.72564945,-0.72564945,0.23417518,525.54392,84.790702)"
       x="0"
       y="0"
       width="744.09448"
       height="1052.3622" />
    <use
       id="use3740"
       xlink:href="#path3494"
       transform="matrix(0.77025372,1.1496572,-1.1496572,0.77025372,517.13375,-224.59213)"
       x="0"
       y="0"
       width="744.09448"
       height="1052.3622" />
    <use
       id="use3742"
       xlink:href="#path3494"
       transform="matrix(0.68785075,0.34505504,-0.34505504,0.68785075,257.32332,47.156552)"
       x="0"
       y="0"
       width="744.09448"
       height="1052.3622" />
    <use
       id="use3744"
       xlink:href="#path3494"
       transform="matrix(0.35696959,-0.6246605,0.6246605,0.35696959,27.079188,426.40191)"
       x="0"
       y="0"
       width="744.09448"
       height="1052.3622" />
    <use
       id="use3746"
       xlink:href="#path3494"
       transform="matrix(0.56999489,-0.05111007,0.05111007,0.56999489,171.2613,211.48328)"
       x="0"
       y="0"
       width="744.09448"
       height="1052.3622" />
    <use
       id="use3748"
       xlink:href="#path3494"
       transform="matrix(0.8078561,0.66805684,-0.66805684,0.8078561,335.49692,-72.793221)"
       x="0"
       y="0"
       width="744.09448"
       height="1052.3622" />
    <use
       id="use3750"
       xlink:href="#path3494"
       transform="matrix(0.92863934,-0.0056867,0.0056867,0.92863934,59.22157,84.310945)"
       x="0"
       y="0"
       width="744.09448"
       height="1052.3622" />
    <use
       id="use3752"
       xlink:href="#path3494"
       transform="matrix(0.58693561,-0.45528888,0.45528888,0.58693561,8.4138319,322.2122)"
       x="0"
       y="0"
       width="744.09448"
       height="1052.3622" />
    <use
       id="use3754"
       xlink:href="#path3494"
       transform="matrix(0.17324764,0.65628459,-0.65628459,0.17324764,526.78986,108.65741)"
       x="0"
       y="0"
       width="744.09448"
       height="1052.3622" />
    <use
       id="use3756"
       xlink:href="#path3494"
       transform="matrix(0.37792364,-0.57852136,0.57852136,0.37792364,46.254472,408.06699)"
       x="0"
       y="0"
       width="744.09448"
       height="1052.3622" />
    <use
       id="use3758"
       xlink:href="#path3494"
       transform="matrix(0.83902361,0.87153744,-0.87153744,0.83902361,413.07324,-193.17958)"
       x="0"
       y="0"
       width="744.09448"
       height="1052.3622" />
    <use
       id="use3760"
       xlink:href="#path3494"
       transform="matrix(0.90723898,-0.13803209,0.13803209,0.90723898,9.1336441,88.15484)"
       x="0"
       y="0"
       width="744.09448"
       height="1052.3622" />
    <use
       id="use3762"
       xlink:href="#path3494"
       transform="matrix(0.20642923,0.83012083,-0.83012083,0.20642923,535.35911,36.540876)"
       x="0"
       y="0"
       width="744.09448"
       height="1052.3622" />
    <use
       id="use3764"
       xlink:href="#path3494"
       transform="matrix(0.46865676,0.27115763,-0.27115763,0.46865676,247.83104,120.89699)"
       x="0"
       y="0"
       width="744.09448"
       height="1052.3622" />
    <use
       id="use3766"
       xlink:href="#path3494"
       transform="matrix(1.4007566,-0.26288045,0.26288045,1.4007566,-202.16701,-40.831462)"
       x="0"
       y="0"
       width="744.09448"
       height="1052.3622" />
    <use
       id="use3768"
       xlink:href="#path3494"
       transform="matrix(1.0411555,-0.21648579,0.21648579,1.0411555,-80.923132,67.756027)"
       x="0"
       y="0"
       width="744.09448"
       height="1052.3622" />
    <use
       id="use3770"
       xlink:href="#path3494"
       transform="matrix(0.96970367,0.40600238,-0.40600238,0.96970367,127.55733,-95.54395)"
       x="0"
       y="0"
       width="744.09448"
       height="1052.3622" />
    <use
       id="use3772"
       xlink:href="#path3494"
       transform="matrix(0.54709993,0.18646864,-0.18646864,0.54709993,181.16696,111.72843)"
       x="0"
       y="0"
       width="744.09448"
       height="1052.3622" />
    <use
       id="use3774"
       xlink:href="#path3494"
       transform="matrix(0.47528081,1.2985302,-1.2985302,0.47528081,591.6752,-197.02926)"
       x="0"
       y="0"
       width="744.09448"
       height="1052.3622" />
    <use
       id="use3776"
       xlink:href="#path3494"
       transform="matrix(0.89519045,1.0612889,-1.0612889,0.89519045,401.48101,-299.00895)"
       x="0"
       y="0"
       width="744.09448"
       height="1052.3622" />
    <use
       id="use3778"
       xlink:href="#path3494"
       transform="matrix(0.53120163,0.16534505,-0.16534505,0.53120163,197.91703,127.77202)"
       x="0"
       y="0"
       width="744.09448"
       height="1052.3622" />
    <use
       id="use3780"
       xlink:href="#path3494"
       transform="matrix(1.3028278,-0.50648926,0.50648926,1.3028278,-270.88261,14.890515)"
       x="0"
       y="0"
       width="744.09448"
       height="1052.3622" />
    <use
       id="use3782"
       xlink:href="#path3494"
       transform="matrix(1.1963972,0.80794089,-0.80794089,1.1963972,217.56007,-314.06499)"
       x="0"
       y="0"
       width="744.09448"
       height="1052.3622" />
    <use
       id="use3784"
       xlink:href="#path3494"
       transform="matrix(0.43256573,-0.96448101,0.96448101,0.43256573,-153.46329,493.194)"
       x="0"
       y="0"
       width="744.09448"
       height="1052.3622" />
    <use
       id="use3786"
       xlink:href="#path3494"
       transform="matrix(0.75077193,1.1966478,-1.1966478,0.75077193,518.74917,-253.37983)"
       x="0"
       y="0"
       width="744.09448"
       height="1052.3622" />
    <use
       id="use3788"
       xlink:href="#path3494"
       transform="matrix(0.88709226,-0.8808688,0.8808688,0.88709226,-302.47173,274.47849)"
       x="0"
       y="0"
       width="744.09448"
       height="1052.3622" />
    <use
       id="use3790"
       xlink:href="#path3494"
       transform="matrix(1.2088336,-0.10054668,0.10054668,1.2088336,-84.68781,-48.011868)"
       x="0"
       y="0"
       width="744.09448"
       height="1052.3622" />
    <use
       id="use3792"
       xlink:href="#path3494"
       transform="matrix(0.59035433,0.30203393,-0.30203393,0.59035433,211.99401,36.560577)"
       x="0"
       y="0"
       width="744.09448"
       height="1052.3622" />
    <use
       id="use3794"
       xlink:href="#path3494"
       transform="matrix(0.66005775,-0.03723939,0.03723939,0.66005775,108.61808,123.04021)"
       x="0"
       y="0"
       width="744.09448"
       height="1052.3622" />
    <use
       id="use3796"
       xlink:href="#path3494"
       transform="matrix(0.55149739,0.34170329,-0.34170329,0.55149739,280.75049,46.977911)"
       x="0"
       y="0"
       width="744.09448"
       height="1052.3622" />
    <use
       id="use3798"
       xlink:href="#path3494"
       transform="matrix(1.0719893,0.00803289,-0.00803289,1.0719893,11.500025,-35.501573)"
       x="0"
       y="0"
       width="744.09448"
       height="1052.3622" />
    <use
       id="use3800"
       xlink:href="#path3494"
       transform="matrix(0.19590346,0.77961815,-0.77961815,0.19590346,552.81392,31.339161)"
       x="0"
       y="0"
       width="744.09448"
       height="1052.3622" />
    <use
       id="use3802"
       xlink:href="#path3494"
       transform="matrix(0.79435734,-0.55466655,0.55466655,0.79435734,-102.97709,222.8102)"
       x="0"
       y="0"
       width="744.09448"
       height="1052.3622" />
    <use
       id="use3804"
       xlink:href="#path3494"
       transform="matrix(0.84425109,-0.6826009,0.6826009,0.84425109,-146.25754,260.92731)"
       x="0"
       y="0"
       width="744.09448"
       height="1052.3622" />
    <use
       id="use3806"
       xlink:href="#path3494"
       transform="matrix(0.29718836,-0.45463263,0.45463263,0.29718836,75.519278,391.85163)"
       x="0"
       y="0"
       width="744.09448"
       height="1052.3622" />
    <use
       id="use3808"
       xlink:href="#path3494"
       transform="matrix(0.64762968,-0.39252417,0.39252417,0.64762968,-4.8830463,225.9573)"
       x="0"
       y="0"
       width="744.09448"
       height="1052.3622" />
    <use
       id="use3810"
       xlink:href="#path3494"
       transform="matrix(0.63293543,-0.35037202,0.35037202,0.63293543,-15.537006,230.87646)"
       x="0"
       y="0"
       width="744.09448"
       height="1052.3622" />
    <use
       id="use3812"
       xlink:href="#path3494"
       transform="matrix(0.7066521,0.26267721,-0.26267721,0.7066521,214.72805,-0.28966724)"
       x="0"
       y="0"
       width="744.09448"
       height="1052.3622" />
    <use
       id="use3814"
       xlink:href="#path3494"
       transform="matrix(1.2191728,0.27070987,-0.27070987,1.2191728,89.280718,-167.17261)"
       x="0"
       y="0"
       width="744.09448"
       height="1052.3622" />
    <use
       id="use3816"
       xlink:href="#path3494"
       transform="matrix(1.3076572,0.14586174,-0.14586174,1.3076572,36.516822,-151.03834)"
       x="0"
       y="0"
       width="744.09448"
       height="1052.3622" />
    <use
       id="use3818"
       xlink:href="#path3494"
       transform="matrix(0.80452449,-0.07247299,0.07247299,0.80452449,143.93154,96.605512)"
       x="0"
       y="0"
       width="744.09448"
       height="1052.3622" />
    <use
       id="use3820"
       xlink:href="#path3494"
       transform="matrix(0.40604301,0.39462217,-0.39462217,0.40604301,460.80688,107.26348)"
       x="0"
       y="0"
       width="744.09448"
       height="1052.3622" />
    <use
       id="use3822"
       xlink:href="#path3494"
       transform="matrix(0.6917094,-0.65646394,0.65646394,0.6917094,-11.061844,297.57773)"
       x="0"
       y="0"
       width="744.09448"
       height="1052.3622" />
    <use
       id="use3824"
       xlink:href="#path3494"
       transform="matrix(0.30896734,0.76668198,-0.76668198,0.30896734,629.71787,63.756195)"
       x="0"
       y="0"
       width="744.09448"
       height="1052.3622" />
    <use
       id="use3826"
       xlink:href="#path3494"
       transform="matrix(0.22855539,0.85978573,-0.85978573,0.22855539,671.61067,51.808635)"
       x="0"
       y="0"
       width="744.09448"
       height="1052.3622" />
    <use
       id="use3828"
       xlink:href="#path3494"
       transform="matrix(0.26265681,-0.55707793,0.55707793,0.26265681,152.89947,448.22826)"
       x="0"
       y="0"
       width="744.09448"
       height="1052.3622" />
    <use
       id="use3830"
       xlink:href="#path3494"
       transform="matrix(0.76782499,0.31701382,-0.31701382,0.76782499,323.22544,5.6380148)"
       x="0"
       y="0"
       width="744.09448"
       height="1052.3622" />
    <use
       id="use3832"
       xlink:href="#path3494"
       transform="matrix(1.3885287,0.00146195,-0.00146195,1.3885287,14.41978,-166.27882)"
       x="0"
       y="0"
       width="744.09448"
       height="1052.3622" />
    <use
       id="use3834"
       xlink:href="#path3494"
       transform="matrix(0.93779319,-0.67395514,0.67395514,0.93779319,-90.644565,211.4567)"
       x="0"
       y="0"
       width="744.09448"
       height="1052.3622" />
    <use
       id="use3836"
       xlink:href="#path3494"
       transform="matrix(0.73586742,-0.05867765,0.05867765,0.73586742,187.10802,108.04981)"
       x="0"
       y="0"
       width="744.09448"
       height="1052.3622" />
    <use
       id="use3838"
       xlink:href="#path3494"
       transform="matrix(0.98569566,0.18193394,-0.18193394,0.98569566,168.50094,-66.499952)"
       x="0"
       y="0"
       width="744.09448"
       height="1052.3622" />
    <use
       id="use3840"
       xlink:href="#path3494"
       transform="matrix(0.21292409,-0.44556653,0.44556653,0.21292409,186.09021,390.35638)"
       x="0"
       y="0"
       width="744.09448"
       height="1052.3622" />
    <use
       id="use3842"
       xlink:href="#path3494"
       transform="matrix(1.2528612,-0.78552296,0.78552296,1.2528612,-241.7842,148.0202)"
       x="0"
       y="0"
       width="744.09448"
       height="1052.3622" />
    <use
       id="use3844"
       xlink:href="#path3494"
       transform="matrix(0.33891972,0.49056397,-0.49056397,0.33891972,494.85625,88.34532)"
       x="0"
       y="0"
       width="744.09448"
       height="1052.3622" />
    <use
       id="use3846"
       xlink:href="#path3494"
       transform="matrix(1.0564591,-0.88244154,0.88244154,1.0564591,-194.00099,231.54695)"
       x="0"
       y="0"
       width="744.09448"
       height="1052.3622" />
    <use
       id="use3848"
       xlink:href="#path3494"
       transform="matrix(0.4688253,0.26608948,-0.26608948,0.4688253,348.02991,136.67698)"
       x="0"
       y="0"
       width="744.09448"
       height="1052.3622" />
    <use
       id="use3850"
       xlink:href="#path3494"
       transform="matrix(0.66292372,0.44392041,-0.44392041,0.66292372,353.84772,25.64002)"
       x="0"
       y="0"
       width="744.09448"
       height="1052.3622" />
    <use
       id="use3852"
       xlink:href="#path3494"
       transform="matrix(0.99748547,-0.11680681,0.11680681,0.99748547,77.854936,78.994606)"
       x="0"
       y="0"
       width="744.09448"
       height="1052.3622" />
    <use
       id="use3854"
       xlink:href="#path3494"
       transform="matrix(1.394834,0.22319214,-0.22319214,1.394834,105.56947,-146.84755)"
       x="0"
       y="0"
       width="744.09448"
       height="1052.3622" />
    <use
       id="use3856"
       xlink:href="#path3494"
       transform="matrix(0.94918758,0.15579091,-0.15579091,0.94918758,187.85934,48.307617)"
       x="0"
       y="0"
       width="744.09448"
       height="1052.3622" />
    <use
       id="use3858"
       xlink:href="#path3494"
       transform="matrix(0.95647788,-0.95682802,0.95682802,0.95647788,-197.78714,384.28459)"
       x="0"
       y="0"
       width="744.09448"
       height="1052.3622" />
    <use
       id="use3860"
       xlink:href="#path3494"
       transform="matrix(0.45702524,-1.3225962,1.3225962,0.45702524,-202.90077,681.86599)"
       x="0"
       y="0"
       width="744.09448"
       height="1052.3622" />
    <use
       id="use3862"
       xlink:href="#path3494"
       transform="matrix(0.68803614,-0.83859976,0.83859976,0.68803614,-71.456491,460.03559)"
       x="0"
       y="0"
       width="744.09448"
       height="1052.3622" />
    <use
       id="use3864"
       xlink:href="#path3494"
       transform="matrix(0.93916549,-0.84316349,0.84316349,0.93916549,-140.98178,370.13407)"
       x="0"
       y="0"
       width="744.09448"
       height="1052.3622" />
    <use
       id="use3866"
       xlink:href="#path3494"
       transform="matrix(0.9875735,-0.44467828,0.44467828,0.9875735,-29.734904,250.62936)"
       x="0"
       y="0"
       width="744.09448"
       height="1052.3622" />
    <use
       id="use3868"
       xlink:href="#path3494"
       transform="matrix(0.83904721,-0.85409595,0.85409595,0.83904721,-139.62364,423.28207)"
       x="0"
       y="0"
       width="744.09448"
       height="1052.3622" />
    <use
       id="use3870"
       xlink:href="#path3494"
       transform="matrix(0.31884046,-1.4048829,1.4048829,0.31884046,-195.72989,767.31426)"
       x="0"
       y="0"
       width="744.09448"
       height="1052.3622" />
    <use
       id="use3872"
       xlink:href="#path3494"
       transform="matrix(0.64719405,-0.48072353,0.48072353,0.64719405,39.430782,353.71391)"
       x="0"
       y="0"
       width="744.09448"
       height="1052.3622" />
    <use
       id="use3874"
       xlink:href="#path3494"
       transform="matrix(0.336946,-1.0205048,1.0205048,0.336946,-88.274935,631.28476)"
       x="0"
       y="0"
       width="744.09448"
       height="1052.3622" />
    <use
       id="use3876"
       xlink:href="#path3494"
       transform="matrix(0.29507664,-0.41954428,0.41954428,0.29507664,164.56945,482.97221)"
       x="0"
       y="0"
       width="744.09448"
       height="1052.3622" />
    <use
       id="use3878"
       xlink:href="#path3494"
       transform="matrix(0.57396498,0.0287665,-0.0287665,0.57396498,219.26829,248.23676)"
       x="0"
       y="0"
       width="744.09448"
       height="1052.3622" />
    <use
       id="use3880"
       xlink:href="#path3494"
       transform="matrix(0.61504182,-0.49549772,0.49549772,0.61504182,39.390413,385.95209)"
       x="0"
       y="0"
       width="744.09448"
       height="1052.3622" />
    <use
       id="use3882"
       xlink:href="#path3494"
       transform="matrix(0.65975306,-0.15339436,0.15339436,0.65975306,130.60569,253.75003)"
       x="0"
       y="0"
       width="744.09448"
       height="1052.3622" />
    <use
       id="use3884"
       xlink:href="#path3494"
       transform="matrix(0.49021741,0.75537815,-0.75537815,0.49021741,526.40111,66.076517)"
       x="0"
       y="0"
       width="744.09448"
       height="1052.3622" />
    <use
       id="use3886"
       xlink:href="#path3494"
       transform="matrix(1.121816,-0.35692082,0.35692082,1.121816,-65.006987,162.44179)"
       x="0"
       y="0"
       width="744.09448"
       height="1052.3622" />
    <use
       id="use3888"
       xlink:href="#path3494"
       transform="matrix(0.75013023,-0.72128804,0.72128804,0.75013023,-99.230129,404.94265)"
       x="0"
       y="0"
       width="744.09448"
       height="1052.3622" />
    <use
       id="use3890"
       xlink:href="#path3494"
       transform="matrix(0.5363137,1.2656919,-1.2656919,0.5363137,680.5268,-92.017153)"
       x="0"
       y="0"
       width="744.09448"
       height="1052.3622" />
    <use
       id="use3892"
       xlink:href="#path3494"
       transform="matrix(0.46533492,-0.42388111,0.42388111,0.46533492,58.098538,416.30957)"
       x="0"
       y="0"
       width="744.09448"
       height="1052.3622" />
    <use
       id="use3894"
       xlink:href="#path3494"
       transform="matrix(0.59335678,0.24108782,-0.24108782,0.59335678,240.35722,196.00992)"
       x="0"
       y="0"
       width="744.09448"
       height="1052.3622" />
    <use
       id="use3896"
       xlink:href="#path3494"
       transform="matrix(1.2286899,0.39436504,-0.39436504,1.2286899,110.96175,-66.221446)"
       x="0"
       y="0"
       width="744.09448"
       height="1052.3622" />
    <use
       id="use3898"
       xlink:href="#path3494"
       transform="matrix(0.84605363,0.02554542,-0.02554542,0.84605363,65.506294,160.43795)"
       x="0"
       y="0"
       width="744.09448"
       height="1052.3622" />
    <use
       id="use3900"
       xlink:href="#path3494"
       transform="matrix(1.3218372,0.01306897,-0.01306897,1.3218372,-58.243635,-4.8980863)"
       x="0"
       y="0"
       width="744.09448"
       height="1052.3622" />
    <use
       id="use3902"
       xlink:href="#path3494"
       transform="matrix(0.46345865,1.2970788,-1.2970788,0.46345865,636.05086,-65.069861)"
       x="0"
       y="0"
       width="744.09448"
       height="1052.3622" />
    <use
       id="use3904"
       xlink:href="#path3494"
       transform="matrix(0.84167563,0.54186674,-0.54186674,0.84167563,228.25592,25.295822)"
       x="0"
       y="0"
       width="744.09448"
       height="1052.3622" />
    <use
       id="use3906"
       xlink:href="#path3494"
       transform="matrix(0.94770329,1.1465775,-1.1465775,0.94770329,407.38188,-198.1651)"
       x="0"
       y="0"
       width="744.09448"
       height="1052.3622" />
    <use
       id="use3908"
       xlink:href="#path3494"
       transform="matrix(0.68606133,0.05330246,-0.05330246,0.68606133,106.30955,227.51013)"
       x="0"
       y="0"
       width="744.09448"
       height="1052.3622" />
    <use
       id="use3910"
       xlink:href="#path3494"
       transform="matrix(0.67561152,-0.11586498,0.11586498,0.67561152,56.282748,300.81494)"
       x="0"
       y="0"
       width="744.09448"
       height="1052.3622" />
    <use
       id="use3912"
       xlink:href="#path3494"
       transform="matrix(1.3750476,0.53002806,-0.53002806,1.3750476,72.100929,-164.29094)"
       x="0"
       y="0"
       width="744.09448"
       height="1052.3622" />
    <use
       id="use3914"
       xlink:href="#path3494"
       transform="matrix(0.55963754,0.3844987,-0.3844987,0.55963754,254.60698,164.0232)"
       x="0"
       y="0"
       width="744.09448"
       height="1052.3622" />
    <use
       id="use3916"
       xlink:href="#path3494"
       transform="matrix(0.68999504,-0.73273432,0.73273432,0.68999504,-194.7949,455.59518)"
       x="0"
       y="0"
       width="744.09448"
       height="1052.3622" />
    <use
       id="use3918"
       xlink:href="#path3494"
       transform="matrix(0.40971179,-0.35555959,0.35555959,0.40971179,28.313232,463.00353)"
       x="0"
       y="0"
       width="744.09448"
       height="1052.3622" />
    <use
       id="use3920"
       xlink:href="#path3494"
       transform="matrix(0.64905186,1.3268184,-1.3268184,0.64905186,572.27791,-123.50294)"
       x="0"
       y="0"
       width="744.09448"
       height="1052.3622" />
    <use
       id="use3922"
       xlink:href="#path3494"
       transform="matrix(0.72684366,1.0217497,-1.0217497,0.72684366,435.04231,-65.561859)"
       x="0"
       y="0"
       width="744.09448"
       height="1052.3622" />
    <use
       id="use3924"
       xlink:href="#path3494"
       transform="matrix(1.1440212,0.02174558,-0.02174558,1.1440212,-65.459387,69.78092)"
       x="0"
       y="0"
       width="744.09448"
       height="1052.3622" />
    <use
       id="use3926"
       xlink:href="#path3494"
       transform="matrix(0.67947905,1.3173005,-1.3173005,0.67947905,540.28881,-160.54079)"
       x="0"
       y="0"
       width="744.09448"
       height="1052.3622" />
    <use
       id="use3928"
       xlink:href="#path3494"
       transform="matrix(1.1023196,0.42096255,-0.42096255,1.1023196,84.43675,-46.26821)"
       x="0"
       y="0"
       width="744.09448"
       height="1052.3622" />
    <use
       id="use3930"
       xlink:href="#path3494"
       transform="matrix(0.19682662,0.52071536,-0.52071536,0.19682662,382.31521,232.37119)"
       x="0"
       y="0"
       width="744.09448"
       height="1052.3622" />
    <use
       id="use3932"
       xlink:href="#path3494"
       transform="matrix(0.3381045,-1.3891158,1.3891158,0.3381045,-335.68624,743.49961)"
       x="0"
       y="0"
       width="744.09448"
       height="1052.3622" />
    <use
       id="use3934"
       xlink:href="#path3494"
       transform="matrix(0.63189894,-0.78989153,0.78989153,0.63189894,-200.1933,471.54697)"
       x="0"
       y="0"
       width="744.09448"
       height="1052.3622" />
    <use
       id="use3936"
       xlink:href="#path3494"
       transform="matrix(0.41255241,-1.3098649,1.3098649,0.41255241,-301.05118,657.87302)"
       x="0"
       y="0"
       width="744.09448"
       height="1052.3622" />
    <use
       id="use3938"
       xlink:href="#path3494"
       transform="matrix(0.27947406,0.69125458,-0.69125458,0.27947406,437.38823,107.68947)"
       x="0"
       y="0"
       width="744.09448"
       height="1052.3622" />
    <use
       id="use3940"
       xlink:href="#path3494"
       transform="matrix(0.62483717,-0.33590294,0.33590294,0.62483717,-20.385319,277.13962)"
       x="0"
       y="0"
       width="744.09448"
       height="1052.3622" />
    <use
       id="use3942"
       xlink:href="#path3494"
       transform="matrix(0.88033513,-0.22564577,0.22564577,0.88033513,-74.973281,147.22083)"
       x="0"
       y="0"
       width="744.09448"
       height="1052.3622" />
    <use
       id="use3944"
       xlink:href="#path3494"
       transform="matrix(0.57117214,-0.81393343,0.81393343,0.57117214,-169.52495,462.08648)"
       x="0"
       y="0"
       width="744.09448"
       height="1052.3622" />
    <use
       id="use3946"
       xlink:href="#path3494"
       transform="matrix(1.0180214,0.71405826,-0.71405826,1.0180214,224.82172,-134.3041)"
       x="0"
       y="0"
       width="744.09448"
       height="1052.3622" />
    <use
       id="use3948"
       xlink:href="#path3494"
       transform="matrix(0.46832862,-0.38247952,0.38247952,0.46832862,-3.6083549,373.91395)"
       x="0"
       y="0"
       width="744.09448"
       height="1052.3622" />
    <use
       id="use3950"
       xlink:href="#path3494"
       transform="matrix(1.0390562,-0.7534897,0.7534897,1.0390562,-291.02465,296.25249)"
       x="0"
       y="0"
       width="744.09448"
       height="1052.3622" />
    <use
       id="use3952"
       xlink:href="#path3494"
       transform="matrix(0.71087348,-0.80600078,0.80600078,0.71087348,-200.92692,413.25869)"
       x="0"
       y="0"
       width="744.09448"
       height="1052.3622" />
    <use
       id="use3954"
       xlink:href="#path3494"
       transform="matrix(0.74820172,-0.24669312,0.24669312,0.74820172,-38.823418,227.62605)"
       x="0"
       y="0"
       width="744.09448"
       height="1052.3622" />
    <use
       id="use3956"
       xlink:href="#path3494"
       transform="matrix(1.2243172,-0.67314163,0.67314163,1.2243172,-335.85325,197.30337)"
       x="0"
       y="0"
       width="744.09448"
       height="1052.3622" />
    <use
       id="use3958"
       xlink:href="#path3494"
       transform="matrix(0.58004153,0.30393155,-0.30393155,0.58004153,209.59976,148.66324)"
       x="0"
       y="0"
       width="744.09448"
       height="1052.3622" />
    <use
       id="use3960"
       xlink:href="#path3494"
       transform="matrix(0.81244958,0.24627124,-0.24627124,0.81244958,123.26658,94.687407)"
       x="0"
       y="0"
       width="744.09448"
       height="1052.3622" />
    <use
       id="use3962"
       xlink:href="#path3494"
       transform="matrix(1.1351936,0.27602983,-0.27602983,1.1351936,32.258525,-30.297824)"
       x="0"
       y="0"
       width="744.09448"
       height="1052.3622" />
    <use
       id="use3964"
       xlink:href="#path3494"
       transform="matrix(0.65715539,0.63454217,-0.63454217,0.65715539,320.76688,24.796645)"
       x="0"
       y="0"
       width="744.09448"
       height="1052.3622" />
    <use
       id="use3966"
       xlink:href="#path3494"
       transform="matrix(0.58766148,-0.9167847,0.9167847,0.58766148,-213.49914,461.71774)"
       x="0"
       y="0"
       width="744.09448"
       height="1052.3622" />
    <use
       id="use3968"
       xlink:href="#path3494"
       transform="matrix(0.75929338,0.68728173,-0.68728173,0.75929338,298.66093,-68.638014)"
       x="0"
       y="0"
       width="744.09448"
       height="1052.3622" />
    <use
       id="use3970"
       xlink:href="#path3494"
       transform="matrix(0.60502525,0.51965279,-0.51965279,0.60502525,277.4261,10.25649)"
       x="0"
       y="0"
       width="744.09448"
       height="1052.3622" />
    <use
       id="use3972"
       xlink:href="#path3494"
       transform="matrix(0.45058259,-0.35745851,0.35745851,0.45058259,5.3500595,341.56631)"
       x="0"
       y="0"
       width="744.09448"
       height="1052.3622" />
    <use
       id="use3974"
       xlink:href="#path3494"
       transform="matrix(1.3595751,-0.21892576,0.21892576,1.3595751,-195.51983,-54.025474)"
       x="0"
       y="0"
       width="744.09448"
       height="1052.3622" />
    <use
       id="use3976"
       xlink:href="#path3494"
       transform="matrix(1.0514204,-0.04776991,0.04776991,1.0514204,-47.23742,29.151185)"
       x="0"
       y="0"
       width="744.09448"
       height="1052.3622" />
    <use
       id="use3978"
       xlink:href="#path3494"
       transform="matrix(0.85680379,0.8183754,-0.8183754,0.85680379,341.58655,-131.88532)"
       x="0"
       y="0"
       width="744.09448"
       height="1052.3622" />
    <use
       id="use3980"
       xlink:href="#path3494"
       transform="matrix(0.49322487,-0.32271305,0.32271305,0.49322487,33.917924,348.7107)"
       x="0"
       y="0"
       width="744.09448"
       height="1052.3622" />
    <use
       id="use3982"
       xlink:href="#path3494"
       transform="matrix(0.48236978,0.06338373,-0.06338373,0.48236978,182.21826,230.98061)"
       x="0"
       y="0"
       width="744.09448"
       height="1052.3622" />
    <use
       id="use3984"
       xlink:href="#path3494"
       transform="matrix(0.8767744,1.1544243,-1.1544243,0.8767744,470.68578,-209.72169)"
       x="0"
       y="0"
       width="744.09448"
       height="1052.3622" />
    <use
       id="use3986"
       xlink:href="#path3494"
       transform="matrix(1.1554813,0.78226838,-0.78226838,1.1554813,240.42898,-207.96607)"
       x="0"
       y="0"
       width="744.09448"
       height="1052.3622" />
    <use
       id="use3988"
       xlink:href="#path3494"
       transform="matrix(0.58544622,0.38944385,-0.38944385,0.58544622,279.62429,134.05675)"
       x="0"
       y="0"
       width="744.09448"
       height="1052.3622" />
    <use
       id="use3990"
       xlink:href="#path3494"
       transform="matrix(0.5023189,-0.29721465,0.29721465,0.5023189,61.585618,346.30657)"
       x="0"
       y="0"
       width="744.09448"
       height="1052.3622" />
    <use
       id="use3992"
       xlink:href="#path3494"
       transform="matrix(0.30742035,-1.0439,1.0439,0.30742035,-142.80034,642.84456)"
       x="0"
       y="0"
       width="744.09448"
       height="1052.3622" />
    <use
       id="use3994"
       xlink:href="#path3494"
       transform="matrix(0.48075617,-0.46133575,0.46133575,0.48075617,5.4557135,424.26001)"
       x="0"
       y="0"
       width="744.09448"
       height="1052.3622" />
    <use
       id="use3996"
       xlink:href="#path3494"
       transform="matrix(1.0577009,-0.00880669,0.00880669,1.0577009,-0.71598218,77.143237)"
       x="0"
       y="0"
       width="744.09448"
       height="1052.3622" />
    <use
       id="use3998"
       xlink:href="#path3494"
       transform="matrix(0.95499472,1.0300458,-1.0300458,0.95499472,425.82598,-187.97679)"
       x="0"
       y="0"
       width="744.09448"
       height="1052.3622" />
    <use
       id="use4000"
       xlink:href="#path3494"
       transform="matrix(1.0857185,-0.56342179,0.56342179,1.0857185,-201.79467,218.37261)"
       x="0"
       y="0"
       width="744.09448"
       height="1052.3622" />
    <use
       id="use4002"
       xlink:href="#path3494"
       transform="matrix(0.53667752,1.0379554,-1.0379554,0.53667752,538.35716,-56.48132)"
       x="0"
       y="0"
       width="744.09448"
       height="1052.3622" />
    <use
       id="use4004"
       xlink:href="#path3494"
       transform="matrix(0.61315636,0.29823199,-0.29823199,0.61315636,262.30846,149.21668)"
       x="0"
       y="0"
       width="744.09448"
       height="1052.3622" />
    <use
       id="use4006"
       xlink:href="#path3494"
       transform="matrix(1.1965978,-0.67768987,0.67768987,1.1965978,-263.56234,248.09015)"
       x="0"
       y="0"
       width="744.09448"
       height="1052.3622" />
    <use
       id="use4008"
       xlink:href="#path3494"
       transform="matrix(0.29905419,-0.4279584,0.4279584,0.29905419,74.232308,484.68353)"
       x="0"
       y="0"
       width="744.09448"
       height="1052.3622" />
    <use
       id="use4010"
       xlink:href="#path3494"
       transform="matrix(0.83293456,-1.223865,1.223865,0.83293456,-369.29838,531.48763)"
       x="0"
       y="0"
       width="744.09448"
       height="1052.3622" />
    <use
       id="use4012"
       xlink:href="#path3494"
       transform="matrix(0.60521074,-0.61341334,0.61341334,0.60521074,-46.442512,433.48892)"
       x="0"
       y="0"
       width="744.09448"
       height="1052.3622" />
    <use
       id="use4014"
       xlink:href="#path3494"
       transform="matrix(0.5676467,-0.48107337,0.48107337,0.5676467,24.997646,432.66625)"
       x="0"
       y="0"
       width="744.09448"
       height="1052.3622" />
    <use
       id="use4016"
       xlink:href="#path3494"
       transform="matrix(0.8588991,0.3131222,-0.3131222,0.8588991,222.07654,78.973281)"
       x="0"
       y="0"
       width="744.09448"
       height="1052.3622" />
    <use
       id="use4018"
       xlink:href="#path3494"
       transform="matrix(0.62544095,-0.16348197,0.16348197,0.62544095,125.21803,322.14011)"
       x="0"
       y="0"
       width="744.09448"
       height="1052.3622" />
    <use
       id="use4020"
       xlink:href="#path3494"
       transform="matrix(0.82031577,-1.1040513,1.1040513,0.82031577,-275.49731,508.23961)"
       x="0"
       y="0"
       width="744.09448"
       height="1052.3622" />
    <use
       id="use4022"
       xlink:href="#path3494"
       transform="matrix(0.88733467,-0.48041178,0.48041178,0.88733467,-63.528446,327.55892)"
       x="0"
       y="0"
       width="744.09448"
       height="1052.3622" />
    <use
       id="use4024"
       xlink:href="#path3494"
       transform="matrix(0.16077355,-0.689778,0.689778,0.16077355,74.871437,653.11648)"
       x="0"
       y="0"
       width="744.09448"
       height="1052.3622" />
    <use
       id="use4026"
       xlink:href="#path3494"
       transform="matrix(0.37772474,0.43152379,-0.43152379,0.37772474,413.55425,226.63093)"
       x="0"
       y="0"
       width="744.09448"
       height="1052.3622" />
    <use
       id="use4028"
       xlink:href="#path3494"
       transform="matrix(1.2290783,0.61414905,-0.61414905,1.2290783,203.32325,-129.6353)"
       x="0"
       y="0"
       width="744.09448"
       height="1052.3622" />
    <use
       id="use4030"
       xlink:href="#path3494"
       transform="matrix(0.97262454,0.59458687,-0.59458687,0.97262454,269.22823,-24.286252)"
       x="0"
       y="0"
       width="744.09448"
       height="1052.3622" />
    <use
       id="use4032"
       xlink:href="#path3494"
       transform="matrix(1.3244943,-0.32801588,0.32801588,1.3244943,-170.56097,118.04256)"
       x="0"
       y="0"
       width="744.09448"
       height="1052.3622" />
    <use
       id="use4034"
       xlink:href="#path3494"
       transform="matrix(1.2548921,-0.56799174,0.56799174,1.2548921,-233.47204,214.1408)"
       x="0"
       y="0"
       width="744.09448"
       height="1052.3622" />
    <use
       id="use4036"
       xlink:href="#path3494"
       transform="matrix(0.34633991,0.61664621,-0.61664621,0.34633991,449.04506,178.20081)"
       x="0"
       y="0"
       width="744.09448"
       height="1052.3622" />
    <use
       id="use4038"
       xlink:href="#path3494"
       transform="matrix(0.92771714,-0.77223105,0.77223105,0.92771714,-210.37746,388.42458)"
       x="0"
       y="0"
       width="744.09448"
       height="1052.3622" />
    <use
       id="use4040"
       xlink:href="#path3494"
       transform="matrix(1.1542773,-0.30694219,0.30694219,1.1542773,-134.83003,181.05894)"
       x="0"
       y="0"
       width="744.09448"
       height="1052.3622" />
    <use
       id="use4042"
       xlink:href="#path3494"
       transform="matrix(0.35221442,-0.88555376,0.88555376,0.35221442,-105.02537,634.65809)"
       x="0"
       y="0"
       width="744.09448"
       height="1052.3622" />
    <use
       id="use4044"
       xlink:href="#path3494"
       transform="matrix(0.66950952,-0.32063183,0.32063183,0.66950952,46.126719,345.91126)"
       x="0"
       y="0"
       width="744.09448"
       height="1052.3622" />
    <use
       id="use4046"
       xlink:href="#path3494"
       transform="matrix(1.3421882,0.26051154,-0.26051154,1.3421882,53.906709,-46.294923)"
       x="0"
       y="0"
       width="744.09448"
       height="1052.3622" />
    <use
       id="use4048"
       xlink:href="#path3494"
       transform="matrix(0.64513196,-0.27333129,0.27333129,0.64513196,78.245042,343.79675)"
       x="0"
       y="0"
       width="744.09448"
       height="1052.3622" />
    <use
       id="use4050"
       xlink:href="#path3494"
       transform="matrix(1.1610693,0.86430163,-0.86430163,1.1610693,318.65926,-160.23833)"
       x="0"
       y="0"
       width="744.09448"
       height="1052.3622" />
  </g>
</svg>
