<?xml version="1.0" encoding="UTF-8" standalone="no"?>
<!-- Created with Inkscape (http://www.inkscape.org/) -->

<svg
   xmlns:dc="http://purl.org/dc/elements/1.1/"
   xmlns:cc="http://creativecommons.org/ns#"
   xmlns:rdf="http://www.w3.org/1999/02/22-rdf-syntax-ns#"
   xmlns:svg="http://www.w3.org/2000/svg"
   xmlns="http://www.w3.org/2000/svg"
   xmlns:xlink="http://www.w3.org/1999/xlink"
   xmlns:sodipodi="http://sodipodi.sourceforge.net/DTD/sodipodi-0.dtd"
   xmlns:inkscape="http://www.inkscape.org/namespaces/inkscape"
   width="744.09448819"
   height="1052.3622047"
   id="svg4071"
   version="1.1"
   inkscape:version="0.48.4 r9939"
   sodipodi:docname="New document 5">
  <defs
     id="defs4073" />
  <sodipodi:namedview
     id="base"
     pagecolor="#ffffff"
     bordercolor="#666666"
     borderopacity="1.0"
     inkscape:pageopacity="0.0"
     inkscape:pageshadow="2"
     inkscape:zoom="1.3665605"
     inkscape:cx="377.14286"
     inkscape:cy="661.42857"
     inkscape:document-units="px"
     inkscape:current-layer="layer1"
     showgrid="false"
     inkscape:window-width="1301"
     inkscape:window-height="744"
     inkscape:window-x="65"
     inkscape:window-y="24"
     inkscape:window-maximized="1" />
  <metadata
     id="metadata4076">
    <rdf:RDF>
      <cc:Work
         rdf:about="">
        <dc:format>image/svg+xml</dc:format>
        <dc:type
           rdf:resource="http://purl.org/dc/dcmitype/StillImage" />
        <dc:title></dc:title>
      </cc:Work>
    </rdf:RDF>
  </metadata>
  <g
     inkscape:label="Layer 1"
     inkscape:groupmode="layer"
     id="layer1">
    <path
       style="fill:#803300;stroke:#000000;stroke-width:1px;stroke-linecap:butt;stroke-linejoin:miter;stroke-opacity:1"
       d="m 284.65626,273.76512 c -0.97569,0 -1.95137,0 -2.92706,0 -0.24392,0.24392 -0.40451,0.62268 -0.73176,0.73176 -0.46281,0.15427 -0.98731,-0.10582 -1.46353,0 -1.73349,0.38522 -3.3996,1.03284 -5.12235,1.46353 -0.23664,0.0592 -0.49513,-0.0592 -0.73177,0 -1.49663,0.37416 -2.87784,1.16098 -4.39058,1.46353 -0.47837,0.0957 -0.98516,-0.0957 -1.46353,0 -2.42695,0.48539 -1.70745,0.68298 -3.65882,1.46353 -0.71618,0.28647 -1.46353,0.48784 -2.19529,0.73176 -0.73177,0.24392 -1.46353,0.48785 -2.19529,0.73177 -0.73177,0.24392 -1.53387,0.33491 -2.1953,0.73176 -0.59159,0.35496 -0.91159,1.04958 -1.46352,1.46353 -1.2788,0.95909 -2.18304,0.72563 -3.65883,1.46353 -0.78662,0.39331 -1.47219,0.96292 -2.19529,1.46353 -2.44803,1.69478 -4.93569,3.33588 -7.31764,5.12234 -0.55193,0.41395 -0.97569,0.97569 -1.46353,1.46353 -0.48784,0.48785 -1.03254,0.9248 -1.46353,1.46353 -0.5494,0.68675 -0.84164,1.57341 -1.46352,2.19529 -0.62188,0.62188 -1.57342,0.84165 -2.1953,1.46353 -1.34858,1.34859 -1.32913,2.21523 -2.19529,3.65882 -0.45248,0.75414 -0.91413,1.50854 -1.46353,2.1953 -1.81501,2.26876 -1.42552,0.65574 -2.92705,3.65882 -2.07298,6.21892 0.81813,-1.36357 -2.1953,3.65882 -0.39685,0.66142 -0.33491,1.53386 -0.73176,2.19529 -0.35496,0.5916 -1.04958,0.9116 -1.46353,1.46353 -0.32725,0.43634 -0.40451,1.02719 -0.73176,1.46353 -2.04189,2.72252 -1.13631,0.0773 -2.92706,3.65882 -0.34496,0.68991 -0.38681,1.50538 -0.73176,2.19529 -0.78663,1.57324 -2.14044,2.81734 -2.92706,4.39058 -0.34496,0.68992 -0.44529,1.47912 -0.73177,2.1953 -0.20256,0.50641 -0.52919,0.95711 -0.73176,1.46352 -0.28647,0.71618 -0.38681,1.50538 -0.73176,2.1953 -1.71802,3.43604 -1.10002,0.92063 -2.1953,3.65882 -0.28647,0.71618 -0.48784,1.46353 -0.73176,2.19529 -0.48784,0.97569 -1.03382,1.92441 -1.46353,2.92706 -0.30385,0.70898 -0.33491,1.53387 -0.73176,2.19529 -0.35496,0.5916 -1.10857,0.87193 -1.46353,1.46353 -0.39686,0.66142 -0.38681,1.50538 -0.73177,2.19529 -0.39331,0.78662 -1.11708,1.38693 -1.46352,2.19529 -0.39617,0.9244 -0.45548,1.96004 -0.73177,2.92706 -0.2119,0.74167 -0.48784,1.46353 -0.73176,2.19529 -2.42696,7.28087 0.68991,-1.72478 -1.46353,3.65882 -0.57294,1.43236 -0.97569,2.92706 -1.46353,4.39059 -0.24392,0.73176 -0.62268,1.4317 -0.73176,2.19529 -0.13799,0.96588 0.13798,1.96118 0,2.92706 0.25415,1.48887 -1.20592,2.37077 -1.46353,3.65882 -0.14351,0.71755 0.10349,1.47088 0,2.19529 0.0693,1.85289 -1.17159,3.37074 -1.46353,5.12235 -0.1203,0.72181 0,1.46353 0,2.19529 0,1.46353 0,2.92706 0,4.39059 0,1.95137 0,3.90274 0,5.85411 0,0.73176 -0.14351,1.47774 0,2.19529 0.10697,0.53484 0.5292,0.95712 0.73177,1.46353 0.28647,0.71618 0.58049,1.43893 0.73176,2.19529 0.0957,0.47837 -0.11832,0.99025 0,1.46353 0.13228,0.52914 0.48784,0.97569 0.73176,1.46353 0.24392,0.48784 0.42922,1.00971 0.73177,1.46353 0.19135,0.28702 0.54041,0.44474 0.73176,0.73176 0.30255,0.45382 0.48784,0.97569 0.73177,1.46353 0.48784,0.48784 1.04958,0.9116 1.46352,1.46353 0.32726,0.43634 0.40451,1.02719 0.73177,1.46353 1.32514,1.76685 1.85864,1.48691 3.65882,2.92705 1.07746,0.86198 1.82319,2.09916 2.92706,2.92706 0.43634,0.32726 0.99583,0.45115 1.46352,0.73176 0.0702,0.0421 4.37071,2.91854 4.39059,2.92706 0.9244,0.39617 2.02752,0.282 2.92706,0.73177 0.61707,0.30853 0.82295,1.2073 1.46352,1.46352 0.67943,0.27177 1.47774,-0.14351 2.1953,0 0.53483,0.10697 0.95711,0.5292 1.46352,0.73177 0.71618,0.28647 1.47912,0.44529 2.1953,0.73176 2.73818,1.09528 0.22278,0.47727 3.65882,2.19529 1.37983,0.68992 3.01076,0.77362 4.39058,1.46353 0.78663,0.39331 1.40867,1.07022 2.1953,1.46353 1.37982,0.68992 3.01075,0.77362 4.39058,1.46353 0.78662,0.39331 1.37182,1.15473 2.19529,1.46353 1.16457,0.43671 2.47889,0.33845 3.65882,0.73176 1.03487,0.34496 1.92441,1.03382 2.92706,1.46353 0.70898,0.30385 1.46353,0.48784 2.19529,0.73176 1.46353,0.48785 2.89395,1.08937 4.39059,1.46353 2.41325,0.60332 4.95777,0.67691 7.31764,1.46353 1.03487,0.34496 1.90566,1.08051 2.92706,1.46353 1.88335,0.70626 3.97075,0.75727 5.85411,1.46353 12.15383,4.55769 -4.78526,-1.31906 5.12235,2.92705 0.92439,0.39617 2.00266,0.3356 2.92705,0.73177 1.89175,0.0782 2.26186,2.22857 3.65883,2.92706 0.89953,0.44976 1.98537,0.37863 2.92705,0.73176 2.94363,1.10386 3.30901,2.19886 6.58588,2.92706 0.95245,0.21165 1.95734,-0.10775 2.92706,0 3.48013,0.38668 6.76062,1.84688 10.24469,2.19529 10.89505,0 -2.66218,-0.2958 6.58588,0.73176 1.21215,0.13469 2.43922,0 3.65882,0 1.21961,0 2.43922,0 3.65882,0 1.21961,0 2.44527,-0.12135 3.65882,0 1.23759,0.12376 2.42017,0.61916 3.65883,0.73177 1.45751,0.1325 2.92705,0 4.39058,0 2.43921,0 4.87843,0 7.31764,0 0.97569,0 1.95621,-0.0971 2.92706,0 1.47635,0.14763 2.91296,0.59743 4.39058,0.73176 2.18628,0.19875 4.40754,-0.27229 6.58588,0 0.99795,0.12474 1.92749,0.6207 2.92706,0.73177 1.21214,0.13468 2.43921,0 3.65882,0 1.2196,0 2.43921,0 3.65882,0 3.87879,0 1.97532,0 5.85411,0 1.21961,0 2.44527,0.12135 3.65882,0 1.23759,-0.12376 2.42267,-0.59442 3.65882,-0.73177 1.93944,-0.21549 3.92236,0.27597 5.85412,0 0.76359,-0.10908 1.43169,-0.62268 2.19529,-0.73176 0.96588,-0.13799 1.95137,0 2.92706,0 0.97568,0 1.95137,0 2.92705,0 1.95137,0 3.90274,0 5.85412,0 0.97568,0 1.9589,-0.12102 2.92705,0 0.99795,0.12474 1.92911,0.60702 2.92706,0.73176 0.96815,0.12102 1.95137,0 2.92706,0 0.97568,0.24392 1.93145,0.58954 2.92705,0.73177 0.72441,0.10348 1.47349,-0.12031 2.19529,0 1.48888,-0.25416 2.37078,1.20591 3.65883,1.46352 0.71755,0.14351 1.46352,0 2.19529,0 0.97568,0 1.9589,-0.12102 2.92705,0 0.99795,0.12475 1.93146,0.58954 2.92706,0.73177 0.72441,0.10348 1.47349,-0.1203 2.19529,0 0.76086,0.12681 1.43444,0.60495 2.1953,0.73176 0.7218,0.1203 1.47088,-0.10349 2.19529,0 0.9956,0.14223 1.92749,0.6207 2.92706,0.73177 1.21214,0.13468 2.43921,0 3.65882,0 0.73176,0 1.47348,-0.12031 2.19529,0 0.76085,0.1268 1.43444,0.60495 2.19529,0.73176 0.72181,0.1203 1.46353,0 2.19529,0 0.73177,0 1.47089,0.10349 2.1953,0 0.9956,-0.14223 1.92911,-0.60702 2.92705,-0.73176 0.96815,-0.12102 1.95137,0 2.92706,0 0.97568,-0.24393 1.93503,-0.56643 2.92706,-0.73177 1.44361,-0.2406 2.93835,0.18153 4.39058,0 1.9959,-0.24949 3.85822,-1.21404 5.85411,-1.46353 0.96816,-0.12102 1.95138,0 2.92706,0 0.48784,0 0.98516,0.0957 1.46353,0 0.75637,-0.15127 1.47911,-0.44529 2.19529,-0.73176 0.50642,-0.20257 0.9287,-0.6248 1.46353,-0.73176 1.43511,-0.28703 2.94697,0.2406 4.39058,0 0.76086,-0.12681 1.46353,-0.48785 2.1953,-0.73177 0.73176,-0.24392 1.46353,-0.48784 2.19529,-0.73176 0.73176,-0.24392 1.43892,-0.58049 2.19529,-0.73177 0.95674,-0.19135 1.9805,0.23664 2.92706,0 0.52914,-0.13228 0.92869,-0.62479 1.46353,-0.73176 0.71755,-0.14351 1.47348,0.1203 2.19529,0 0.76085,-0.12681 1.43892,-0.58049 2.19529,-0.73177 0.95674,-0.19134 1.9805,0.23664 2.92706,0 0.52914,-0.13228 0.94609,-0.55928 1.46353,-0.73176 0.2314,-0.0771 0.48784,0 0.73176,0 0.48784,0 0.97811,0.0485 1.46353,0 1.9568,-0.19568 3.89732,-0.53608 5.85411,-0.73176 0.48542,-0.0485 0.98516,0.0957 1.46353,0 1.51274,-0.30255 2.86888,-1.20991 4.39059,-1.46353 0.7218,-0.1203 1.47773,0.14351 2.19529,0 0.53483,-0.10697 0.95711,-0.5292 1.46353,-0.73177 0.71617,-0.28647 1.46353,-0.48784 2.19529,-0.73176 1.46353,-0.48784 2.92706,-0.97569 4.39058,-1.46353 0.73177,-0.24392 1.50538,-0.38681 2.1953,-0.73176 3.43604,-1.71802 0.92063,-1.10002 3.65882,-2.1953 0.71618,-0.28647 1.50538,-0.3868 2.19529,-0.73176 0.30854,-0.15427 0.4558,-0.52479 0.73176,-0.73176 0.70358,-0.52769 1.44116,-1.01105 2.1953,-1.46353 0.93539,-0.56124 1.91422,-1.0584 2.92705,-1.46353 0.71618,-0.28647 1.47912,-0.44529 2.1953,-0.73176 0.50641,-0.20257 0.93438,-0.59948 1.46352,-0.73177 3.3312,0 0.0419,0.34496 2.1953,-0.73176 0.21817,-0.10909 0.51359,0.10908 0.73176,0 0.61708,-0.30854 0.88949,-1.08084 1.46353,-1.46353 0.66846,-0.44564 1.77584,-0.62462 2.19529,-1.46353 0.10909,-0.21817 -0.17248,-0.55929 0,-0.73176 0.38568,-0.38568 1.07786,-0.34609 1.46353,-0.73177 0.38567,-0.38567 0.42922,-1.00971 0.73176,-1.46353 0.44409,-0.66613 1.871,-1.5467 2.1953,-2.19529 0.10908,-0.21817 0,-0.48784 0,-0.73176 0.24392,-0.48785 0.42921,-1.00971 0.73176,-1.46353 0.3827,-0.57404 1.08083,-0.88949 1.46353,-1.46353 0.30255,-0.45382 0.40451,-1.02719 0.73176,-1.46353 0.62093,-0.82789 1.62125,-1.33423 2.1953,-2.19529 1.61219,-0.36851 0.3868,-1.50538 0.73176,-2.19529 0.15427,-0.30854 0.57749,-0.42323 0.73176,-0.73177 0.10909,-0.21817 -0.0771,-0.50036 0,-0.73176 1.76683,-5.30047 -0.21097,1.1537 1.46353,-2.19529 0.10909,-0.21817 -0.10908,-0.5136 0,-0.73177 0.15427,-0.30854 0.48784,-0.48784 0.73177,-0.73176 0.24392,-0.48784 0.48784,-0.97569 0.73176,-1.46353 0.24392,-0.48784 0.55929,-0.94609 0.73176,-1.46353 0.0771,-0.2314 -0.17247,-0.55928 0,-0.73176 0.38568,-0.38568 1.07786,-0.34609 1.46353,-0.73177 0.17248,-0.17248 -0.1353,-0.52881 0,-0.73176 0.3827,-0.57404 1.04958,-0.9116 1.46353,-1.46353 0.32726,-0.43634 0.40451,-1.02719 0.73177,-1.46353 1.92042,-2.56056 0.79014,-0.59261 2.92705,-2.19529 2.56056,-1.92042 0.59261,-0.79015 2.19529,-2.92706 3.94768,-5.26356 -0.81253,1.5443 2.92706,-2.19529 0.17248,-0.17248 -0.10908,-0.51359 0,-0.73176 0.36004,-0.72008 2.56702,-2.20698 2.92706,-2.92706 0.10908,-0.21817 -0.10909,-0.51359 0,-0.73176 0.15427,-0.30854 0.48784,-0.48785 0.73176,-0.73177 0.83725,-0.83725 1.02051,-0.86624 1.46353,-2.19529 0.2314,-0.69421 -0.14351,-1.47774 0,-2.19529 0.15127,-0.75637 0.54469,-1.44698 0.73176,-2.1953 0.14414,-0.57656 0,-2.44971 0,-2.92705 0,-1.46353 0,-2.92706 0,-4.39059 0,-0.73176 0,-1.46353 0,-2.19529 0,-0.48784 0.0957,-0.98516 0,-1.46353 -0.15127,-0.75637 -0.58049,-1.43892 -0.73176,-2.19529 -0.19135,-0.95674 0.30854,-2.00144 0,-2.92706 -0.10908,-0.32725 -0.57749,-0.42322 -0.73176,-0.73176 -0.10909,-0.21817 0,-0.48784 0,-0.73177 0,-0.48784 0.11832,-0.99025 0,-1.46352 -0.13229,-0.52914 -0.59948,-0.93439 -0.73177,-1.46353 -0.11832,-0.47328 0.11832,-0.99025 0,-1.46353 -0.13228,-0.52914 -0.6248,-0.9287 -0.73176,-1.46353 -0.23919,-1.19592 0.2958,-2.47563 0,-3.65882 -0.26457,-1.05828 -1.19896,-1.86878 -1.46353,-2.92706 -0.11832,-0.47327 0.15427,-1.00072 0,-1.46352 -0.21817,-0.65451 -1.08083,-0.88949 -1.46353,-1.46353 -1.24653,-1.8698 -0.0852,-1.34451 -2.19529,-2.92706 -0.43634,-0.32725 -1.07786,-0.34609 -1.46353,-0.73176 -0.38567,-0.38568 -0.40451,-1.02719 -0.73176,-1.46353 -0.62093,-0.8279 -1.62125,-1.33423 -2.1953,-2.19529 -0.30254,-0.45383 -0.34609,-1.07786 -0.73176,-1.46353 -0.38567,-0.38568 -1.00971,-0.42922 -1.46353,-0.73177 -0.28702,-0.19134 -0.48784,-0.48784 -0.73176,-0.73176 -0.24392,-0.24392 -0.54042,-0.44474 -0.73177,-0.73177 -0.30254,-0.45382 -0.40451,-1.02718 -0.73176,-1.46352 -0.41395,-0.55193 -0.97569,-0.97569 -1.46353,-1.46353 -0.24392,-0.24392 -0.44474,-0.54042 -0.73176,-0.73177 -3.41993,-2.27995 0.8765,1.43297 -3.65882,-2.19529 -0.53874,-0.43098 -0.9116,-1.04958 -1.46353,-1.46353 -0.43634,-0.32725 -1.02719,-0.40451 -1.46353,-0.73176 -0.55193,-0.41395 -0.97569,-0.97569 -1.46353,-1.46353 -0.48784,-0.48784 -1.04958,-0.9116 -1.46353,-1.46353 -0.32725,-0.43634 -0.40451,-1.02719 -0.73176,-1.46353 -0.8279,-1.10386 -2.06509,-1.84959 -2.92706,-2.92705 -0.5494,-0.68675 -0.91413,-1.50854 -1.46353,-2.19529 -0.43098,-0.53874 -1.03254,-0.9248 -1.46353,-1.46353 -0.5494,-0.68675 -0.84164,-1.57342 -1.46352,-2.1953 -0.62188,-0.62188 -1.57342,-0.84164 -2.1953,-1.46352 -0.62188,-0.62188 -0.97568,-1.46353 -1.46352,-2.1953 -0.97569,-1.46352 -1.8717,-2.98343 -2.92706,-4.39058 -0.20697,-0.27597 -0.54042,-0.44474 -0.73176,-0.73177 -0.30255,-0.45382 -0.40451,-1.02718 -0.73177,-1.46352 -0.41395,-0.55194 -1.03254,-0.9248 -1.46353,-1.46353 -0.5494,-0.68675 -0.97568,-1.46353 -1.46353,-2.19529 -0.73176,-0.73177 -1.53278,-1.40029 -2.19529,-2.1953 -0.56302,-0.67563 -0.91413,-1.50854 -1.46353,-2.19529 -0.86197,-1.07746 -2.06508,-1.84959 -2.92705,-2.92706 -1.32798,-0.85555 -1.34192,-2.52098 -2.1953,-3.65882 -0.41394,-0.55193 -1.04958,-0.91159 -1.46352,-1.46353 -0.9591,-1.27879 -0.72564,-2.18303 -1.46353,-3.65882 -0.39331,-0.78662 -0.97569,-1.46352 -1.46353,-2.19529 -0.48784,-0.73176 -0.91413,-1.50854 -1.46353,-2.19529 -1.57053,-1.96317 -1.54582,-1.23666 -3.65882,-2.92706 -0.53873,-0.43098 -0.97569,-0.97568 -1.46353,-1.46353 -0.97568,-0.97568 -2.06508,-1.84959 -2.92705,-2.92705 -2.15774,-2.69717 -0.82733,-1.37887 -2.1953,-3.65882 -0.45248,-0.75414 -1.01104,-1.44116 -1.46353,-2.1953 -0.28061,-0.46769 -0.39104,-1.03762 -0.73176,-1.46352 -0.64648,-0.8081 -1.40028,-1.53279 -2.19529,-2.1953 -2.99407,-2.49505 -1.54371,-0.54129 -5.12235,-2.92705 -0.57404,-0.3827 -0.9248,-1.03255 -1.46353,-1.46353 -1.3735,-1.0988 -3.03933,-1.80101 -4.39058,-2.92706 -0.79501,-0.66251 -1.35319,-1.59378 -2.1953,-2.19529 -0.0234,-0.0167 -5.78452,-2.88729 -5.85411,-2.92706 -0.76359,-0.43634 -1.40867,-1.07021 -2.19529,-1.46353 -0.68992,-0.34495 -1.47912,-0.44529 -2.1953,-0.73176 -0.50641,-0.20257 -0.97568,-0.48784 -1.46352,-0.73176 -2.77234,-1.38617 -4.06237,-2.20367 -7.31765,-2.92706 -0.71433,-0.15874 -1.47088,0.10349 -2.19529,0 -0.9956,-0.14223 -1.95137,-0.48784 -2.92705,-0.73176 -2.92706,-0.73177 -5.85412,-1.46353 -8.78117,-2.1953 -0.97569,-0.24392 -1.93145,-0.58953 -2.92706,-0.73176 -0.72441,-0.10349 -1.47774,0.14351 -2.19529,0 -0.53484,-0.10697 -0.95712,-0.5292 -1.46353,-0.73177 -0.71618,-0.28647 -1.48631,-0.42791 -2.19529,-0.73176 -1.00265,-0.42971 -1.87818,-1.16385 -2.92706,-1.46353 -0.70361,-0.20103 -1.49168,0.20103 -2.19529,0 -1.28059,-0.36588 -3.01853,-1.64647 -4.39059,-2.19529 -0.71618,-0.28647 -1.47911,-0.44529 -2.19529,-0.73176 -0.50641,-0.20257 -0.9287,-0.6248 -1.46353,-0.73177 -0.71755,-0.14351 -1.51587,0.27177 -2.19529,0 -0.64057,-0.25623 -0.82296,-1.2073 -1.46353,-1.46353 -0.67943,-0.27177 -1.47774,0.14351 -2.19529,0 -0.53484,-0.10696 -0.95712,-0.5292 -1.46353,-0.73176 -0.71618,-0.28647 -1.47911,-0.44529 -2.19529,-0.73177 -1.514,-0.60559 -2.87659,-1.58969 -4.39059,-2.19529 -0.71618,-0.28647 -1.47911,-0.44529 -2.19529,-0.73176 -0.50641,-0.20257 -0.94609,-0.55929 -1.46353,-0.73177 -0.9541,-0.31803 -1.96004,-0.45547 -2.92706,-0.73176 -0.74166,-0.21191 -1.46352,-0.48784 -2.19529,-0.73176 -0.73176,-0.24393 -1.47911,-0.4453 -2.19529,-0.73177 -0.50641,-0.20256 -0.93439,-0.59948 -1.46353,-0.73176 -0.47328,-0.11832 -0.98516,0.0957 -1.46353,0 -0.75636,-0.15128 -1.43444,-0.60496 -2.19529,-0.73177 -1.68422,-0.2807 -3.43206,0.24147 -5.12235,0 -2.67063,-0.38152 -1.63158,-1.28356 -4.39058,-0.73176 -0.53484,0.10697 -0.9287,0.6248 -1.46353,0.73176 -0.71756,0.14351 -1.47349,-0.1203 -2.19529,0 -0.76086,0.12681 -1.44698,0.54469 -2.1953,0.73177 -1.20662,0.30165 -2.45219,0.43011 -3.65882,0.73176 -0.74831,0.18708 -1.45362,0.51986 -2.19529,0.73177 -0.96702,0.27629 -1.97295,0.41372 -2.92706,0.73176 -1.64291,0.54764 -1.98885,1.36031 -3.65882,2.19529 -0.68991,0.34496 -1.50538,0.38681 -2.19529,0.73177 -1.57325,0.78662 -2.8823,2.02208 -4.39058,2.92705 -2.27996,1.36797 -0.96166,0.0376 -3.65883,2.1953 -0.53873,0.43098 -0.97568,0.97568 -1.46352,1.46352 -0.48785,0.48785 -1.03255,0.9248 -1.46353,1.46353 -0.5494,0.68675 -0.84165,1.57341 -1.46353,2.19529 -2.41696,2.41696 -5.50957,3.00582 -8.04941,5.12235 -2.11132,1.75944 -3.74279,4.09468 -5.85411,5.85412 -0.67563,0.56302 -1.51966,0.9005 -2.19529,1.46353 -0.79501,0.6625 -1.35319,1.59378 -2.19529,2.19529 -0.88767,0.63404 -1.95138,0.97568 -2.92706,1.46353 -0.48784,0.24392 -0.95712,0.52919 -1.46353,0.73176 -0.71618,0.28647 -1.53387,0.33491 -2.19529,0.73176 -0.5916,0.35496 -0.9116,1.04958 -1.46353,1.46353 -0.86138,0.64604 -2.77335,1.16837 -3.65882,1.46353 -1.46353,0.48784 -2.92706,0.97569 -4.39059,1.46353 -0.73176,0.24392 -1.47911,0.44529 -2.19529,0.73176 -1.01283,0.40513 -1.86878,1.19896 -2.92705,1.46353 -0.47328,0.11832 -0.99026,-0.11832 -1.46353,0 -1.05828,0.26457 -1.85739,1.2496 -2.92706,1.46353 -0.71755,0.14351 -1.47348,-0.1203 -2.19529,0 -0.76085,0.12681 -1.46353,0.48784 -2.19529,0.73176 -0.73177,0.24393 -1.47912,0.4453 -2.1953,0.73177 -1.76942,0.70777 -3.19848,1.81052 -5.12235,2.19529 -0.47837,0.0957 -0.98516,-0.0957 -1.46352,0 -0.75637,0.15127 -1.47912,0.44529 -2.1953,0.73176 -0.50641,0.20257 -0.92869,0.6248 -1.46353,0.73177 -1.4351,0.28702 -2.95547,-0.28702 -4.39058,0 -0.53483,0.10697 -0.94609,0.55928 -1.46353,0.73176 -0.46281,0.15427 -1.00072,-0.15427 -1.46353,0 -0.51743,0.17248 -0.93439,0.59948 -1.46353,0.73177 -0.47327,0.11832 -0.97568,0 -1.46352,0 -0.48785,0 -0.99446,0.13402 -1.46353,0 -1.26302,-0.36086 -2.35178,-1.59423 -3.65882,-1.46353 -1.41524,0.14152 -2.38669,1.55922 -3.65882,2.19529 -0.21817,0.10909 -0.48785,0 -0.73177,0 -0.24392,0 -0.48784,0 -0.73176,0"
       id="path4081"
       inkscape:connector-curvature="0" />
    <rect
       style="fill:#ff9955"
       id="rect4085"
       width="10.976462"
       height="1.4635283"
       x="335.87976"
       y="281.08276" />
    <use
       id="use4087"
       xlink:href="#rect4085"
       transform="matrix(0.43176412,-0.56645029,0.56645029,0.43176412,88.686732,373.29857)"
       x="0"
       y="0"
       width="744.09448"
       height="1052.3622" />
    <use
       id="use4089"
       xlink:href="#rect4085"
       transform="matrix(0.85459045,1.0883859,-1.0883859,0.85459045,387.27832,-271.22143)"
       x="0"
       y="0"
       width="744.09448"
       height="1052.3622" />
    <use
       id="use4091"
       xlink:href="#rect4085"
       transform="matrix(0.58275501,1.0288112,-1.0288112,0.58275501,486.46698,-193.60196)"
       x="0"
       y="0"
       width="744.09448"
       height="1052.3622" />
    <use
       id="use4093"
       xlink:href="#rect4085"
       transform="matrix(1.3553694,-0.10214929,0.10214929,1.3553694,-47.092191,12.405997)"
       x="0"
       y="0"
       width="744.09448"
       height="1052.3622" />
    <use
       id="use4095"
       xlink:href="#rect4085"
       transform="matrix(0.30531908,0.59142422,-0.59142422,0.30531908,442.97907,38.210504)"
       x="0"
       y="0"
       width="744.09448"
       height="1052.3622" />
    <use
       id="use4097"
       xlink:href="#rect4085"
       transform="matrix(0.96422248,-0.33584151,0.33584151,0.96422248,38.351207,198.72192)"
       x="0"
       y="0"
       width="744.09448"
       height="1052.3622" />
    <use
       id="use4099"
       xlink:href="#rect4085"
       transform="matrix(0.75375043,-0.9034641,0.9034641,0.75375043,-13.891439,445.9202)"
       x="0"
       y="0"
       width="744.09448"
       height="1052.3622" />
    <use
       id="use4101"
       xlink:href="#rect4085"
       transform="matrix(0.39809167,0.88832543,-0.88832543,0.39809167,569.28498,-110.36546)"
       x="0"
       y="0"
       width="744.09448"
       height="1052.3622" />
    <use
       id="use4103"
       xlink:href="#rect4085"
       transform="matrix(1.4106602,-0.23447426,0.23447426,1.4106602,-190.78447,-30.821964)"
       x="0"
       y="0"
       width="744.09448"
       height="1052.3622" />
    <use
       id="use4105"
       xlink:href="#rect4085"
       transform="matrix(0.4388609,-0.69996314,0.69996314,0.4388609,-64.594449,434.88558)"
       x="0"
       y="0"
       width="744.09448"
       height="1052.3622" />
    <use
       id="use4107"
       xlink:href="#rect4085"
       transform="matrix(0.92668323,0.22746842,-0.22746842,0.92668323,70.633226,53.055585)"
       x="0"
       y="0"
       width="744.09448"
       height="1052.3622" />
    <use
       id="use4109"
       xlink:href="#rect4085"
       transform="matrix(1.0715554,-0.28917125,0.28917125,1.0715554,-180.38583,161.93407)"
       x="0"
       y="0"
       width="744.09448"
       height="1052.3622" />
    <use
       id="use4111"
       xlink:href="#rect4085"
       transform="matrix(1.1848624,-0.01356552,0.01356552,1.1848624,-141.97406,9.4172152)"
       x="0"
       y="0"
       width="744.09448"
       height="1052.3622" />
    <use
       id="use4113"
       xlink:href="#rect4085"
       transform="matrix(0.99494083,-1.0856372,1.0856372,0.99494083,-399.28741,455.48492)"
       x="0"
       y="0"
       width="744.09448"
       height="1052.3622" />
    <use
       id="use4115"
       xlink:href="#rect4085"
       transform="matrix(0.64375146,-1.2341589,1.2341589,0.64375146,-332.94347,600.41996)"
       x="0"
       y="0"
       width="744.09448"
       height="1052.3622" />
    <use
       id="use4117"
       xlink:href="#rect4085"
       transform="matrix(0.63129763,-1.1014987,1.1014987,0.63129763,-273.12684,583.7455)"
       x="0"
       y="0"
       width="744.09448"
       height="1052.3622" />
    <use
       id="use4119"
       xlink:href="#rect4085"
       transform="matrix(0.15668364,0.63989776,-0.63989776,0.15668364,372.76168,129.79141)"
       x="0"
       y="0"
       width="744.09448"
       height="1052.3622" />
    <use
       id="use4121"
       xlink:href="#rect4085"
       transform="matrix(1.4096983,0.06330183,-0.06330183,1.4096983,-221.01178,-39.655504)"
       x="0"
       y="0"
       width="744.09448"
       height="1052.3622" />
    <use
       id="use4123"
       xlink:href="#rect4085"
       transform="matrix(1.0052332,0.49342746,-0.49342746,1.0052332,34.600475,-84.267374)"
       x="0"
       y="0"
       width="744.09448"
       height="1052.3622" />
    <use
       id="use4125"
       xlink:href="#rect4085"
       transform="matrix(0.28485577,-0.65718663,0.65718663,0.28485577,41.17035,504.6863)"
       x="0"
       y="0"
       width="744.09448"
       height="1052.3622" />
    <use
       id="use4127"
       xlink:href="#rect4085"
       transform="matrix(0.54548516,0.02101689,-0.02101689,0.54548516,91.534121,218.82868)"
       x="0"
       y="0"
       width="744.09448"
       height="1052.3622" />
    <use
       id="use4129"
       xlink:href="#rect4085"
       transform="matrix(0.65417113,0.05085138,-0.05085138,0.65417113,118.06543,159.17945)"
       x="0"
       y="0"
       width="744.09448"
       height="1052.3622" />
    <use
       id="use4131"
       xlink:href="#rect4085"
       transform="matrix(0.41667527,1.2876053,-1.2876053,0.41667527,575.27139,-150.91079)"
       x="0"
       y="0"
       width="744.09448"
       height="1052.3622" />
    <use
       id="use4133"
       xlink:href="#rect4085"
       transform="matrix(0.85950479,-0.32755254,0.32755254,0.85950479,-30.858607,215.70237)"
       x="0"
       y="0"
       width="744.09448"
       height="1052.3622" />
    <use
       id="use4135"
       xlink:href="#rect4085"
       transform="matrix(1.0761284,-0.46752284,0.46752284,1.0761284,-153.78833,196.64484)"
       x="0"
       y="0"
       width="744.09448"
       height="1052.3622" />
    <use
       id="use4137"
       xlink:href="#rect4085"
       transform="matrix(0.45589513,-0.62264746,0.62264746,0.45589513,10.90436,443.04092)"
       x="0"
       y="0"
       width="744.09448"
       height="1052.3622" />
    <use
       id="use4139"
       xlink:href="#rect4085"
       transform="matrix(0.89424452,-0.01384691,0.01384691,0.89424452,40.423916,120.84868)"
       x="0"
       y="0"
       width="744.09448"
       height="1052.3622" />
    <use
       id="use4141"
       xlink:href="#rect4085"
       transform="matrix(1.2808233,0.23257015,-0.23257015,1.2808233,28.885383,-93.033325)"
       x="0"
       y="0"
       width="744.09448"
       height="1052.3622" />
    <use
       id="use4143"
       xlink:href="#rect4085"
       transform="matrix(0.29418151,-1.1123495,1.1123495,0.29418151,50.364989,673.86837)"
       x="0"
       y="0"
       width="744.09448"
       height="1052.3622" />
    <use
       id="use4145"
       xlink:href="#rect4085"
       transform="matrix(0.88944842,-0.14911916,0.14911916,0.88944842,142.51779,199.17747)"
       x="0"
       y="0"
       width="744.09448"
       height="1052.3622" />
    <use
       id="use4147"
       xlink:href="#rect4085"
       transform="matrix(0.35965239,0.80609973,-0.80609973,0.35965239,551.31762,-12.71775)"
       x="0"
       y="0"
       width="744.09448"
       height="1052.3622" />
    <use
       id="use4149"
       xlink:href="#rect4085"
       transform="matrix(0.8704285,0.11003027,-0.11003027,0.8704285,207.54397,122.11638)"
       x="0"
       y="0"
       width="744.09448"
       height="1052.3622" />
    <use
       id="use4151"
       xlink:href="#rect4085"
       transform="matrix(1.234397,0.32870532,-0.32870532,1.234397,164.25578,-62.245115)"
       x="0"
       y="0"
       width="744.09448"
       height="1052.3622" />
    <use
       id="use4153"
       xlink:href="#rect4085"
       transform="matrix(1.0281132,-0.07795256,0.07795256,1.0281132,125.29448,62.69655)"
       x="0"
       y="0"
       width="744.09448"
       height="1052.3622" />
    <use
       id="use4155"
       xlink:href="#rect4085"
       transform="matrix(1.1681983,-0.50749284,0.50749284,1.1681983,-62.700093,194.20448)"
       x="0"
       y="0"
       width="744.09448"
       height="1052.3622" />
    <use
       id="use4157"
       xlink:href="#rect4085"
       transform="matrix(0.58653052,0.21868718,-0.21868718,0.58653052,375.00486,57.219427)"
       x="0"
       y="0"
       width="744.09448"
       height="1052.3622" />
    <use
       id="use4159"
       xlink:href="#rect4085"
       transform="matrix(1.1546592,0.01726722,-0.01726722,1.1546592,79.667369,-18.199481)"
       x="0"
       y="0"
       width="744.09448"
       height="1052.3622" />
    <use
       id="use4161"
       xlink:href="#rect4085"
       transform="matrix(1.2750063,-0.11219746,0.11219746,1.2750063,-42.637114,-37.077236)"
       x="0"
       y="0"
       width="744.09448"
       height="1052.3622" />
    <use
       id="use4163"
       xlink:href="#rect4085"
       transform="matrix(1.3832597,-0.57530948,0.57530948,1.3832597,-183.98872,48.873065)"
       x="0"
       y="0"
       width="744.09448"
       height="1052.3622" />
    <use
       id="use4165"
       xlink:href="#rect4085"
       transform="matrix(1.091864,0.73695294,-0.73695294,1.091864,252.11014,-265.6313)"
       x="0"
       y="0"
       width="744.09448"
       height="1052.3622" />
    <use
       id="use4167"
       xlink:href="#rect4085"
       transform="matrix(1.0325446,0.31525225,-0.31525225,1.0325446,158.17693,-114.12591)"
       x="0"
       y="0"
       width="744.09448"
       height="1052.3622" />
    <use
       id="use4169"
       xlink:href="#rect4085"
       transform="matrix(0.53410093,0.11366448,-0.11366448,0.53410093,265.76879,70.231994)"
       x="0"
       y="0"
       width="744.09448"
       height="1052.3622" />
    <use
       id="use4171"
       xlink:href="#rect4085"
       transform="matrix(0.91391548,0.91099879,-0.91099879,0.91391548,289.46083,-227.13723)"
       x="0"
       y="0"
       width="744.09448"
       height="1052.3622" />
    <use
       id="use4173"
       xlink:href="#rect4085"
       transform="matrix(0.35929867,1.2404127,-1.2404127,0.35929867,581.78643,-199.1285)"
       x="0"
       y="0"
       width="744.09448"
       height="1052.3622" />
    <use
       id="use4175"
       xlink:href="#rect4085"
       transform="matrix(1.3498476,0.43178438,-0.43178438,1.3498476,-14.809919,-205.31104)"
       x="0"
       y="0"
       width="744.09448"
       height="1052.3622" />
    <use
       id="use4177"
       xlink:href="#rect4085"
       transform="matrix(0.82493564,-0.6007035,0.6007035,0.82493564,-171.12592,311.36645)"
       x="0"
       y="0"
       width="744.09448"
       height="1052.3622" />
    <use
       id="use4179"
       xlink:href="#rect4085"
       transform="matrix(0.51337921,-0.06578652,0.06578652,0.51337921,75.548964,219.46719)"
       x="0"
       y="0"
       width="744.09448"
       height="1052.3622" />
    <use
       id="use4181"
       xlink:href="#rect4085"
       transform="matrix(0.59876552,0.70985852,-0.70985852,0.59876552,309.636,-102.06168)"
       x="0"
       y="0"
       width="744.09448"
       height="1052.3622" />
    <use
       id="use4183"
       xlink:href="#rect4085"
       transform="matrix(1.043805,-0.03911165,0.03911165,1.043805,-101.25066,67.87041)"
       x="0"
       y="0"
       width="744.09448"
       height="1052.3622" />
    <use
       id="use4185"
       xlink:href="#rect4085"
       transform="matrix(0.935017,0.13608505,-0.13608505,0.935017,31.489965,-21.253584)"
       x="0"
       y="0"
       width="744.09448"
       height="1052.3622" />
    <use
       id="use4187"
       xlink:href="#rect4085"
       transform="matrix(1.3370677,-0.46299812,0.46299812,1.3370677,-236.56727,86.101498)"
       x="0"
       y="0"
       width="744.09448"
       height="1052.3622" />
    <use
       id="use4189"
       xlink:href="#rect4085"
       transform="matrix(1.2495029,0.09088422,-0.09088422,1.2495029,-73.128503,-44.649772)"
       x="0"
       y="0"
       width="744.09448"
       height="1052.3622" />
    <use
       id="use4191"
       xlink:href="#rect4085"
       transform="matrix(0.39967617,1.3242928,-1.3242928,0.39967617,561.17901,-193.0518)"
       x="0"
       y="0"
       width="744.09448"
       height="1052.3622" />
    <use
       id="use4193"
       xlink:href="#rect4085"
       transform="matrix(1.2171128,0.51463418,-0.51463418,1.2171128,110.27176,-96.824732)"
       x="0"
       y="0"
       width="744.09448"
       height="1052.3622" />
    <use
       id="use4195"
       xlink:href="#rect4085"
       transform="matrix(0.58205365,0.16380484,-0.16380484,0.58205365,265.71239,150.92927)"
       x="0"
       y="0"
       width="744.09448"
       height="1052.3622" />
    <use
       id="use4197"
       xlink:href="#rect4085"
       transform="matrix(0.22793371,0.44837442,-0.44837442,0.22793371,478.14516,126.35162)"
       x="0"
       y="0"
       width="744.09448"
       height="1052.3622" />
    <use
       id="use4199"
       xlink:href="#rect4085"
       transform="matrix(0.58984925,-0.87982644,0.87982644,0.58984925,-6.0832413,516.7402)"
       x="0"
       y="0"
       width="744.09448"
       height="1052.3622" />
    <use
       id="use4201"
       xlink:href="#rect4085"
       transform="matrix(0.92343422,0.96141705,-0.96141705,0.92343422,422.36017,-200.53747)"
       x="0"
       y="0"
       width="744.09448"
       height="1052.3622" />
    <use
       id="use4203"
       xlink:href="#rect4085"
       transform="matrix(0.29691819,0.76602093,-0.76602093,0.29691819,668.85809,10.90794)"
       x="0"
       y="0"
       width="744.09448"
       height="1052.3622" />
    <use
       id="use4205"
       xlink:href="#rect4085"
       transform="matrix(1.4687689,-0.23847117,0.23847117,1.4687689,-36.631103,4.7032816)"
       x="0"
       y="0"
       width="744.09448"
       height="1052.3622" />
    <use
       id="use4207"
       xlink:href="#rect4085"
       transform="matrix(0.68611975,0.28470773,-0.28470773,0.68611975,373.82487,71.808375)"
       x="0"
       y="0"
       width="744.09448"
       height="1052.3622" />
    <use
       id="use4209"
       xlink:href="#rect4085"
       transform="matrix(0.97679595,-0.1285213,0.1285213,0.97679595,148.12165,155.4452)"
       x="0"
       y="0"
       width="744.09448"
       height="1052.3622" />
    <use
       id="use4211"
       xlink:href="#rect4085"
       transform="matrix(0.61817894,-0.36928427,0.36928427,0.61817894,217.77462,338.2414)"
       x="0"
       y="0"
       width="744.09448"
       height="1052.3622" />
    <use
       id="use4213"
       xlink:href="#rect4085"
       transform="matrix(0.58507628,-0.2562968,0.2562968,0.58507628,193.73531,311.53956)"
       x="0"
       y="0"
       width="744.09448"
       height="1052.3622" />
    <use
       id="use4215"
       xlink:href="#rect4085"
       transform="matrix(0.71619515,1.1801814,-1.1801814,0.71619515,569.43912,-211.92365)"
       x="0"
       y="0"
       width="744.09448"
       height="1052.3622" />
    <use
       id="use4217"
       xlink:href="#rect4085"
       transform="matrix(0.89912862,-0.07038784,0.07038784,0.89912862,116.38623,158.92046)"
       x="0"
       y="0"
       width="744.09448"
       height="1052.3622" />
    <use
       id="use4219"
       xlink:href="#rect4085"
       transform="matrix(0.60206729,0.29125925,-0.29125925,0.60206729,304.32022,77.278277)"
       x="0"
       y="0"
       width="744.09448"
       height="1052.3622" />
    <use
       id="use4221"
       xlink:href="#rect4085"
       transform="matrix(0.37885695,-0.86538811,0.86538811,0.37885695,61.816235,597.57994)"
       x="0"
       y="0"
       width="744.09448"
       height="1052.3622" />
  </g>
</svg>
