<?xml version="1.0" encoding="UTF-8" standalone="no"?>
<!-- Created with Inkscape (http://www.inkscape.org/) -->

<svg
   xmlns:dc="http://purl.org/dc/elements/1.1/"
   xmlns:cc="http://creativecommons.org/ns#"
   xmlns:rdf="http://www.w3.org/1999/02/22-rdf-syntax-ns#"
   xmlns:svg="http://www.w3.org/2000/svg"
   xmlns="http://www.w3.org/2000/svg"
   xmlns:xlink="http://www.w3.org/1999/xlink"
   xmlns:sodipodi="http://sodipodi.sourceforge.net/DTD/sodipodi-0.dtd"
   xmlns:inkscape="http://www.inkscape.org/namespaces/inkscape"
   width="744.09448819"
   height="1052.3622047"
   id="svg5517"
   version="1.1"
   inkscape:version="0.48.4 r9939"
   sodipodi:docname="New document 10">
  <defs
     id="defs5519" />
  <sodipodi:namedview
     id="base"
     pagecolor="#ffffff"
     bordercolor="#666666"
     borderopacity="1.0"
     inkscape:pageopacity="0.0"
     inkscape:pageshadow="2"
     inkscape:zoom="1.1534946"
     inkscape:cx="357.14286"
     inkscape:cy="642.85714"
     inkscape:document-units="px"
     inkscape:current-layer="layer1"
     showgrid="false"
     inkscape:window-width="1301"
     inkscape:window-height="744"
     inkscape:window-x="65"
     inkscape:window-y="24"
     inkscape:window-maximized="1" />
  <metadata
     id="metadata5522">
    <rdf:RDF>
      <cc:Work
         rdf:about="">
        <dc:format>image/svg+xml</dc:format>
        <dc:type
           rdf:resource="http://purl.org/dc/dcmitype/StillImage" />
        <dc:title></dc:title>
      </cc:Work>
    </rdf:RDF>
  </metadata>
  <g
     inkscape:label="Layer 1"
     inkscape:groupmode="layer"
     id="layer1">
    <path
       style="fill:none;stroke:#000000;stroke-width:1px;stroke-linecap:butt;stroke-linejoin:miter;stroke-opacity:1"
       d="m 162.11606,432.50667 c 3.28285,-2.17573 5.91255,-5.04562 8.6693,-7.80238 0.67715,-0.67714 2.10208,-1.85271 2.6008,-2.60079 0.35843,-0.53765 0.5085,-1.19621 0.86693,-1.73386 0.45338,-0.68008 1.28048,-1.05379 1.73386,-1.73386 0.35843,-0.53765 0.66259,-1.12085 0.86693,-1.73386 0.5338,-1.60141 -1.32285,-0.41101 0.86693,-2.6008 0.20434,-0.20433 0.7377,0.25847 0.86693,0 0.25847,-0.51693 -0.25847,-1.21692 0,-1.73386 0.12924,-0.25847 0.6626,0.20434 0.86693,0 0.20434,-0.20433 -0.15315,-0.62188 0,-0.86693 1.31751,-2.10801 3.01715,-3.9605 4.33466,-6.06851 0.15315,-0.24506 -0.20434,-0.6626 0,-0.86693 0.20433,-0.20434 0.66259,0.20433 0.86693,0 0.20433,-0.20434 -0.12924,-0.60847 0,-0.86693 0.18276,-0.36553 0.68416,-0.50141 0.86693,-0.86694 0.17186,-0.34373 -0.17723,-2.42356 0,-2.60079 0.17723,-0.17723 2.25706,0.17187 2.60079,0 0.36553,-0.18276 0.5014,-0.68416 0.86693,-0.86693 0.25847,-0.12923 0.66259,0.20434 0.86693,0 0.20861,-0.20861 -0.20861,-3.25911 0,-3.46772 1.15591,-1.15591 0.86693,1.44488 0.86693,-0.86693 0,-4.04568 0,-8.09136 0,-12.13703 0,-1.44489 0,-2.88977 0,-4.33466 0,-0.85454 0,-2.58841 0,-1.73386 0,2.88333 -0.25847,0.65422 0.86693,3.46772 0.33939,0.84847 0.52755,1.75233 0.86693,2.6008 0.47997,1.19991 1.15591,2.31181 1.73387,3.46772 1.1559,2.31181 2.31181,4.62363 3.46772,6.93545 0.28898,0.57795 0.57795,1.1559 0.86693,1.73386 0.28898,0.57795 0.71021,1.10698 0.86693,1.73386 0.14018,0.5607 -0.14017,1.17316 0,1.73386 0.15672,0.62688 0.57795,1.15591 0.86693,1.73386 0.28898,0.57796 0.5085,1.19622 0.86693,1.73386 0.45339,0.68008 1.36833,1.0028 1.73386,1.73387 0.12924,0.25846 -0.20433,0.66259 0,0.86693 0.63781,0.6378 1.56459,-0.69766 1.73387,-0.86693 0.28897,-0.28898 0.73769,-0.47923 0.86693,-0.86694 0.27414,-0.82244 -0.27415,-1.77835 0,-2.60079 0.20433,-0.61301 0.66259,-1.12085 0.86693,-1.73386 0.18276,-0.54829 -0.40868,-1.32519 0,-1.73386 0.20433,-0.20434 0.66259,0.20434 0.86693,0 0.40867,-0.40868 -0.40868,-1.32519 0,-1.73386 0.20434,-0.20434 0.60846,0.12923 0.86693,0 1.91683,-0.95842 0.26903,-0.53806 0.86693,-1.73386 1.80398,-3.60796 -0.0598,0.92678 1.73386,-0.86694 0.20434,-0.20433 0,-0.57795 0,-0.86693 0.28898,0 0.60846,0.12924 0.86693,0 1.36252,-0.68126 3.09355,-5.62582 3.46772,-6.93544 0.32733,-1.14564 0.57796,-2.31182 0.86694,-3.46773 1.1559,-3.46772 2.39275,-6.9095 3.46772,-10.40316 0.19011,-0.61785 0,-4.28496 0,-5.20159 0,-0.28898 -0.20434,-0.66259 0,-0.86693 0.20434,-0.20434 0.57795,0 0.86693,0 0.57795,0 1.15591,0 1.73386,0 2.02284,0 4.04568,0 6.06852,0 0.57795,0 1.17316,0.14017 1.73386,0 0.62688,-0.15672 1.12085,-0.66259 1.73386,-0.86693 0.54829,-0.18277 1.21692,0.25847 1.73386,0 0.36553,-0.18277 0.5014,-0.68417 0.86693,-0.86693 0.51694,-0.25847 1.21693,0.25847 1.73386,0 0.36553,-0.18277 0.5014,-0.68417 0.86693,-0.86693 0.25847,-0.12924 0.60847,0.12923 0.86694,0 0.36553,-0.18277 0.5014,-0.68417 0.86693,-0.86693 0.51693,-0.25847 1.21692,0.25847 1.73386,0 0.73106,-0.36553 1.0028,-1.36833 1.73386,-1.73386 1.19581,-0.59791 0.77544,1.0499 1.73386,-0.86694 0.12924,-0.25846 -0.20434,-0.66259 0,-0.86693 0.20434,-0.20433 0.66259,0.20434 0.86693,0 0.20434,-0.20433 -0.20434,-0.66259 0,-0.86693 0.45691,-0.45691 1.21693,-0.47922 1.73386,-0.86693 0.65388,-0.49041 1.15591,-1.15591 1.73386,-1.73386 0.28898,-0.28898 0.50141,-0.68417 0.86694,-0.86693 0.25846,-0.12923 0.66259,0.20434 0.86693,0 0.40867,-0.40868 -0.40868,-1.32519 0,-1.73386 0.40867,-0.40868 1.21692,0.25847 1.73386,0 0.36553,-0.18277 0.5014,-0.68417 0.86693,-0.86693 0.25847,-0.12924 0.66259,0.20433 0.86693,0 0.20434,-0.20434 -0.20434,-0.6626 0,-0.86693 0.0279,-0.0279 2.39054,0 2.60079,0"
       id="path5525"
       inkscape:connector-curvature="0" />
    <path
       style="fill:#6c5353;stroke:#000000;stroke-width:1px;stroke-linecap:butt;stroke-linejoin:miter;stroke-opacity:1"
       d="m 240.13983,353.61597 c 1.01304,0.25326 3.73891,1.2326 5.20158,0.86693 0.62688,-0.15672 1.10698,-0.71021 1.73386,-0.86693 0.5607,-0.14017 1.17317,0.14017 1.73387,0 0.62687,-0.15672 1.1559,-0.57795 1.73386,-0.86693 0.57795,-0.28898 1.21692,-0.47923 1.73386,-0.86693 3.74973,-3.74973 -0.22966,-0.13587 3.46772,-2.60079 0.34004,-0.2267 0.5014,-0.68417 0.86693,-0.86694 0.25847,-0.12923 0.60846,0.12924 0.86693,0 0.73106,-0.36553 1.0028,-1.36833 1.73386,-1.73386 0.51694,-0.25847 1.32519,0.40868 1.73387,0 0.20433,-0.20433 -0.20434,-0.66259 0,-0.86693 0.20433,-0.20434 0.59278,0.0914 0.86693,0 0.61301,-0.20434 1.12085,-0.66259 1.73386,-0.86693 0.27415,-0.0914 0.59278,0.0914 0.86693,0 0.57795,-0.28898 1.15591,-0.57795 1.73386,-0.86693 0,-0.28898 -0.25847,-0.7377 0,-0.86693 0.51694,-0.25847 1.18557,0.18277 1.73386,0 0.38771,-0.12923 0.5269,-0.64024 0.86693,-0.86693 0.53765,-0.35843 1.12085,-0.66259 1.73387,-0.86693 0.74904,-0.24968 4.8268,0.24985 5.20158,0 6.02134,-4.01423 -1.82622,-0.41038 3.46772,-1.73386 2.09844,-0.52461 1.74052,-1.30539 3.46773,-2.6008 1.03387,-0.7754 2.39242,-1.01699 3.46772,-1.73386 1.9838,-1.32253 -0.54208,-0.68623 2.60079,-1.73386 0.5483,-0.18276 1.15591,0 1.73386,0 0.28898,0 0.60847,-0.12923 0.86693,0 0.99387,0.49693 1.20591,1.80886 1.73387,2.60079 0.66227,0.99342 2.35998,2.32386 3.46772,2.6008 2.85901,0.71475 5.76984,1.20668 8.66931,1.73386 1.75282,0.31869 2.5478,-0.61167 4.33465,-0.86693 1.14429,-0.16347 2.32343,0.16347 3.46772,0 5.91895,-0.84557 -0.12938,-0.61786 4.33466,-1.73386 0.4485,-0.11213 4.87919,-0.10747 5.20158,0 3.82314,1.27437 0.9151,0.0963 1.73386,1.73386 0.18277,0.36553 0.57796,0.57795 0.86693,0.86693 0.9919,0.9919 1.20902,1.02625 1.73387,2.60079 0.0914,0.27415 -0.12924,0.60846 0,0.86693 0.18276,0.36553 0.73769,0.47923 0.86693,0.86693 0.18276,0.5483 -0.25847,1.21693 0,1.73386 0.12923,0.25847 0.66259,-0.20433 0.86693,0 0.20434,0.20434 -0.20434,0.6626 0,0.86693 0.20434,0.20434 0.66259,-0.20433 0.86693,0 0.20434,0.20434 -0.20434,0.6626 0,0.86693 0.45691,0.45692 1.19621,0.5085 1.73386,0.86694 0.34004,0.22669 0.57795,0.57795 0.86693,0.86693 0.57795,0.28897 1.19621,0.5085 1.73386,0.86693 0.34004,0.22669 0.47923,0.73769 0.86693,0.86693 0.58978,0.19659 3.87498,-0.22984 4.33466,0 0.73106,0.36553 1.0028,1.36833 1.73386,1.73386 0.25847,0.12923 0.66259,-0.20434 0.86693,0 0.20434,0.20434 -0.20434,0.66259 0,0.86693 0.20434,0.20434 0.60846,-0.12923 0.86693,0 0.36553,0.18277 0.5014,0.68417 0.86693,0.86693 0.22795,0.11398 3.01439,0 3.46772,0 2.31182,0 4.62364,0 6.93545,0 1.44489,0 2.88977,0 4.33465,0 0.57796,0 1.18557,-0.18276 1.73387,0 0.61301,0.20434 1.10698,0.71021 1.73386,0.86693 0.84104,0.21026 1.77835,-0.27415 2.60079,0 0.61301,0.20434 1.10024,0.74021 1.73386,0.86693 2.28456,0.45692 4.61989,0.60965 6.93545,0.86693 0.28721,0.0319 0.59278,-0.0914 0.86693,0 4.91176,2.45588 -1.29235,-0.32308 3.46772,0.86693 0.62688,0.15672 1.10698,0.71022 1.73386,0.86694 0.5607,0.14017 1.15591,0 1.73386,0 2.02284,0 4.04568,0 6.06852,0 3.7567,0 7.5134,0 11.2701,0 0.61448,0 4.97744,-0.11208 5.20159,0 1.5786,0.7893 0.50818,0.65763 0.86693,1.73386 1.79371,5.38113 -0.0701,-2.88127 1.73386,4.33465 0.14749,0.58999 -0.23706,2.12668 0,2.60079 1.9838,3.9676 -0.35932,-3.67875 1.73386,2.6008 0.0914,0.27414 -0.20434,0.66259 0,0.86693 0.20434,0.20433 0.66259,-0.20434 0.86693,0 0.20434,0.20433 -0.12923,0.60846 0,0.86693 0.18276,0.36553 0.7377,0.47922 0.86693,0.86693 0.18277,0.54829 -0.25847,1.21692 0,1.73386 0.12924,0.25847 0.57795,0 0.86693,0 0.28898,0.57795 0.66259,1.12085 0.86693,1.73386 0.0914,0.27415 -0.0914,0.59278 0,0.86693 0.20434,0.61301 0.6626,1.12085 0.86693,1.73386 0.0914,0.27415 -0.12923,0.60847 0,0.86693 0.18277,0.36553 0.64024,0.5269 0.86693,0.86693 1.90999,0.43658 0.45826,1.78345 0.86693,2.6008 0.18277,0.36553 0.68417,0.5014 0.86694,0.86693 0.12923,0.25847 -0.12924,0.60846 0,0.86693 0.36553,0.73106 1.36833,1.0028 1.73386,1.73386 0.12923,0.25847 -0.20434,0.66259 0,0.86693 0.20433,0.20434 0.66259,-0.20434 0.86693,0 0.20434,0.20434 -0.20434,0.66259 0,0.86693 0.45691,0.45691 1.15591,0.57796 1.73386,0.86693 0.57795,0.28898 1.12085,0.6626 1.73386,0.86693 0.27415,0.0914 0.59278,-0.0914 0.86693,0 3.7639,1.25464 -0.59558,0.86693 4.33466,0.86693 0.86693,0 1.73386,0 2.60079,0 0.86693,0 1.75069,0.17002 2.60079,0 0.63362,-0.12672 1.10698,-0.71021 1.73386,-0.86693 0.5607,-0.14017 1.15591,0 1.73386,0 1.73387,0 3.46773,0 5.20159,0 3.17874,0 6.35749,0 9.53624,0 1.13453,0 3.35692,0.19555 4.33465,0 4.56627,-0.91325 0.72647,-0.68288 5.20159,-2.60079 1.09514,-0.46935 2.32208,-0.5396 3.46772,-0.86693 0.87866,-0.25105 1.73386,-0.57795 2.60079,-0.86693 0.86693,-0.28898 1.75233,-0.52755 2.60079,-0.86693 0.59996,-0.23998 1.10699,-0.71021 1.73386,-0.86693 0.5607,-0.14018 1.16714,0.11334 1.73387,0 0.89608,-0.17922 1.6994,-0.7167 2.60079,-0.86693 4.52551,-0.75425 0.87241,0.17448 4.33465,0.86693 0.8501,0.17002 1.7507,-0.17002 2.6008,0 0.63362,0.12672 1.1339,0.62695 1.73386,0.86693 1.24884,0.49954 3.17288,0.86253 4.33465,1.73386 0.65388,0.49041 1.07998,1.24345 1.73386,1.73386 0.51694,0.38771 1.19622,0.5085 1.73386,0.86693 0.34004,0.22669 0.5269,0.64024 0.86693,0.86693 1.0753,0.71687 2.35955,1.06896 3.46773,1.73386 0.89344,0.53607 1.70735,1.1978 2.60079,1.73387 0.55409,0.33245 1.17977,0.53447 1.73386,0.86693 0.89344,0.53606 1.70735,1.19779 2.60079,1.73386 0.55409,0.33245 1.19622,0.5085 1.73387,0.86693 1.02011,0.68008 1.61997,1.86518 2.60079,2.60079 0.51694,0.38771 1.21692,0.47923 1.73386,0.86693 0.65388,0.49041 1.03299,1.31334 1.73386,1.73386 1.04362,0.62617 5.21835,1.45048 6.06852,1.73387 1.22602,0.40867 2.21396,1.42042 3.46772,1.73386 0.5607,0.14017 1.18557,-0.18277 1.73386,0 0.3877,0.12923 0.52689,0.64024 0.86693,0.86693 6.28575,3.14287 -1.37074,-0.91383 2.60079,1.73386 0.53765,0.35843 1.27695,0.41002 1.73387,0.86693 0.20433,0.20434 -0.20434,0.66259 0,0.86693 0.45691,0.45691 1.27694,0.41002 1.73386,0.86693 0.20434,0.20434 -0.20434,0.6626 0,0.86693 0.45691,0.45692 1.19621,0.5085 1.73386,0.86693 0.36746,0.24498 2.42145,2.2421 2.60079,2.6008 0.0227,0.0453 0.0227,2.55543 0,2.60079 -0.9253,1.8506 -0.80856,-0.11674 -1.73386,1.73386 -0.12923,0.25847 0.12923,0.60846 0,0.86693 -0.18277,0.36553 -0.57795,0.57795 -0.86693,0.86693 -0.28898,0.28898 -0.5014,0.68417 -0.86693,0.86693 -0.25847,0.12924 -0.66259,-0.20434 -0.86693,0 -0.30431,0.30431 0.29941,3.73584 0,4.33466 -0.18277,0.36553 -0.68417,0.5014 -0.86693,0.86693 -0.11398,0.22795 0,3.01438 0,3.46772 0,0.69791 -0.18138,2.92359 0,3.46772 0.20433,0.61302 0.66259,1.12085 0.86693,1.73387 0.0914,0.27414 -0.12924,0.60846 0,0.86693 0.36553,0.73106 1.36833,1.0028 1.73386,1.73386 1.0676,2.13521 -2.51647,-0.78261 0.86693,2.60079 0.45691,0.45691 1.21692,0.47923 1.73386,0.86693 6.23582,4.67686 -1.82955,-0.96262 2.60079,3.46772 1.79371,1.79371 -0.0701,-2.74102 1.73387,0.86693 0.12923,0.25847 -0.20434,0.6626 0,0.86694 0.20433,0.20433 0.66259,-0.20434 0.86693,0 0.0867,0.0867 0.0867,2.51409 0,2.60079 -0.20434,0.20434 -0.6626,-0.20434 -0.86693,0 -0.20434,0.20434 0.20433,0.66259 0,0.86693 -0.20434,0.20434 -0.6626,-0.20434 -0.86694,0 -0.20433,0.20434 0.20434,0.66259 0,0.86693 -0.20433,0.20434 -0.66259,-0.20434 -0.86693,0 -0.20433,0.20434 0.20434,0.66259 0,0.86693 -0.20433,0.20434 -0.66259,-0.20434 -0.86693,0 -0.20433,0.20434 0.20434,0.66259 0,0.86693 -0.20433,0.20434 -0.66259,-0.20434 -0.86693,0 -1.79371,1.79371 2.74103,-0.0701 -0.86693,1.73386 -0.25847,0.12924 -0.66259,-0.20434 -0.86693,0 -0.20434,0.20434 0.20434,0.6626 0,0.86693 -0.20434,0.20434 -0.66259,-0.20433 -0.86693,0 -0.45691,0.45692 -0.41002,1.27695 -0.86693,1.73386 -0.20434,0.20434 -0.66259,-0.20433 -0.86693,0 -0.45691,0.45692 -0.5085,1.19622 -0.86693,1.73387 -0.45339,0.68007 -1.15591,1.1559 -1.73386,1.73386 -0.57796,0.57795 -1.15591,1.15591 -1.73387,1.73386 -0.57795,0.57795 -1.07998,1.24345 -1.73386,1.73386 -0.563,0.42226 -4.50201,2.3676 -5.20158,2.60079 -0.27415,0.0914 -0.60846,-0.12923 -0.86693,0 -0.36553,0.18277 -0.5014,0.68417 -0.86693,0.86693 -0.0968,0.0484 -4.23789,0.0484 -4.33466,0 -0.36553,-0.18276 -0.47922,-0.73769 -0.86693,-0.86693 -0.54829,-0.18276 -1.15591,0 -1.73386,0 -0.28898,0 -0.60846,0.12924 -0.86693,0 -0.73106,-0.36553 -0.94092,-1.53562 -1.73386,-1.73386 -0.84105,-0.21026 -1.7507,0.17002 -2.60079,0 -0.63363,-0.12672 -1.10699,-0.71021 -1.73387,-0.86693 -0.56069,-0.14017 -1.17316,0.14018 -1.73386,0 -0.62688,-0.15672 -1.10698,-0.71021 -1.73386,-0.86693 -0.68194,-0.17049 -4.30004,0 -5.20158,0 -1.44489,0 -2.88977,0 -4.33466,0 -1.15591,0 -2.32343,-0.16347 -3.46772,0 -0.90464,0.12923 -1.70471,0.68772 -2.60079,0.86693 -0.8501,0.17002 -1.77835,-0.27415 -2.6008,0 -0.61301,0.20434 -1.10698,0.71021 -1.73386,0.86693 -0.56069,0.14018 -1.1559,0 -1.73386,0 -0.86693,0 -1.74257,-0.1226 -2.60079,0 -2.71017,0.38717 -3.59835,1.0281 -6.06852,1.73386 -1.14564,0.32733 -2.33738,0.49015 -3.46772,0.86693 -0.61301,0.20434 -1.13391,0.62695 -1.73386,0.86693 -0.84847,0.33939 -1.75233,0.52755 -2.60079,0.86694 -6.03716,2.41486 2.29893,-0.2864 -3.46773,0.86693 -1.74092,-0.19895 -2.82493,1.35643 -4.33465,1.73386 -0.5607,0.14017 -1.17316,-0.14018 -1.73386,0 -0.62688,0.15672 -1.12085,0.66259 -1.73386,0.86693 -0.19037,0.0634 -3.33884,0.0644 -3.46773,0 -0.73106,-0.36553 -1.0028,-1.36833 -1.73386,-1.73386 -0.25847,-0.12924 -0.60846,0.12923 -0.86693,0 -0.36553,-0.18277 -0.57795,-0.57796 -0.86693,-0.86693 -0.86693,-0.86693 -1.73386,-1.73387 -2.60079,-2.6008 -0.57796,-0.57795 -1.05379,-1.28047 -1.73386,-1.73386 -0.53765,-0.35843 -1.27695,-0.41002 -1.73387,-0.86693 -0.20433,-0.20434 0.12924,-0.60846 0,-0.86693 -0.083,-0.16595 -3.30177,-3.38475 -3.46772,-3.46772 -0.25847,-0.12924 -0.60846,0.12923 -0.86693,0 -0.36553,-0.18277 -0.5014,-0.68417 -0.86693,-0.86693 -0.25847,-0.12924 -0.60846,0.12923 -0.86693,0 -0.36553,-0.18277 -0.5014,-0.68417 -0.86693,-0.86693 -0.51694,-0.25847 -1.18557,0.18276 -1.73386,0 -0.61302,-0.20434 -1.10024,-0.74021 -1.73387,-0.86693 -0.5428,-0.10857 -7.17725,-0.0893 -7.80237,0 -1.17951,0.1685 -2.29245,0.67105 -3.46773,0.86693 -1.14018,0.19003 -2.37113,-0.36553 -3.46772,0 -0.3877,0.12923 -0.57795,0.57795 -0.86693,0.86693 -0.86693,0.28897 -1.70471,0.68771 -2.60079,0.86693 -0.56673,0.11334 -1.16377,-0.095 -1.73386,0 -1.17527,0.19588 -2.31182,0.57795 -3.46773,0.86693 -1.1559,0.28898 -2.33738,0.49015 -3.46772,0.86693 -0.61301,0.20434 -1.10698,0.71021 -1.73386,0.86693 -0.5607,0.14017 -1.17317,-0.14017 -1.73386,0 -1.25376,0.31344 -2.20048,1.48041 -3.46773,1.73386 -0.85009,0.17002 -1.74257,-0.1226 -2.60079,0 -1.17951,0.1685 -2.30461,0.60846 -3.46772,0.86693 -1.43841,0.31965 -2.91785,0.46213 -4.33466,0.86693 -0.62131,0.17752 -1.1339,0.62695 -1.73386,0.86693 -0.84846,0.33939 -1.75232,0.52755 -2.60079,0.86693 -3.83664,1.53466 0.69703,0.29624 -4.33465,1.73387 -2.29128,0.65465 -4.64417,1.07921 -6.93545,1.73386 -0.87866,0.25105 -1.6994,0.7167 -2.60079,0.86693 -0.85514,0.14252 -1.7507,-0.17002 -2.60079,0 -0.63363,0.12672 -1.10699,0.71021 -1.73387,0.86693 -0.56069,0.14017 -1.16713,-0.11335 -1.73386,0 -0.89608,0.17922 -1.6994,0.7167 -2.60079,0.86693 -1.71027,0.28505 -3.49131,-0.28504 -5.20158,0 -0.9014,0.15023 -1.70472,0.68772 -2.6008,0.86693 -1.13346,0.22669 -2.31181,0 -3.46772,0 -2.60079,0 -5.20158,0 -7.80238,0 -1.44488,0 -2.90092,-0.17921 -4.33465,0 -0.90677,0.11335 -1.6994,0.7167 -2.60079,0.86693 -1.42523,0.23754 -2.88977,0 -4.33466,0 -0.57795,0 -1.16713,-0.11334 -1.73386,0 -0.89608,0.17922 -1.6994,0.7167 -2.60079,0.86693 -0.85514,0.14253 -1.74258,-0.1226 -2.60079,0 -1.17951,0.1685 -2.29246,0.67105 -3.46773,0.86693 -1.14018,0.19003 -2.33426,-0.22669 -3.46772,0 -0.89608,0.17922 -1.70471,0.68772 -2.60079,0.86693 -0.56673,0.11335 -1.15591,0 -1.73386,0 -0.86693,0 -1.73387,0 -2.6008,0 -3.46772,0 -6.93544,0 -10.40317,0 -1.1559,0 -2.32754,-0.19003 -3.46772,0 -9.39172,2.34793 2.38297,-0.29787 -6.93544,0.86694 -1.18229,0.14778 -2.29246,0.67105 -3.46773,0.86693 -1.42522,0.23753 -2.90429,-0.20434 -4.33465,0 -1.17951,0.1685 -2.28822,0.69843 -3.46772,0.86693 -0.85822,0.1226 -1.73387,0 -2.6008,0 -3.46772,0 -6.93544,0 -10.40317,0 -6.64647,0 -13.29294,0 -19.9394,0 -1.15591,0 -2.31182,0 -3.46773,0 -1.44488,0 -2.8986,0.15956 -4.33465,0 -1.1842,-0.13158 -2.28822,-0.69843 -3.46773,-0.86693 -0.85821,-0.12261 -1.73386,0 -2.60079,0 -2.02284,0 -4.04567,0 -6.06851,0 -4.04568,0 -8.09136,0 -12.13703,0 -2.31182,0 -4.63511,-0.23004 -6.93545,0 -1.46619,0.14661 -2.87017,0.70421 -4.33465,0.86693 -1.14884,0.12765 -2.32344,-0.16347 -3.46773,0 -0.90464,0.12923 -1.69615,0.73769 -2.60079,0.86693 -1.14429,0.16347 -2.32074,-0.14338 -3.46772,0 -1.18228,0.14778 -2.28544,0.71914 -3.46773,0.86693 -1.14698,0.14337 -2.32074,-0.14337 -3.46772,0 -1.18228,0.14778 -2.28821,0.69843 -3.46772,0.86693 -0.85822,0.1226 -1.74566,-0.14252 -2.60079,0 -0.9014,0.15023 -1.69941,0.7167 -2.6008,0.86693 -1.71027,0.28504 -3.49131,-0.28505 -5.20158,0 -0.90139,0.15023 -1.6994,0.7167 -2.60079,0.86693 -0.85514,0.14252 -1.73387,0 -2.6008,0 -1.73386,0 -3.46772,0 -5.20158,0 -0.45334,0 -3.23977,0.11398 -3.46772,0 -0.36553,-0.18276 -0.5014,-0.68417 -0.86693,-0.86693 -0.25847,-0.12923 -0.6626,0.20434 -0.86694,0 -0.20433,-0.20434 0.20434,-0.66259 0,-0.86693 -0.40867,-0.40868 -1.32518,0.40867 -1.73386,0 -0.40867,-0.40868 0.18277,-1.18557 0,-1.73386 -0.20433,-0.61302 -0.71021,-1.10699 -0.86693,-1.73386 -0.59998,-2.39991 0.41233,-1.19471 0.86693,-3.46773 1.63544,-8.17719 -1.60669,1.8494 0.86693,-4.33465 0.33939,-0.84847 0.50696,-1.76086 0.86693,-2.60079 0.50908,-1.18786 1.37883,-2.22511 1.73387,-3.46773 0.23816,-0.83357 -0.27415,-1.77835 0,-2.60079 0.32948,-0.98845 1.19779,-1.70735 1.73386,-2.60079 0.33245,-0.55409 0.62695,-1.13391 0.86693,-1.73386 0.67877,-1.69693 0.91651,-3.56689 1.73386,-5.20159 0.46596,-0.93192 1.2679,-1.66887 1.73386,-2.60079 0.40868,-0.81735 0.45826,-1.78344 0.86693,-2.60079 0.46596,-0.93193 1.2679,-1.66887 1.73386,-2.60079 0.8742,-1.74839 0.59761,-2.81966 1.73387,-4.33466 0.49041,-0.65388 1.24345,-1.07998 1.73386,-1.73386 1.13625,-1.515 0.85967,-2.58627 1.73386,-4.33465 0.18276,-0.36553 0.68416,-0.5014 0.86693,-0.86693 0.15675,-0.31352 0,-3.73167 0,-4.33466"
       id="path5527"
       inkscape:connector-curvature="0" />
    <path
       style="fill:#241c1c;stroke:#000000;stroke-width:1px;stroke-linecap:butt;stroke-linejoin:miter;stroke-opacity:1"
       d="m 273.95013,400.43023 c -0.57796,-1.15591 -1.2539,-2.26781 -1.73386,-3.46772 -0.14394,-0.35985 0,-3.69557 0,-4.33466 0,-0.28897 0,-0.57795 0,-0.86693 0,-0.28897 -0.20434,-0.66259 0,-0.86693 0.20433,-0.20433 0.66259,0.20434 0.86693,0 0.20433,-0.20433 -0.20434,-0.66259 0,-0.86693 0.20433,-0.20433 0.57795,0 0.86693,0 0.28898,0 0.57795,0 0.86693,0 0.28898,0 0.57795,0 0.86693,0 0.28898,0 0.66259,-0.20433 0.86693,0 0.20434,0.20434 -0.20434,0.6626 0,0.86693 1.79371,1.79371 -0.0701,-2.74102 1.73386,0.86693 0.12924,0.25847 -0.12923,0.60847 0,0.86693 0.18277,0.36554 0.68417,0.50141 0.86693,0.86694 0.12924,0.25846 -0.20433,0.66259 0,0.86693 0.20434,0.20433 0.6626,-0.20434 0.86693,0 0.20434,0.20433 -0.12923,0.60846 0,0.86693 0.18277,0.36553 0.68417,0.5014 0.86693,0.86693 0.12924,0.25847 -0.20433,0.66259 0,0.86693 0.20434,0.20434 0.6626,-0.20434 0.86694,0 0.20433,0.20434 -0.20434,0.66259 0,0.86693 0.20433,0.20434 0.66259,-0.20434 0.86693,0 0.20433,0.20434 -0.20434,0.66259 0,0.86693 0.20433,0.20434 0.66259,-0.20434 0.86693,0 0.20433,0.20434 -0.20434,0.66259 0,0.86693 0.20433,0.20434 0.66259,-0.20434 0.86693,0 0.20434,0.20434 -0.20434,0.66259 0,0.86693 0.20434,0.20434 0.60846,-0.12923 0.86693,0 0.36553,0.18277 0.5014,0.68417 0.86693,0.86693 0.15907,0.0795 2.60079,-0.0636 2.60079,0 0,0.28898 -0.57795,0 -0.86693,0 -0.28898,0 -0.57795,0 -0.86693,0 -0.39043,0 -2.33696,0.13192 -2.60079,0 -0.36553,-0.18276 -0.5014,-0.68416 -0.86693,-0.86693 -0.25847,-0.12923 -0.6626,0.20434 -0.86693,0 -0.20434,-0.20434 0.20433,-0.66259 0,-0.86693 -0.13454,-0.13454 -2.26345,0.11245 -2.6008,0 -0.61301,-0.20434 -1.09418,-0.95831 -1.73386,-0.86693 -1.54055,0.22008 -2.85832,2.22597 -4.33465,1.73386 -13.08324,3.40382 -1.99423,-3.72808 -3.46772,-5.20158 -0.0393,-0.0393 -3.9259,0 -4.33466,0"
       id="path5529"
       inkscape:connector-curvature="0" />
    <use
       id="use5531"
       xlink:href="#path5529"
       transform="matrix(0.4930104,-0.30507137,0.30507137,0.4930104,55.168389,342.24414)"
       x="0"
       y="0"
       width="744.09448"
       height="1052.3622" />
    <use
       id="use5533"
       xlink:href="#path5529"
       transform="matrix(1.0618747,-0.92415936,0.92415936,1.0618747,-398.20993,231.50446)"
       x="0"
       y="0"
       width="744.09448"
       height="1052.3622" />
    <use
       id="use5535"
       xlink:href="#path5529"
       transform="matrix(0.59573263,0.79223182,-0.79223182,0.59573263,450.59586,-51.527679)"
       x="0"
       y="0"
       width="744.09448"
       height="1052.3622" />
    <use
       id="use5537"
       xlink:href="#path5529"
       transform="matrix(1.0831785,-0.66076091,0.66076091,1.0831785,-210.21729,178.69317)"
       x="0"
       y="0"
       width="744.09448"
       height="1052.3622" />
    <use
       id="use5539"
       xlink:href="#path5529"
       transform="matrix(0.51426197,0.01379456,-0.01379456,0.51426197,208.48543,184.57492)"
       x="0"
       y="0"
       width="744.09448"
       height="1052.3622" />
    <use
       id="use5541"
       xlink:href="#path5529"
       transform="matrix(0.7183429,0.37489706,-0.37489706,0.7183429,301.63566,58.225833)"
       x="0"
       y="0"
       width="744.09448"
       height="1052.3622" />
    <use
       id="use5543"
       xlink:href="#path5529"
       transform="matrix(1.1997832,0.47655415,-0.47655415,1.1997832,250.74642,-153.02618)"
       x="0"
       y="0"
       width="744.09448"
       height="1052.3622" />
    <use
       id="use5545"
       xlink:href="#path5529"
       transform="matrix(1.0735197,0.86960549,-0.86960549,1.0735197,443.42327,-212.90874)"
       x="0"
       y="0"
       width="744.09448"
       height="1052.3622" />
    <use
       id="use5547"
       xlink:href="#path5529"
       transform="matrix(1.1746595,-0.44063992,0.44063992,1.1746595,-92.428253,128.94141)"
       x="0"
       y="0"
       width="744.09448"
       height="1052.3622" />
    <use
       id="use5549"
       xlink:href="#path5529"
       transform="matrix(1.2081107,-0.08566907,0.08566907,1.2081107,103.38123,-35.177748)"
       x="0"
       y="0"
       width="744.09448"
       height="1052.3622" />
    <use
       id="use5551"
       xlink:href="#path5529"
       transform="matrix(0.84758182,0.21608331,-0.21608331,0.84758182,291.28951,71.800435)"
       x="0"
       y="0"
       width="744.09448"
       height="1052.3622" />
    <use
       id="use5553"
       xlink:href="#path5529"
       transform="matrix(0.39579151,-0.91241227,0.91241227,0.39579151,-39.970952,548.14575)"
       x="0"
       y="0"
       width="744.09448"
       height="1052.3622" />
    <use
       id="use5555"
       xlink:href="#path5529"
       transform="matrix(1.0869056,-0.92532061,0.92532061,1.0869056,-234.14909,289.44527)"
       x="0"
       y="0"
       width="744.09448"
       height="1052.3622" />
    <use
       id="use5557"
       xlink:href="#path5529"
       transform="matrix(0.64461623,0.10297437,-0.10297437,0.64461623,219.358,111.83593)"
       x="0"
       y="0"
       width="744.09448"
       height="1052.3622" />
    <use
       id="use5559"
       xlink:href="#path5529"
       transform="matrix(0.50979641,-0.89195619,0.89195619,0.50979641,-157.44931,449.9168)"
       x="0"
       y="0"
       width="744.09448"
       height="1052.3622" />
    <use
       id="use5561"
       xlink:href="#path5529"
       transform="matrix(0.58635224,0.55019942,-0.55019942,0.58635224,350.0458,26.179495)"
       x="0"
       y="0"
       width="744.09448"
       height="1052.3622" />
    <use
       id="use5563"
       xlink:href="#path5529"
       transform="matrix(0.74381941,0.17226543,-0.17226543,0.74381941,145.7505,37.070727)"
       x="0"
       y="0"
       width="744.09448"
       height="1052.3622" />
    <use
       id="use5565"
       xlink:href="#path5529"
       transform="matrix(0.7232577,-0.37192297,0.37192297,0.7232577,-138.30289,227.40758)"
       x="0"
       y="0"
       width="744.09448"
       height="1052.3622" />
    <use
       id="use5567"
       xlink:href="#path5529"
       transform="matrix(0.23161742,0.47400751,-0.47400751,0.23161742,388.42402,252.48127)"
       x="0"
       y="0"
       width="744.09448"
       height="1052.3622" />
    <use
       id="use5569"
       xlink:href="#path5529"
       transform="matrix(0.6372603,0.6702454,-0.6702454,0.6372603,311.62931,22.112588)"
       x="0"
       y="0"
       width="744.09448"
       height="1052.3622" />
    <use
       id="use5571"
       xlink:href="#path5529"
       transform="matrix(1.0742019,-0.71819559,0.71819559,1.0742019,-360.67346,187.08921)"
       x="0"
       y="0"
       width="744.09448"
       height="1052.3622" />
    <use
       id="use5573"
       xlink:href="#path5529"
       transform="matrix(0.44482989,0.62766084,-0.62766084,0.44482989,350.82366,79.399106)"
       x="0"
       y="0"
       width="744.09448"
       height="1052.3622" />
    <use
       id="use5575"
       xlink:href="#path5529"
       transform="matrix(1.1183554,0.92912719,-0.92912719,1.1183554,249.21654,-278.4044)"
       x="0"
       y="0"
       width="744.09448"
       height="1052.3622" />
    <use
       id="use5577"
       xlink:href="#path5529"
       transform="matrix(0.98042028,-0.87229237,0.87229237,0.98042028,-263.88823,240.91212)"
       x="0"
       y="0"
       width="744.09448"
       height="1052.3622" />
    <use
       id="use5579"
       xlink:href="#path5529"
       transform="matrix(0.61242433,-1.2911939,1.2911939,0.61242433,-327.23109,493.45041)"
       x="0"
       y="0"
       width="744.09448"
       height="1052.3622" />
    <use
       id="use5581"
       xlink:href="#path5529"
       transform="matrix(0.45611808,0.97768988,-0.97768988,0.45611808,563.41764,-34.684005)"
       x="0"
       y="0"
       width="744.09448"
       height="1052.3622" />
    <use
       id="use5583"
       xlink:href="#path5529"
       transform="matrix(1.0326409,0.86364881,-0.86364881,1.0326409,457.66831,-258.42097)"
       x="0"
       y="0"
       width="744.09448"
       height="1052.3622" />
    <use
       id="use5585"
       xlink:href="#path5529"
       transform="matrix(0.49708127,0.28175755,-0.28175755,0.49708127,377.72379,134.52625)"
       x="0"
       y="0"
       width="744.09448"
       height="1052.3622" />
    <use
       id="use5587"
       xlink:href="#path5529"
       transform="matrix(0.43578483,0.32790705,-0.32790705,0.43578483,385.03897,131.66584)"
       x="0"
       y="0"
       width="744.09448"
       height="1052.3622" />
    <use
       id="use5589"
       xlink:href="#path5529"
       transform="matrix(0.7929052,0.36571294,-0.36571294,0.7929052,326.12317,42.590157)"
       x="0"
       y="0"
       width="744.09448"
       height="1052.3622" />
    <use
       id="use5591"
       xlink:href="#path5529"
       transform="matrix(0.95086587,0.43357533,-0.43357533,0.95086587,331.15759,-79.298753)"
       x="0"
       y="0"
       width="744.09448"
       height="1052.3622" />
    <use
       id="use5593"
       xlink:href="#path5529"
       transform="matrix(0.95367104,-0.0614139,0.0614139,0.95367104,35.763227,57.652607)"
       x="0"
       y="0"
       width="744.09448"
       height="1052.3622" />
    <use
       id="use5595"
       xlink:href="#path5529"
       transform="matrix(0.46277299,-0.58236492,0.58236492,0.46277299,-67.577462,381.25369)"
       x="0"
       y="0"
       width="744.09448"
       height="1052.3622" />
    <use
       id="use5597"
       xlink:href="#path5529"
       transform="matrix(0.80635144,0.02500678,-0.02500678,0.80635144,12.195493,106.90187)"
       x="0"
       y="0"
       width="744.09448"
       height="1052.3622" />
    <use
       id="use5599"
       xlink:href="#path5529"
       transform="matrix(0.99052494,-0.36761087,0.36761087,0.99052494,-129.33564,131.92357)"
       x="0"
       y="0"
       width="744.09448"
       height="1052.3622" />
    <use
       id="use5601"
       xlink:href="#path5529"
       transform="matrix(0.73566468,0.15609335,-0.15609335,0.73566468,70.672469,129.18619)"
       x="0"
       y="0"
       width="744.09448"
       height="1052.3622" />
    <use
       id="use5603"
       xlink:href="#path5529"
       transform="matrix(0.51564223,-0.66626774,0.66626774,0.51564223,-171.41248,421.77101)"
       x="0"
       y="0"
       width="744.09448"
       height="1052.3622" />
    <use
       id="use5605"
       xlink:href="#path5529"
       transform="matrix(1.0530628,-0.48603094,0.48603094,1.0530628,-199.06527,175.37601)"
       x="0"
       y="0"
       width="744.09448"
       height="1052.3622" />
    <use
       id="use5607"
       xlink:href="#path5529"
       transform="matrix(1.1362515,0.78779344,-0.78779344,1.1362515,305.2653,-210.06066)"
       x="0"
       y="0"
       width="744.09448"
       height="1052.3622" />
    <use
       id="use5609"
       xlink:href="#path5529"
       transform="matrix(0.71096068,0.03073184,-0.03073184,0.71096068,115.83977,171.21474)"
       x="0"
       y="0"
       width="744.09448"
       height="1052.3622" />
    <use
       id="use5611"
       xlink:href="#path5529"
       transform="matrix(1.0984615,0.95024352,-0.95024352,1.0984615,308.75637,-291.90487)"
       x="0"
       y="0"
       width="744.09448"
       height="1052.3622" />
    <use
       id="use5613"
       xlink:href="#path5529"
       transform="matrix(1.3881719,0.21718423,-0.21718423,1.3881719,-70.669238,-135.06174)"
       x="0"
       y="0"
       width="744.09448"
       height="1052.3622" />
    <use
       id="use5615"
       xlink:href="#path5529"
       transform="matrix(0.53648051,-1.1080964,1.1080964,0.53648051,-333.60339,569.84681)"
       x="0"
       y="0"
       width="744.09448"
       height="1052.3622" />
    <use
       id="use5617"
       xlink:href="#path5529"
       transform="matrix(0.25557988,-0.97255686,0.97255686,0.25557988,-87.550418,602.37805)"
       x="0"
       y="0"
       width="744.09448"
       height="1052.3622" />
    <use
       id="use5619"
       xlink:href="#path5529"
       transform="matrix(0.63356832,-0.65374952,0.65374952,0.63356832,-29.980895,371.93368)"
       x="0"
       y="0"
       width="744.09448"
       height="1052.3622" />
    <use
       id="use5621"
       xlink:href="#path5529"
       transform="matrix(0.48362819,-1.1442018,1.1442018,0.48362819,-181.65582,541.8416)"
       x="0"
       y="0"
       width="744.09448"
       height="1052.3622" />
    <use
       id="use5623"
       xlink:href="#path5529"
       transform="matrix(1.164022,-0.9420557,0.9420557,1.164022,-279.64847,228.68988)"
       x="0"
       y="0"
       width="744.09448"
       height="1052.3622" />
    <use
       id="use5625"
       xlink:href="#path5529"
       transform="matrix(0.73212547,0.84656371,-0.84656371,0.73212547,562.81283,-112.61946)"
       x="0"
       y="0"
       width="744.09448"
       height="1052.3622" />
    <use
       id="use5627"
       xlink:href="#path5529"
       transform="matrix(0.33830196,-1.1150967,1.1150967,0.33830196,-155.8438,625.84005)"
       x="0"
       y="0"
       width="744.09448"
       height="1052.3622" />
    <use
       id="use5629"
       xlink:href="#path5529"
       transform="matrix(0.2609279,-1.1280092,1.1280092,0.2609279,-123.32298,670.94084)"
       x="0"
       y="0"
       width="744.09448"
       height="1052.3622" />
  </g>
</svg>
