<?xml version="1.0" encoding="UTF-8" standalone="no"?>
<!-- Created with Inkscape (http://www.inkscape.org/) -->

<svg
   xmlns:dc="http://purl.org/dc/elements/1.1/"
   xmlns:cc="http://creativecommons.org/ns#"
   xmlns:rdf="http://www.w3.org/1999/02/22-rdf-syntax-ns#"
   xmlns:svg="http://www.w3.org/2000/svg"
   xmlns="http://www.w3.org/2000/svg"
   xmlns:xlink="http://www.w3.org/1999/xlink"
   xmlns:sodipodi="http://sodipodi.sourceforge.net/DTD/sodipodi-0.dtd"
   xmlns:inkscape="http://www.inkscape.org/namespaces/inkscape"
   width="744.09448819"
   height="1052.3622047"
   id="svg5650"
   version="1.1"
   inkscape:version="0.48.4 r9939"
   sodipodi:docname="New document 12">
  <defs
     id="defs5652" />
  <sodipodi:namedview
     id="base"
     pagecolor="#ffffff"
     bordercolor="#666666"
     borderopacity="1.0"
     inkscape:pageopacity="0.0"
     inkscape:pageshadow="2"
     inkscape:zoom="1.2847305"
     inkscape:cx="365.71429"
     inkscape:cy="661.42857"
     inkscape:document-units="px"
     inkscape:current-layer="layer1"
     showgrid="false"
     inkscape:window-width="1301"
     inkscape:window-height="744"
     inkscape:window-x="65"
     inkscape:window-y="24"
     inkscape:window-maximized="1" />
  <metadata
     id="metadata5655">
    <rdf:RDF>
      <cc:Work
         rdf:about="">
        <dc:format>image/svg+xml</dc:format>
        <dc:type
           rdf:resource="http://purl.org/dc/dcmitype/StillImage" />
        <dc:title></dc:title>
      </cc:Work>
    </rdf:RDF>
  </metadata>
  <g
     inkscape:label="Layer 1"
     inkscape:groupmode="layer"
     id="layer1">
    <path
       style="fill:#008000;stroke:#000000;stroke-width:1px;stroke-linecap:butt;stroke-linejoin:miter;stroke-opacity:1"
       d="m 212.49592,495.04687 c 0,-3.63241 0,-7.26482 0,-10.89723 0,-0.77837 -0.12796,-1.56733 0,-2.33512 0.13489,-0.80931 0.66234,-1.52288 0.77838,-2.33512 0.33023,-2.31165 -0.23236,-4.68182 0,-7.00536 0.13164,-1.31641 0.64673,-2.57545 0.77837,-3.89186 0.12908,-1.29085 0,-2.59458 0,-3.89187 0,-2.59458 0,-5.18915 0,-7.78373 0,-2.07566 0,-4.15133 0,-6.22699 0,-0.51891 0,-1.03783 0,-1.55675 0,-0.25945 0.082,-0.53223 0,-0.77837 -0.18347,-0.55039 -0.59491,-1.00635 -0.77837,-1.55675 -0.0821,-0.24614 0,-0.51891 0,-0.77837 0,-0.6518 0.14798,-3.29994 0,-3.89187 -0.30469,-1.21875 -2.10446,-3.5169 -2.33512,-4.67024 -0.15266,-0.76325 0.12796,-1.56733 0,-2.33512 -0.13489,-0.80931 -0.51892,-1.55674 -0.77838,-2.33512 -0.25946,-0.77837 -0.51891,-1.55674 -0.77837,-2.33512 -0.51892,-1.55674 -0.94731,-3.14665 -1.55675,-4.67024 -0.21547,-0.53867 -0.66459,-0.98784 -0.77837,-1.55674 -0.15265,-0.76326 0.15265,-1.57186 0,-2.33512 -0.11378,-0.5689 -0.56291,-1.01808 -0.77838,-1.55675 -0.60943,-1.52359 -1.03783,-3.11349 -1.55674,-4.67024 -0.25946,-0.77837 -0.41145,-1.60126 -0.77838,-2.33512 -0.41836,-0.83673 -1.13838,-1.49839 -1.55674,-2.33512 -0.36693,-0.73386 -0.51892,-1.55675 -0.77838,-2.33512 -0.25945,-0.77837 -0.51891,-1.55675 -0.77837,-2.33512 -1.11666,-3.34999 -0.57938,-1.53914 -1.55675,-5.44861 -0.25945,-1.03783 -0.62708,-2.05448 -0.77837,-3.1135 -0.11008,-0.77055 0.15265,-1.57186 0,-2.33512 -0.11378,-0.56889 -0.63766,-0.9939 -0.77837,-1.55674 -0.12586,-0.50342 0.10177,-1.04791 0,-1.55675 0.17862,-1.56308 -1.21787,-2.53636 -1.55675,-3.89187 -0.12585,-0.50342 0.12586,-1.05332 0,-1.55674 -0.28142,-1.12569 -1.12581,-2.03616 -1.55675,-3.1135 -0.30471,-0.76179 -0.57937,-1.53914 -0.77837,-2.33512 -0.0629,-0.25171 0.11603,-0.5463 0,-0.77837 -0.16409,-0.32819 -0.66234,-0.43027 -0.77837,-0.77837 -0.1641,-0.49229 0.16409,-1.06446 0,-1.55675 -0.11603,-0.3481 -0.57484,-0.47307 -0.77838,-0.77837 -0.0966,-0.14499 -1.50686,-3.06362 -1.55674,-3.1135 -0.41024,-0.41023 -1.14651,-0.36813 -1.55675,-0.77837 -0.41024,-0.41024 -0.45655,-1.07402 -0.77837,-1.55675 -1.18744,-1.78115 -0.61614,0.48671 -1.55675,-2.33512 -0.082,-0.24614 0.18347,-0.59491 0,-0.77837 -0.41024,-0.41024 -1.07402,-0.45656 -1.55675,-0.77837 -0.3053,-0.20354 -0.51891,-0.51892 -0.77837,-0.77838 -0.25946,-0.25945 -0.61428,-0.45018 -0.77837,-0.77837 -0.11603,-0.23207 0,-0.51892 0,-0.77837 -0.25946,-0.51892 -0.45656,-1.07402 -0.77838,-1.55675 -0.40707,-0.61061 -1.22855,-0.90036 -1.55674,-1.55675 -0.95855,-1.91709 2.25941,0.70267 -0.77838,-2.33512 -0.18346,-0.18346 -0.66234,0.23207 -0.77837,0 -0.23206,-0.46413 0.1641,-1.06446 0,-1.55674 -0.11603,-0.3481 -0.61428,-0.45019 -0.77837,-0.77838 -0.11603,-0.23206 0.11603,-0.5463 0,-0.77837 -0.1641,-0.32819 -0.61428,-0.45018 -0.77838,-0.77837 -0.11603,-0.23207 0.11604,-0.54631 0,-0.77838 -0.16409,-0.32819 -0.61427,-0.45018 -0.77837,-0.77837 -0.23206,-0.46413 0.36693,-1.18982 0,-1.55675 -0.18346,-0.18346 -0.77837,0.25946 -0.77837,0 0,-0.25945 0.54631,-0.11603 0.77837,0 2.21805,1.10903 -0.6613,0.44773 1.55675,1.55675 0.46413,0.23207 1.09261,-0.23207 1.55674,0 0.65639,0.32819 0.90037,1.22856 1.55675,1.55675 0.23207,0.11603 0.54631,-0.11604 0.77837,0 0.3282,0.16409 0.45019,0.61427 0.77838,0.77837 0.23206,0.11603 0.54631,-0.11603 0.77837,0 0.65638,0.32819 0.90037,1.22856 1.55675,1.55675 0.23206,0.11603 0.54631,-0.11604 0.77837,0 0.32819,0.16409 0.47307,0.57483 0.77837,0.77837 0.48273,0.32182 1.09262,0.43027 1.55675,0.77837 0.58709,0.44032 0.96966,1.11644 1.55675,1.55675 0.92826,0.6962 2.14804,0.91311 3.11349,1.55675 0.61061,0.40707 1.03783,1.03783 1.55675,1.55674 0.77837,0.77838 1.55674,1.55675 2.33512,2.33512 0.25946,0.25946 0.47307,0.57484 0.77837,0.77838 0.48273,0.32181 1.09262,0.43027 1.55675,0.77837 0.88063,0.66047 1.41921,1.72451 2.33512,2.33512 0.48272,0.32182 1.14651,0.36814 1.55674,0.77837 0.18347,0.18347 -0.18346,0.59491 0,0.77838 5.18916,5.18915 -1.8162,-3.89187 2.33512,2.33512 0.20354,0.3053 0.57484,0.47307 0.77838,0.77837 0.64363,0.96545 0.91311,2.14804 1.55674,3.11349 0.20354,0.30531 0.57484,0.47307 0.77838,0.77838 0.958,1.43699 1.37712,3.23324 2.33512,4.67024 0.20353,0.3053 0.61428,0.45018 0.77837,0.77837 0.11603,0.23207 -0.11603,0.54631 0,0.77837 0.1641,0.32819 0.57484,0.47307 0.77838,0.77838 2.82182,5.64366 -0.82048,-1.23072 1.55674,2.33512 0.86412,1.29617 1.43333,3.46785 2.33512,4.67024 0.44032,0.58708 1.22856,0.90036 1.55675,1.55674 0.23206,0.46414 -0.23207,1.09262 0,1.55675 0.32819,0.65638 1.22855,0.90037 1.55675,1.55675 0.23206,0.46413 -0.1641,1.06446 0,1.55674 0.11603,0.3481 0.57483,0.47307 0.77837,0.77838 0.64363,0.96545 0.86055,2.18523 1.55675,3.11349 2.95047,3.93397 0.45103,-0.65467 2.33512,3.11349 0.51891,1.03784 1.12581,2.03616 1.55674,3.1135 0.30472,0.76179 0.35624,1.63156 0.77838,2.33512 0.37756,0.62928 1.17918,0.92747 1.55674,1.55674 0.42213,0.70356 0.35624,1.63157 0.77838,2.33512 0.37756,0.62928 1.17918,0.92747 1.55674,1.55675 0.0154,0.0256 1.5164,4.56937 1.55675,4.67024 0.64417,1.61043 1.69095,3.05981 2.33512,4.67024 0.30472,0.7618 0.41144,1.60126 0.77837,2.33512 0.1641,0.32819 0.61428,0.45018 0.77838,0.77837 0.25792,0.51585 -0.21746,2.46112 0,3.1135 0.36692,1.10078 1.27532,1.98781 1.55674,3.11349 0.25171,1.00685 -0.20353,2.09582 0,3.11349 0.16091,0.80455 0.61747,1.53058 0.77838,2.33512 0.10176,0.50884 -0.10177,1.04791 0,1.55675 0.1609,0.80455 0.64348,1.52581 0.77837,2.33512 0.12796,0.76778 -0.12797,1.56734 0,2.33512 0.13488,0.80932 0.64349,1.52581 0.77837,2.33512 0.12797,0.76778 0,1.55675 0,2.33512 0,0.77837 0,1.55675 0,2.33512 0,0.77837 -0.15265,1.57186 0,2.33512 0.11378,0.5689 0.63766,0.9939 0.77838,1.55675 0.12585,0.50342 0,1.03783 0,1.55674 0,0.51892 0,1.03784 0,1.55675 0,1.55675 0,3.11349 0,4.67024 0,5.70807 0,11.41614 0,17.12421 0,2.59458 0,5.18916 0,7.78374 0,0.25946 0,0.51891 0,0.77837 0,0.25946 0.18346,0.59491 0,0.77837 -0.18347,0.18347 -0.59491,-0.18346 -0.77838,0 -0.18346,0.18347 0.18347,0.59491 0,0.77838 -0.27322,0.27322 -3.35422,-0.26883 -3.89186,0 -0.3282,0.16409 -0.45019,0.61428 -0.77838,0.77837 -0.23206,0.11603 -0.51891,0 -0.77837,0 -0.25946,0 -0.51892,0 -0.77837,0 -0.60845,0 -5.02313,0.14183 -5.44862,0 -0.55039,-0.18346 -1.00635,-0.59491 -1.55674,-0.77837 -0.70054,-0.23351 -1.63459,0.23351 -2.33512,0 -0.5504,-0.18347 -0.99391,-0.63766 -1.55675,-0.77838 -1.00685,-0.25171 -2.10665,0.25172 -3.11349,0 -0.56285,-0.14071 -1.00636,-0.5949 -1.55675,-0.77837 -0.10015,-0.0334 -2.27066,-0.0322 -2.33512,0 -1.35317,0.67658 -2.3852,2.47209 -3.89187,2.33512 -1.86329,-0.16939 -2.99679,-2.27677 -4.67024,-3.11349 -0.46413,-0.23207 -1.05332,0.12585 -1.55675,0 -0.56284,-0.14071 -1.03783,-0.51892 -1.55674,-0.77838"
       id="path5658"
       inkscape:connector-curvature="0" />
    <use
       id="use5660"
       xlink:href="#path5658"
       transform="matrix(0.55456477,1.0841956,-1.0841956,0.55456477,648.64716,-14.809718)"
       x="0"
       y="0"
       width="744.09448"
       height="1052.3622" />
    <use
       id="use5662"
       xlink:href="#path5658"
       transform="matrix(0.73335988,-0.45349781,0.45349781,0.73335988,-84.465333,210.99668)"
       x="0"
       y="0"
       width="744.09448"
       height="1052.3622" />
    <use
       id="use5664"
       xlink:href="#path5658"
       transform="matrix(0.47380377,0.08136298,-0.08136298,0.47380377,224.76104,245.35933)"
       x="0"
       y="0"
       width="744.09448"
       height="1052.3622" />
    <use
       id="use5666"
       xlink:href="#path5658"
       transform="matrix(0.3563961,1.3164958,-1.3164958,0.3563961,804.74163,10.269035)"
       x="0"
       y="0"
       width="744.09448"
       height="1052.3622" />
    <use
       id="use5668"
       xlink:href="#path5658"
       transform="matrix(1.096571,0.91348006,-0.91348006,1.096571,452.8485,-206.12537)"
       x="0"
       y="0"
       width="744.09448"
       height="1052.3622" />
    <use
       id="use5670"
       xlink:href="#path5658"
       transform="matrix(0.32303202,-0.9945592,0.9945592,0.32303202,-113.28205,474.022)"
       x="0"
       y="0"
       width="744.09448"
       height="1052.3622" />
    <use
       id="use5672"
       xlink:href="#path5658"
       transform="matrix(0.78995623,0.55900694,-0.55900694,0.78995623,466.4141,-4.0560839)"
       x="0"
       y="0"
       width="744.09448"
       height="1052.3622" />
    <use
       id="use5674"
       xlink:href="#path5658"
       transform="matrix(0.44333819,-0.75985435,0.75985435,0.44333819,-2.4114715,373.35382)"
       x="0"
       y="0"
       width="744.09448"
       height="1052.3622" />
    <use
       id="use5676"
       xlink:href="#path5658"
       transform="matrix(0.64432285,-0.15438563,0.15438563,0.64432285,278.95492,159.9758)"
       x="0"
       y="0"
       width="744.09448"
       height="1052.3622" />
    <use
       id="use5678"
       xlink:href="#path5658"
       transform="matrix(0.79632262,-1.094137,1.094137,0.79632262,-221.85787,242.61008)"
       x="0"
       y="0"
       width="744.09448"
       height="1052.3622" />
    <use
       id="use5680"
       xlink:href="#path5658"
       transform="matrix(0.94725589,0.87531924,-0.87531924,0.94725589,531.24846,-250.23704)"
       x="0"
       y="0"
       width="744.09448"
       height="1052.3622" />
    <use
       id="use5682"
       xlink:href="#path5658"
       transform="matrix(0.62048067,-0.71251363,0.71251363,0.62048067,-99.851129,230.6498)"
       x="0"
       y="0"
       width="744.09448"
       height="1052.3622" />
    <use
       id="use5684"
       xlink:href="#path5658"
       transform="matrix(0.2972258,-0.80296621,0.80296621,0.2972258,-156.93762,416.2551)"
       x="0"
       y="0"
       width="744.09448"
       height="1052.3622" />
    <use
       id="use5686"
       xlink:href="#path5658"
       transform="matrix(0.56876979,-1.2438501,1.2438501,0.56876979,-344.72401,371.95254)"
       x="0"
       y="0"
       width="744.09448"
       height="1052.3622" />
    <use
       id="use5688"
       xlink:href="#path5658"
       transform="matrix(0.51234785,0.27986258,-0.27986258,0.51234785,238.20775,69.22269)"
       x="0"
       y="0"
       width="744.09448"
       height="1052.3622" />
    <use
       id="use5690"
       xlink:href="#path5658"
       transform="matrix(0.77092587,-0.25727801,0.25727801,0.77092587,-53.503852,133.55347)"
       x="0"
       y="0"
       width="744.09448"
       height="1052.3622" />
    <use
       id="use5692"
       xlink:href="#path5658"
       transform="matrix(0.5563587,-0.01516747,0.01516747,0.5563587,96.000342,178.98446)"
       x="0"
       y="0"
       width="744.09448"
       height="1052.3622" />
    <use
       id="use5694"
       xlink:href="#path5658"
       transform="matrix(0.71198839,0.75963508,-0.75963508,0.71198839,394.88917,-13.956032)"
       x="0"
       y="0"
       width="744.09448"
       height="1052.3622" />
    <use
       id="use5696"
       xlink:href="#path5658"
       transform="matrix(0.83341188,0.99704274,-0.99704274,0.83341188,531.45872,-127.32815)"
       x="0"
       y="0"
       width="744.09448"
       height="1052.3622" />
    <use
       id="use5698"
       xlink:href="#path5658"
       transform="matrix(0.56127197,0.04329852,-0.04329852,0.56127197,166.44709,164.86483)"
       x="0"
       y="0"
       width="744.09448"
       height="1052.3622" />
    <use
       id="use5700"
       xlink:href="#path5658"
       transform="matrix(0.65210711,-0.20308006,0.20308006,0.65210711,51.772232,116.49919)"
       x="0"
       y="0"
       width="744.09448"
       height="1052.3622" />
    <use
       id="use5702"
       xlink:href="#path5658"
       transform="matrix(0.64884234,-0.45121066,0.45121066,0.64884234,-38.20164,64.822105)"
       x="0"
       y="0"
       width="744.09448"
       height="1052.3622" />
    <use
       id="use5704"
       xlink:href="#path5658"
       transform="matrix(0.77710444,0.07677745,-0.07677745,0.77710444,157.95878,-105.20103)"
       x="0"
       y="0"
       width="744.09448"
       height="1052.3622" />
    <use
       id="use5706"
       xlink:href="#path5658"
       transform="matrix(1.122465,0.96977576,-0.96977576,1.122465,419.63222,-458.06212)"
       x="0"
       y="0"
       width="744.09448"
       height="1052.3622" />
    <use
       id="use5708"
       xlink:href="#path5658"
       transform="matrix(1.0102989,0.7872115,-0.7872115,1.0102989,413.25064,-334.05791)"
       x="0"
       y="0"
       width="744.09448"
       height="1052.3622" />
    <use
       id="use5710"
       xlink:href="#path5658"
       transform="matrix(0.65289668,-0.65814702,0.65814702,0.65289668,-190.63719,104.68852)"
       x="0"
       y="0"
       width="744.09448"
       height="1052.3622" />
    <use
       id="use5712"
       xlink:href="#path5658"
       transform="matrix(0.53109931,1.2253641,-1.2253641,0.53109931,726.01231,-77.88858)"
       x="0"
       y="0"
       width="744.09448"
       height="1052.3622" />
    <use
       id="use5714"
       xlink:href="#path5658"
       transform="matrix(0.41443183,-0.4362078,0.4362078,0.41443183,76.447559,239.07991)"
       x="0"
       y="0"
       width="744.09448"
       height="1052.3622" />
    <use
       id="use5716"
       xlink:href="#path5658"
       transform="matrix(0.5020208,0.11739651,-0.11739651,0.5020208,360.90991,67.437987)"
       x="0"
       y="0"
       width="744.09448"
       height="1052.3622" />
    <use
       id="use5718"
       xlink:href="#path5658"
       transform="matrix(0.81105765,-0.26411787,0.26411787,0.81105765,138.14977,-116.76117)"
       x="0"
       y="0"
       width="744.09448"
       height="1052.3622" />
    <use
       id="use5720"
       xlink:href="#path5658"
       transform="matrix(0.75614435,-0.43076448,0.43076448,0.75614435,44.855,-11.723111)"
       x="0"
       y="0"
       width="744.09448"
       height="1052.3622" />
    <use
       id="use5722"
       xlink:href="#path5658"
       transform="matrix(0.53876608,0.39074353,-0.39074353,0.53876608,367.72822,23.587837)"
       x="0"
       y="0"
       width="744.09448"
       height="1052.3622" />
    <use
       id="use5724"
       xlink:href="#path5658"
       transform="matrix(0.33326218,-0.77435976,0.77435976,0.33326218,-47.606206,382.94783)"
       x="0"
       y="0"
       width="744.09448"
       height="1052.3622" />
    <use
       id="use5726"
       xlink:href="#path5658"
       transform="matrix(1.0636107,1.0668562,-1.0668562,1.0636107,587.44258,-365.19264)"
       x="0"
       y="0"
       width="744.09448"
       height="1052.3622" />
    <use
       id="use5728"
       xlink:href="#path5658"
       transform="matrix(0.45901207,1.2520932,-1.2520932,0.45901207,791.33313,-150.54971)"
       x="0"
       y="0"
       width="744.09448"
       height="1052.3622" />
    <use
       id="use5730"
       xlink:href="#path5658"
       transform="matrix(0.36935403,-1.3443056,1.3443056,0.36935403,-280.68266,375.54635)"
       x="0"
       y="0"
       width="744.09448"
       height="1052.3622" />
    <use
       id="use5732"
       xlink:href="#path5658"
       transform="matrix(1.2256571,-0.75711892,0.75711892,1.2256571,-200.17683,-28.848481)"
       x="0"
       y="0"
       width="744.09448"
       height="1052.3622" />
    <use
       id="use5734"
       xlink:href="#path5658"
       transform="matrix(1.1284693,-0.50019324,0.50019324,1.1284693,-88.332062,46.003664)"
       x="0"
       y="0"
       width="744.09448"
       height="1052.3622" />
    <use
       id="use5736"
       xlink:href="#path5658"
       transform="matrix(1.2450694,0.58440117,-0.58440117,1.2450694,394.14286,-174.41314)"
       x="0"
       y="0"
       width="744.09448"
       height="1052.3622" />
    <use
       id="use5738"
       xlink:href="#path5658"
       transform="matrix(0.5060527,0.83200329,-0.83200329,0.5060527,746.40814,-164.08647)"
       x="0"
       y="0"
       width="744.09448"
       height="1052.3622" />
    <use
       id="use5740"
       xlink:href="#path5658"
       transform="matrix(0.24087804,0.74417327,-0.74417327,0.24087804,754.27939,29.167098)"
       x="0"
       y="0"
       width="744.09448"
       height="1052.3622" />
    <use
       id="use5742"
       xlink:href="#path5658"
       transform="matrix(0.77546079,0.28676697,-0.28676697,0.77546079,446.41096,-134.78043)"
       x="0"
       y="0"
       width="744.09448"
       height="1052.3622" />
    <use
       id="use5744"
       xlink:href="#path5658"
       transform="matrix(0.82257997,-0.23836387,0.23836387,0.82257997,215.31489,-84.259477)"
       x="0"
       y="0"
       width="744.09448"
       height="1052.3622" />
    <use
       id="use5746"
       xlink:href="#path5658"
       transform="matrix(0.94837327,-0.1442715,0.1442715,0.94837327,174.92671,-68.67712)"
       x="0"
       y="0"
       width="744.09448"
       height="1052.3622" />
    <use
       id="use5748"
       xlink:href="#path5658"
       transform="matrix(1.1477926,0.23122364,-0.23122364,1.1477926,360.14215,-250.43992)"
       x="0"
       y="0"
       width="744.09448"
       height="1052.3622" />
    <use
       id="use5750"
       xlink:href="#path5658"
       transform="matrix(0.47358832,-1.1098654,1.1098654,0.47358832,-101.96425,482.8489)"
       x="0"
       y="0"
       width="744.09448"
       height="1052.3622" />
    <use
       id="use5752"
       xlink:href="#path5658"
       transform="matrix(0.48332751,-0.53722647,0.53722647,0.48332751,160.6181,341.99547)"
       x="0"
       y="0"
       width="744.09448"
       height="1052.3622" />
    <use
       id="use5754"
       xlink:href="#path5658"
       transform="matrix(0.29474286,-0.45885744,0.45885744,0.29474286,178.86451,413.89063)"
       x="0"
       y="0"
       width="744.09448"
       height="1052.3622" />
    <use
       id="use5756"
       xlink:href="#path5658"
       transform="matrix(0.27373949,-0.43129912,0.43129912,0.27373949,190.19835,434.61705)"
       x="0"
       y="0"
       width="744.09448"
       height="1052.3622" />
    <use
       id="use5758"
       xlink:href="#path5658"
       transform="matrix(1.0288817,-0.92125544,0.92125544,1.0288817,-173.14675,232.26509)"
       x="0"
       y="0"
       width="744.09448"
       height="1052.3622" />
    <use
       id="use5760"
       xlink:href="#path5658"
       transform="matrix(1.3186275,-0.50478092,0.50478092,1.3186275,-30.944625,79.957594)"
       x="0"
       y="0"
       width="744.09448"
       height="1052.3622" />
    <use
       id="use5762"
       xlink:href="#path5658"
       transform="matrix(0.89895196,0.40503447,-0.40503447,0.89895196,404.5817,22.782678)"
       x="0"
       y="0"
       width="744.09448"
       height="1052.3622" />
    <use
       id="use5764"
       xlink:href="#path5658"
       transform="matrix(0.52872167,-0.61325026,0.61325026,0.52872167,53.68155,451.39363)"
       x="0"
       y="0"
       width="744.09448"
       height="1052.3622" />
    <use
       id="use5766"
       xlink:href="#path5658"
       transform="matrix(0.97405422,0.13494915,-0.13494915,0.97405422,320.96778,45.31156)"
       x="0"
       y="0"
       width="744.09448"
       height="1052.3622" />
    <use
       id="use5768"
       xlink:href="#path5658"
       transform="matrix(0.42416767,-0.44535995,0.44535995,0.42416767,127.77535,255.43329)"
       x="0"
       y="0"
       width="744.09448"
       height="1052.3622" />
    <use
       id="use5770"
       xlink:href="#path5658"
       transform="matrix(0.57130318,1.1777573,-1.1777573,0.57130318,762.067,-130.45004)"
       x="0"
       y="0"
       width="744.09448"
       height="1052.3622" />
    <use
       id="use5772"
       xlink:href="#path5658"
       transform="matrix(0.44179143,0.81062319,-0.81062319,0.44179143,514.09375,133.06186)"
       x="0"
       y="0"
       width="744.09448"
       height="1052.3622" />
    <use
       id="use5774"
       xlink:href="#path5658"
       transform="matrix(1.1743487,0.81094466,-0.81094466,1.1743487,391.62989,-171.59572)"
       x="0"
       y="0"
       width="744.09448"
       height="1052.3622" />
    <use
       id="use5776"
       xlink:href="#path5658"
       transform="matrix(0.59443721,0.53585936,-0.53585936,0.59443721,443.46181,19.704922)"
       x="0"
       y="0"
       width="744.09448"
       height="1052.3622" />
    <use
       id="use5778"
       xlink:href="#path5658"
       transform="matrix(1.127601,-0.04993654,0.04993654,1.127601,53.595797,8.0748974)"
       x="0"
       y="0"
       width="744.09448"
       height="1052.3622" />
    <use
       id="use5780"
       xlink:href="#path5658"
       transform="matrix(0.50693694,0.38632366,-0.38632366,0.50693694,388.23304,239.18152)"
       x="0"
       y="0"
       width="744.09448"
       height="1052.3622" />
    <use
       id="use5782"
       xlink:href="#path5658"
       transform="matrix(0.60785587,-0.41068272,0.41068272,0.60785587,41.261822,325.98951)"
       x="0"
       y="0"
       width="744.09448"
       height="1052.3622" />
    <use
       id="use5784"
       xlink:href="#path5658"
       transform="matrix(1.3731511,0.04603199,-0.04603199,1.3731511,94.279316,-181.99901)"
       x="0"
       y="0"
       width="744.09448"
       height="1052.3622" />
    <use
       id="use5786"
       xlink:href="#path5658"
       transform="matrix(0.63406857,-0.84412821,0.84412821,0.63406857,-151.65589,351.72176)"
       x="0"
       y="0"
       width="744.09448"
       height="1052.3622" />
    <use
       id="use5788"
       xlink:href="#path5658"
       transform="matrix(0.96533727,0.04947597,-0.04947597,0.96533727,62.664923,-159.9189)"
       x="0"
       y="0"
       width="744.09448"
       height="1052.3622" />
    <use
       id="use5790"
       xlink:href="#path5658"
       transform="matrix(0.42691186,-0.35633395,0.35633395,0.42691186,19.723868,128.82467)"
       x="0"
       y="0"
       width="744.09448"
       height="1052.3622" />
    <use
       id="use5792"
       xlink:href="#path5658"
       transform="matrix(0.36217237,0.96281819,-0.96281819,0.36217237,602.19498,-142.66134)"
       x="0"
       y="0"
       width="744.09448"
       height="1052.3622" />
    <use
       id="use5794"
       xlink:href="#path5658"
       transform="matrix(1.2455076,0.20985419,-0.20985419,1.2455076,111.53128,-336.94473)"
       x="0"
       y="0"
       width="744.09448"
       height="1052.3622" />
    <use
       id="use5796"
       xlink:href="#path5658"
       transform="matrix(1.2129413,-0.041148,0.041148,1.2129413,10.478021,-323.44204)"
       x="0"
       y="0"
       width="744.09448"
       height="1052.3622" />
    <use
       id="use5798"
       xlink:href="#path5658"
       transform="matrix(0.63375604,-0.14942195,0.14942195,0.63375604,175.64838,-66.98611)"
       x="0"
       y="0"
       width="744.09448"
       height="1052.3622" />
    <use
       id="use5800"
       xlink:href="#path5658"
       transform="matrix(0.97494602,-1.0164911,1.0164911,0.97494602,-242.7531,-60.663031)"
       x="0"
       y="0"
       width="744.09448"
       height="1052.3622" />
    <use
       id="use5802"
       xlink:href="#path5658"
       transform="matrix(0.70480775,-0.78584501,0.78584501,0.70480775,-120.57154,63.208599)"
       x="0"
       y="0"
       width="744.09448"
       height="1052.3622" />
    <use
       id="use5804"
       xlink:href="#path5658"
       transform="matrix(0.41221013,-0.57934602,0.57934602,0.41221013,-21.659139,169.21103)"
       x="0"
       y="0"
       width="744.09448"
       height="1052.3622" />
    <use
       id="use5806"
       xlink:href="#path5658"
       transform="matrix(0.3061092,0.76581272,-0.76581272,0.3061092,581.82412,-72.845109)"
       x="0"
       y="0"
       width="744.09448"
       height="1052.3622" />
    <use
       id="use5808"
       xlink:href="#path5658"
       transform="matrix(0.84074348,0.06617156,-0.06617156,0.84074348,175.86999,-132.5494)"
       x="0"
       y="0"
       width="744.09448"
       height="1052.3622" />
    <use
       id="use5810"
       xlink:href="#path5658"
       transform="matrix(1.0526348,-1.0243003,1.0243003,1.0526348,-284.40178,26.632352)"
       x="0"
       y="0"
       width="744.09448"
       height="1052.3622" />
    <use
       id="use5812"
       xlink:href="#path5658"
       transform="matrix(0.47699892,0.25785444,-0.25785444,0.47699892,361.10151,-7.1860055)"
       x="0"
       y="0"
       width="744.09448"
       height="1052.3622" />
    <use
       id="use5814"
       xlink:href="#path5658"
       transform="matrix(1.4682312,0.33265587,-0.33265587,1.4682312,243.9768,-452.21237)"
       x="0"
       y="0"
       width="744.09448"
       height="1052.3622" />
    <use
       id="use5816"
       xlink:href="#path5658"
       transform="matrix(1.389605,0.07118913,-0.07118913,1.389605,117.64008,-312.87545)"
       x="0"
       y="0"
       width="744.09448"
       height="1052.3622" />
    <use
       id="use5818"
       xlink:href="#path5658"
       transform="matrix(1.472718,0.20823551,-0.20823551,1.472718,97.900208,-282.10261)"
       x="0"
       y="0"
       width="744.09448"
       height="1052.3622" />
    <use
       id="use5820"
       xlink:href="#path5658"
       transform="matrix(0.48579994,-0.93846663,0.93846663,0.48579994,-233.43986,418.85253)"
       x="0"
       y="0"
       width="744.09448"
       height="1052.3622" />
    <use
       id="use5822"
       xlink:href="#path5658"
       transform="matrix(0.86481494,0.38424943,-0.38424943,0.86481494,284.68577,-49.705795)"
       x="0"
       y="0"
       width="744.09448"
       height="1052.3622" />
    <use
       id="use5824"
       xlink:href="#path5658"
       transform="matrix(1.2352522,0.23027048,-0.23027048,1.2352522,142.57717,-193.94589)"
       x="0"
       y="0"
       width="744.09448"
       height="1052.3622" />
    <use
       id="use5826"
       xlink:href="#path5658"
       transform="matrix(0.96614248,-0.45707264,0.45707264,0.96614248,-169.00732,82.55845)"
       x="0"
       y="0"
       width="744.09448"
       height="1052.3622" />
    <use
       id="use5828"
       xlink:href="#path5658"
       transform="matrix(0.72797596,-1.309726,1.309726,0.72797596,-515.28184,496.63385)"
       x="0"
       y="0"
       width="744.09448"
       height="1052.3622" />
    <use
       id="use5830"
       xlink:href="#path5658"
       transform="matrix(0.49278323,-1.1514665,1.1514665,0.49278323,-357.23365,587.26323)"
       x="0"
       y="0"
       width="744.09448"
       height="1052.3622" />
    <use
       id="use5832"
       xlink:href="#path5658"
       transform="matrix(0.6024168,1.1145037,-1.1145037,0.6024168,565.29359,50.735919)"
       x="0"
       y="0"
       width="744.09448"
       height="1052.3622" />
    <use
       id="use5834"
       xlink:href="#path5658"
       transform="matrix(0.47144419,-0.09872743,0.09872743,0.47144419,28.743406,365.93418)"
       x="0"
       y="0"
       width="744.09448"
       height="1052.3622" />
    <use
       id="use5836"
       xlink:href="#path5658"
       transform="matrix(0.9574655,0.31786401,-0.31786401,0.9574655,158.21322,45.140044)"
       x="0"
       y="0"
       width="744.09448"
       height="1052.3622" />
    <use
       id="use5838"
       xlink:href="#path5658"
       transform="matrix(0.18570444,-0.55568802,0.55568802,0.18570444,177.60414,551.7561)"
       x="0"
       y="0"
       width="744.09448"
       height="1052.3622" />
    <use
       id="use5840"
       xlink:href="#path5658"
       transform="matrix(0.49076552,-1.0501525,1.0501525,0.49076552,-118.23414,520.01277)"
       x="0"
       y="0"
       width="744.09448"
       height="1052.3622" />
    <use
       id="use5842"
       xlink:href="#path5658"
       transform="matrix(0.84989542,-1.0709844,1.0709844,0.84989542,-141.48273,267.28665)"
       x="0"
       y="0"
       width="744.09448"
       height="1052.3622" />
    <use
       id="use5844"
       xlink:href="#path5658"
       transform="matrix(0.6836388,0.59915383,-0.59915383,0.6836388,638.54273,-9.9644559)"
       x="0"
       y="0"
       width="744.09448"
       height="1052.3622" />
    <use
       id="use5846"
       xlink:href="#path5658"
       transform="matrix(0.94853771,0.90360339,-0.90360339,0.94853771,673.88988,-171.33056)"
       x="0"
       y="0"
       width="744.09448"
       height="1052.3622" />
    <use
       id="use5848"
       xlink:href="#path5658"
       transform="matrix(0.41697172,-0.40213753,0.40213753,0.41697172,254.53978,310.55128)"
       x="0"
       y="0"
       width="744.09448"
       height="1052.3622" />
    <use
       id="use5850"
       xlink:href="#path5658"
       transform="matrix(0.47053327,-0.39748998,0.39748998,0.47053327,206.22412,111.7819)"
       x="0"
       y="0"
       width="744.09448"
       height="1052.3622" />
    <use
       id="use5852"
       xlink:href="#path5658"
       transform="matrix(0.2661738,0.68388403,-0.68388403,0.2661738,424.84594,117.83127)"
       x="0"
       y="0"
       width="744.09448"
       height="1052.3622" />
    <use
       id="use5854"
       xlink:href="#path5658"
       transform="matrix(0.65667271,-0.73792498,0.73792498,0.65667271,-294.80869,342.41764)"
       x="0"
       y="0"
       width="744.09448"
       height="1052.3622" />
    <use
       id="use5856"
       xlink:href="#path5658"
       transform="matrix(0.65735743,0.88292418,-0.88292418,0.65735743,387.99058,13.614714)"
       x="0"
       y="0"
       width="744.09448"
       height="1052.3622" />
    <use
       id="use5858"
       xlink:href="#path5658"
       transform="matrix(0.48759729,-0.20592994,0.20592994,0.48759729,-28.873211,160.38173)"
       x="0"
       y="0"
       width="744.09448"
       height="1052.3622" />
    <use
       id="use5860"
       xlink:href="#path5658"
       transform="matrix(0.37725319,1.1000435,-1.1000435,0.37725319,566.32506,-121.18474)"
       x="0"
       y="0"
       width="744.09448"
       height="1052.3622" />
    <use
       id="use5862"
       xlink:href="#path5658"
       transform="matrix(0.4873538,0.54768427,-0.54768427,0.4873538,232.60502,95.758818)"
       x="0"
       y="0"
       width="744.09448"
       height="1052.3622" />
    <use
       id="use5864"
       xlink:href="#path5658"
       transform="matrix(0.78836478,-0.57068108,0.57068108,0.78836478,-222.90948,238.94546)"
       x="0"
       y="0"
       width="744.09448"
       height="1052.3622" />
    <use
       id="use5866"
       xlink:href="#path5658"
       transform="matrix(0.34471279,-0.41675549,0.41675549,0.34471279,-127.39569,346.88963)"
       x="0"
       y="0"
       width="744.09448"
       height="1052.3622" />
    <use
       id="use5868"
       xlink:href="#path5658"
       transform="matrix(0.43633104,-0.83364364,0.83364364,0.43633104,-351.28312,366.37769)"
       x="0"
       y="0"
       width="744.09448"
       height="1052.3622" />
    <use
       id="use5870"
       xlink:href="#path5658"
       transform="matrix(0.16957399,-0.45322817,0.45322817,0.16957399,-83.943874,511.21254)"
       x="0"
       y="0"
       width="744.09448"
       height="1052.3622" />
    <use
       id="use5872"
       xlink:href="#path5658"
       transform="matrix(0.471431,-0.75688107,0.75688107,0.471431,-269.66719,447.91424)"
       x="0"
       y="0"
       width="744.09448"
       height="1052.3622" />
    <use
       id="use5874"
       xlink:href="#path5658"
       transform="matrix(0.6027453,-0.09619436,0.09619436,0.6027453,18.751148,42.094492)"
       x="0"
       y="0"
       width="744.09448"
       height="1052.3622" />
    <use
       id="use5876"
       xlink:href="#path5658"
       transform="matrix(1.1977374,-0.31434179,0.31434179,1.1977374,-223.76742,-199.43542)"
       x="0"
       y="0"
       width="744.09448"
       height="1052.3622" />
    <use
       id="use5878"
       xlink:href="#path5658"
       transform="matrix(0.49737499,0.47807045,-0.47807045,0.49737499,246.60212,50.818864)"
       x="0"
       y="0"
       width="744.09448"
       height="1052.3622" />
    <use
       id="use5880"
       xlink:href="#path5658"
       transform="matrix(0.43795392,0.19779915,-0.19779915,0.43795392,149.48597,194.9275)"
       x="0"
       y="0"
       width="744.09448"
       height="1052.3622" />
    <use
       id="use5882"
       xlink:href="#path5658"
       transform="matrix(0.43192429,-1.4516133,1.4516133,0.43192429,-552.9593,510.85603)"
       x="0"
       y="0"
       width="744.09448"
       height="1052.3622" />
    <use
       id="use5884"
       xlink:href="#path5658"
       transform="matrix(0.77113012,-0.89063547,0.89063547,0.77113012,-394.78482,129.65859)"
       x="0"
       y="0"
       width="744.09448"
       height="1052.3622" />
    <use
       id="use5886"
       xlink:href="#path5658"
       transform="matrix(0.50244645,0.22487496,-0.22487496,0.50244645,146.05309,-52.677705)"
       x="0"
       y="0"
       width="744.09448"
       height="1052.3622" />
    <use
       id="use5888"
       xlink:href="#path5658"
       transform="matrix(0.8067357,0.40150888,-0.40150888,0.8067357,158.14389,-211.59214)"
       x="0"
       y="0"
       width="744.09448"
       height="1052.3622" />
    <use
       id="use5890"
       xlink:href="#path5658"
       transform="matrix(0.90121879,0.62023941,-0.62023941,0.90121879,289.7295,-284.42896)"
       x="0"
       y="0"
       width="744.09448"
       height="1052.3622" />
    <use
       id="use5892"
       xlink:href="#path5658"
       transform="matrix(0.15821743,-0.68951571,0.68951571,0.15821743,-125.2986,282.79276)"
       x="0"
       y="0"
       width="744.09448"
       height="1052.3622" />
    <use
       id="use5894"
       xlink:href="#path5658"
       transform="matrix(1.0167542,0.34821951,-0.34821951,1.0167542,149.73001,-310.246)"
       x="0"
       y="0"
       width="744.09448"
       height="1052.3622" />
    <use
       id="use5896"
       xlink:href="#path5658"
       transform="matrix(0.5046649,-0.43241211,0.43241211,0.5046649,-96.255887,60.623916)"
       x="0"
       y="0"
       width="744.09448"
       height="1052.3622" />
    <use
       id="use5898"
       xlink:href="#path5658"
       transform="matrix(1.1598767,-0.46271585,0.46271585,1.1598767,-283.69066,-18.762096)"
       x="0"
       y="0"
       width="744.09448"
       height="1052.3622" />
  </g>
</svg>
